<?xml version="1.0" encoding="UTF-8" standalone="no"?>
<!-- Created with Inkscape (http://www.inkscape.org/) -->

<svg
   width="9.3768034mm"
   height="51.805252mm"
   viewBox="0 0 9.3768034 51.805252"
   version="1.1"
   id="svg5"
   inkscape:version="1.2 (dc2aedaf03, 2022-05-15)"
   sodipodi:docname="congratulations.svg"
   xmlns:inkscape="http://www.inkscape.org/namespaces/inkscape"
   xmlns:sodipodi="http://sodipodi.sourceforge.net/DTD/sodipodi-0.dtd"
   xmlns="http://www.w3.org/2000/svg"
   xmlns:svg="http://www.w3.org/2000/svg">
  <sodipodi:namedview
     id="namedview7"
     pagecolor="#ffffff"
     bordercolor="#666666"
     borderopacity="1.0"
     inkscape:showpageshadow="2"
     inkscape:pageopacity="0.0"
     inkscape:pagecheckerboard="0"
     inkscape:deskcolor="#d1d1d1"
     inkscape:document-units="mm"
     showgrid="false"
     inkscape:zoom="3.5705387"
     inkscape:cx="5.4613608"
     inkscape:cy="67.496818"
     inkscape:window-width="2560"
     inkscape:window-height="1377"
     inkscape:window-x="1272"
     inkscape:window-y="-8"
     inkscape:window-maximized="1"
     inkscape:current-layer="layer1" />
  <defs
     id="defs2" />
  <g
     inkscape:label="F.SilkS"
     inkscape:groupmode="layer"
     id="layer1"
     transform="translate(-74.452315,-119.9071)">
    <path
       d="m 83.829118,122.60584 c 0,-0.15875 -0.03175,-0.33867 -0.105833,-0.51858 -0.253999,-0.635 -1.05833,-0.97367 -1.809744,-0.97367 -0.285749,0 -0.550332,0.0529 -0.783164,0.14817 -0.08467,0.0318 -0.127,0.0635 -0.127,0.0741 0,0.0212 0.05292,0.0318 0.137583,0.0529 0.455082,0.0741 0.783164,0.30692 1.047747,0.64558 0.05292,0.0741 0.08467,0.13758 0.08467,0.21167 0,0.0847 -0.05292,0.16933 -0.137583,0.24341 -0.158749,0.127 -0.296332,0.23284 -0.497415,0.35984 -0.08467,0.0635 -0.126999,0.0952 -0.126999,0.10583 0,0.0212 0.02117,0.0212 0.05292,0.0212 0.03175,0 0.0635,-0.0106 0.116416,-0.0106 0.1905,-0.0212 0.349249,-0.0318 0.476249,-0.0318 0.751414,0 0.603248,0.27517 1.005413,0.35983 0.04233,0.0106 0.08467,0.0106 0.116417,0.0106 0.328082,0 0.550331,-0.29634 0.550331,-0.6985 z m -0.560915,3.8629 c 0,-0.87841 -0.444498,-1.75682 -1.291162,-2.12724 -0.444499,-0.20108 -0.910164,-0.3175 -1.428746,-0.3175 -0.634998,0 -1.333495,0.16933 -2.180159,0.58208 0,-0.42333 0.02117,-0.80433 0.04233,-1.12183 0.624415,-0.127 1.354662,-0.33866 1.95791,-0.66674 0.359832,-0.20109 0.529165,-0.4445 0.529165,-0.65617 0,-0.29633 -0.306915,-0.52916 -0.814914,-0.53975 -0.370415,-0.0106 -0.666748,-0.0635 -1.100663,-0.23283 -0.03175,-0.0106 -0.05292,-0.0212 -0.07408,-0.0212 -0.01058,0 -0.02117,0 -0.02117,0.0106 0,0.0106 0.02117,0.0423 0.0635,0.0741 0.137583,0.127 0.253999,0.254 0.338666,0.34925 0.04233,0.0423 0.0635,0.0847 0.0635,0.13758 0,0.0741 -0.0635,0.14817 -0.15875,0.1905 -0.222249,0.10583 -0.476248,0.1905 -0.719664,0.27517 0.04233,-0.40217 0.07408,-0.70908 0.105833,-0.889 0.08467,-0.39158 0.232832,-0.35983 0.232832,-0.67733 0,-0.0212 0,-0.0423 0,-0.0635 -0.02117,-0.41275 -0.560915,-0.86783 -1.259412,-0.86783 -0.22225,0 -0.455082,0.0423 -0.687915,0.14816 -0.0635,0.0318 -0.105833,0.0529 -0.105833,0.0847 0,0.0212 0.03175,0.0529 0.105833,0.0847 0.444499,0.20108 0.571498,0.62441 0.571498,1.09008 0,0.0212 0,0.0423 0,0.0635 -0.01058,0.37041 -0.02117,0.80433 -0.03175,1.26999 -0.402165,0.0529 -0.740831,0.0847 -1.02658,0.0847 -0.603248,0 -0.973663,-0.127 -1.238246,-0.41275 -0.0635,-0.0741 -0.105833,-0.11642 -0.137583,-0.11642 -0.02117,0 -0.02117,0.0423 0,0.14817 0.201083,0.93133 0.963081,1.3335 1.989661,1.3335 0.126999,0 0.253999,-0.0106 0.380999,-0.0212 -0.01058,0.508 -0.02117,1.016 -0.03175,1.50283 -0.518582,0.3175 -1.079497,0.71966 -1.682745,1.18533 -0.211666,0.16933 -0.370416,0.254 -0.497415,0.254 -0.137583,0 -0.243416,-0.0952 -0.370416,-0.30692 -0.04233,-0.0635 -0.07408,-0.0952 -0.09525,-0.0952 -0.03175,0 -0.05292,0.0318 -0.09525,0.0952 -0.105833,0.17992 -0.148166,0.46567 -0.148166,0.77258 0,0.35983 0.0635,0.73025 0.158749,0.96308 0.15875,0.35983 0.486832,0.55033 0.793748,0.55033 0.137583,0 0.275166,-0.0423 0.380999,-0.11641 0.296332,-0.21167 0.391582,-0.5715 0.624414,-1.06892 0.582082,0.49742 0.571498,0.6985 0.666748,1.16417 0.07408,0.34925 0.359832,0.59266 0.656165,0.59266 0.211666,0 0.433915,-0.11641 0.603248,-0.40216 0.211666,-0.35984 0.253999,-0.77258 0.126999,-1.55575 -0.08467,-0.5715 -0.105833,-1.31233 -0.105833,-2.02141 0.560915,-0.381 1.21708,-0.66675 1.830911,-0.66675 0.253999,0 0.507999,0.0529 0.751414,0.16934 0.529165,0.26458 0.772581,0.79374 0.772581,1.32291 0,0.5715 -0.285749,1.143 -0.814914,1.37583 -0.116416,0.0529 -0.253999,0.0847 -0.402165,0.0847 -0.455082,0 -0.952497,-0.28575 -0.952497,-1.05833 0,-0.0635 0,-0.13758 0.01058,-0.22225 0.01058,-0.0529 0.01058,-0.0952 0.01058,-0.13758 0,-0.0635 -0.01058,-0.0953 -0.03175,-0.0953 -0.03175,0 -0.07408,0.0529 -0.127,0.17992 -0.201083,0.42333 -0.285749,0.8255 -0.285749,1.16416 0,0.98425 0.709081,1.59808 1.682745,1.59808 0.306915,0 0.645581,-0.0635 0.984246,-0.1905 0.994831,-0.37042 1.481662,-1.30175 1.481662,-2.23308 z m -5.905481,0.64559 c 0,0.24341 -0.04233,0.31749 -0.190499,0.31749 -0.08467,0 -0.201083,-0.0318 -0.349249,-0.0635 -0.137583,-0.0318 -0.264583,-0.0529 -0.349249,-0.0847 0.190499,-0.42333 0.656165,-1.016 0.867831,-1.23825 0,0.1905 0,0.53975 0.02117,0.99483 0,0.0318 0,0.0529 0,0.0741 z"
       style="font-size:10.5833px;line-height:1.25;font-family:'FOT-Matisse Pro';-inkscape-font-specification:'FOT-Matisse Pro';writing-mode:tb-rl;stroke-width:0.264583;fill:#000000;fill-opacity:1"
       id="path5314" />
    <path
       d="m 83.680952,136.0678 c 0,-1.67216 -1.238246,-2.75166 -3.14324,-2.99508 0.05292,-0.16933 0.105833,-0.34925 0.15875,-0.52916 0.116416,-0.41275 0.328082,-0.49742 0.328082,-0.8255 0,-0.0212 0,-0.0423 0,-0.0635 -0.04233,-0.47625 -0.793748,-0.93133 -1.566328,-0.93133 -0.169333,0 -0.349249,0.0317 -0.507999,0.0741 -0.105833,0.0317 -0.148166,0.0635 -0.148166,0.10584 0,0.0317 0.04233,0.0741 0.127,0.10583 0.232832,0.0847 0.317499,0.29633 0.317499,0.70908 0,0.0423 0,0.0952 0,0.14817 -0.01058,0.39158 -0.0635,0.79375 -0.137583,1.20649 -0.740831,0.10584 -1.449912,0.35984 -2.074327,0.75142 -0.285749,-1.2065 -0.529165,-1.651 -1.333496,-1.78858 -0.05292,-0.0106 -0.08467,-0.0106 -0.105833,-0.0106 -0.02117,0 -0.03175,0 -0.03175,0.0106 0,0.0212 0.03175,0.0529 0.0635,0.11642 0.412749,0.73024 0.412749,1.55574 0.582082,2.31774 -0.698498,0.67733 -1.174747,1.57691 -1.269996,2.59291 -0.01058,0.15875 -0.02117,0.3175 -0.02117,0.45508 0,1.02658 0.370415,1.47108 0.952497,1.47108 0.391582,0 0.888997,-0.20108 1.439329,-0.56092 0.275166,-0.17991 0.560915,-0.42333 0.857247,-0.73024 0.148166,0.11641 0.306916,0.21166 0.476248,0.30691 0.169333,0.0847 0.328083,0.127 0.476249,0.127 0.423332,0 0.730248,-0.3175 0.730248,-0.67733 0,-0.23283 -0.137583,-0.49742 -0.465666,-0.6985 -0.105833,-0.0635 -0.201082,-0.127 -0.349248,-0.22225 0.465665,-0.74083 0.910163,-1.70391 1.322912,-2.92099 1.142996,0.29633 1.777994,1.143 1.777994,2.16958 0,0.127 -0.01058,0.26458 -0.03175,0.40216 -0.306915,1.92616 -1.471078,2.86808 -3.513655,3.04799 -0.127,0.0106 -0.190499,0.0423 -0.190499,0.0741 0,0.0318 0.0635,0.0635 0.201082,0.0741 0.317499,0.0212 0.613832,0.0423 0.910164,0.0423 2.349493,0 3.884071,-0.86783 4.13807,-2.89982 0.02117,-0.15875 0.03175,-0.30692 0.03175,-0.45508 z m -4.667235,-2.55058 c -0.190499,0.762 -0.476249,1.524 -0.846664,2.25425 -0.412749,-0.43392 -0.772581,-0.93134 -0.984247,-1.47108 0.529165,-0.40217 1.15358,-0.68792 1.830911,-0.78317 z m -1.672161,3.38666 c -0.15875,0.15875 -0.317499,0.30691 -0.497415,0.42333 -0.359833,0.23283 -0.603249,0.33867 -0.783165,0.33867 -0.264582,0 -0.359832,-0.23284 -0.359832,-0.58209 0,-0.0635 0.01058,-0.11641 0.01058,-0.17991 0.04233,-0.62442 0.28575,-1.24883 0.677332,-1.78858 0.190499,0.55033 0.497415,1.2065 0.952497,1.78858 z"
       style="font-size:10.5833px;line-height:1.25;font-family:'FOT-Matisse Pro';-inkscape-font-specification:'FOT-Matisse Pro';writing-mode:tb-rl;stroke-width:0.264583;fill:#000000;fill-opacity:1"
       id="path5316" />
    <path
       d="m 83.585702,145.08477 c 0,-0.13758 -0.05292,-0.29633 -0.179916,-0.47625 -0.253999,-0.37042 -0.80433,-0.64558 -1.396995,-0.64558 -0.0635,0 -0.116417,0 -0.179916,0.0106 -0.09525,0.0106 -0.148167,0.0106 -0.148167,0.0423 0,0.0212 0.05292,0.0635 0.137583,0.127 0.380999,0.28574 0.772581,0.68791 0.952497,1.06891 0.09525,0.22225 0.264583,0.3175 0.412749,0.3175 0.211666,0 0.402165,-0.16934 0.402165,-0.4445 z m -0.984246,0.74083 c 0,-0.10583 -0.02117,-0.24342 -0.09525,-0.39158 -0.211666,-0.49742 -0.825498,-0.80433 -1.407579,-0.86783 -0.03175,0 -0.0635,-0.0106 -0.08467,-0.0106 -0.105833,0 -0.105833,0.0529 0,0.16934 0.317499,0.34925 0.603248,0.73024 0.761997,1.23824 0.0635,0.22225 0.243416,0.32809 0.412749,0.32809 0.211666,0 0.412749,-0.15875 0.412749,-0.46567 z m 0.825497,-3.14324 c 0,-0.0635 -0.01058,-0.13758 -0.04233,-0.22225 -0.169333,-0.45508 -0.698498,-0.70908 -1.439329,-0.70908 -0.296332,0 -0.285749,0.13758 -1.047747,0.30692 -2.14841,0.46566 -4.01107,0.79374 -4.857734,0.92074 -0.22225,0.0317 -0.391582,0.0529 -0.529165,0.0529 -0.402166,0 -0.529165,-0.13758 -0.698498,-0.381 -0.05292,-0.0847 -0.105833,-0.11642 -0.137583,-0.11642 -0.04233,0 -0.07408,0.0635 -0.09525,0.15875 -0.03175,0.15875 -0.04233,0.32809 -0.04233,0.48683 0,0.889 0.486832,1.62983 1.238246,1.70392 0.02117,0 0.03175,0 0.05292,0 0.444498,0 0.793747,-0.48684 1.354662,-0.83608 0.719664,-0.4445 2.201326,-0.93133 2.995074,-1.10067 0.02117,0 0.04233,-0.0106 0.0635,-0.0106 0.02117,0 0.04233,0.0106 0.04233,0.0212 0,0.0106 -0.02117,0.0318 -0.07408,0.0529 -1.418162,0.61383 -2.614075,2.04258 -2.614075,3.97932 0,0.0212 0,0.0529 0,0.0741 0.03175,1.79916 0.772581,2.98449 3.238489,2.98449 0.05292,0 0.105833,0 0.15875,0 0.751414,-0.0106 1.217079,-0.28575 1.269996,-0.83608 0,-0.0317 0,-0.0741 0,-0.10584 0,-0.52916 -0.380999,-0.98424 -1.18533,-0.98424 -0.09525,0 -0.201082,0.0106 -0.306915,0.0212 -0.137583,0.0212 -0.275166,0.0318 -0.402166,0.0318 -1.015996,0 -1.629828,-0.53975 -1.725078,-1.28058 -0.03175,-0.22225 -0.04233,-0.42333 -0.04233,-0.62441 0,-2.09549 1.481662,-3.11149 3.439573,-3.11149 0.158749,0 0.328082,0.0106 0.486831,0.0212 0.04233,0 0.08467,0 0.127,0 0.412749,0 0.772581,-0.15874 0.772581,-0.49741 z"
       style="font-size:10.5833px;line-height:1.25;font-family:'FOT-Matisse Pro';-inkscape-font-specification:'FOT-Matisse Pro';writing-mode:tb-rl;stroke-width:0.264583;fill:#000000;fill-opacity:1"
       id="path5318" />
    <path
       d="m 82.569706,155.44582 c 0,-0.5715 -0.687915,-1.3335 -1.598079,-1.397 -0.02117,0 -0.04233,0 -0.0635,0 -0.09525,0 -0.137583,0.0212 -0.137583,0.0847 0,0.0318 0.02117,0.0847 0.0635,0.14817 0.04233,0.0529 0.05292,0.0953 0.05292,0.13758 0,0.127 -0.148166,0.20108 -0.412749,0.30691 -0.634998,0.23284 -1.269996,0.45509 -1.86266,0.70909 -0.05292,-0.14817 -0.07408,-0.32809 -0.07408,-0.53975 0,-0.29633 0.04233,-0.66675 0.08467,-1.10067 0.07408,-0.69849 0.349249,-0.60324 0.349249,-0.93133 0,-0.0106 0,-0.0212 0,-0.0318 -0.02117,-0.56091 -0.783164,-0.97366 -1.545162,-0.97366 -0.211666,0 -0.423332,0.0317 -0.624415,0.10583 -0.126999,0.0423 -0.179916,0.0741 -0.179916,0.11642 0,0.0423 0.05292,0.0847 0.15875,0.13758 0.285749,0.15875 0.380999,0.55033 0.380999,1.2065 0,0.1905 0,0.381 0,0.56091 0,0.73025 0.07408,1.38642 0.86783,1.72508 -1.354662,0.65617 -2.381242,1.48166 -2.381242,2.67758 0,0.127 0.01058,0.254 0.03175,0.39158 0.232832,1.33349 1.756827,1.93674 4.085153,1.93674 0.465665,0 0.973664,-0.0212 1.502829,-0.0741 0.645581,-0.0423 1.206496,-0.381 1.206496,-0.92075 0,-0.0847 -0.01058,-0.17991 -0.04233,-0.27516 -0.116417,-0.381 -0.465665,-0.59267 -0.963081,-0.59267 -0.137582,0 -0.285749,0.0212 -0.444498,0.0529 -0.698498,0.15875 -1.545162,0.26458 -2.317743,0.26458 -1.217079,0 -2.275409,-0.26458 -2.402409,-1.02658 -0.01058,-0.0529 -0.01058,-0.10583 -0.01058,-0.15875 0,-1.04775 1.841494,-1.78858 4.656652,-1.92616 0.243416,-0.0106 0.433915,-0.0106 0.592665,-0.0106 0.05292,0 0.09525,0 0.137582,0 0.370416,0 0.529165,-0.0106 0.709082,-0.17992 0.116416,-0.11642 0.179916,-0.26458 0.179916,-0.42333 z"
       style="font-size:10.5833px;line-height:1.25;font-family:'FOT-Matisse Pro';-inkscape-font-specification:'FOT-Matisse Pro';writing-mode:tb-rl;stroke-width:0.264583;fill:#000000;fill-opacity:1"
       id="path5320" />
    <path
       d="m 81.215043,163.55262 c 0,-0.0212 0,-0.0317 0,-0.0529 -0.05292,-0.5715 -0.698497,-0.87842 -1.333495,-0.87842 -0.01058,0 -0.02117,0 -0.03175,0 -0.391582,0.0106 -0.740831,0.0212 -1.068914,0.0212 -0.878414,0 -1.492245,-0.0635 -1.735661,-0.35983 -0.04233,-0.0529 -0.08467,-0.0741 -0.105833,-0.0741 -0.02117,0 -0.03175,0.0212 -0.03175,0.0529 0,0.0212 0,0.0529 0.01058,0.0847 0.232832,0.83608 0.698497,1.20649 1.703911,1.36524 0.0635,0.0106 0.09525,0.0212 0.09525,0.0423 0,0.0212 -0.02117,0.0423 -0.0635,0.0741 -0.264583,0.21167 -0.761998,0.58208 -1.05833,0.79375 -0.07408,0.0529 -0.105833,0.0847 -0.105833,0.10583 0,0.0106 0.01058,0.0106 0.03175,0.0106 0.03175,0 0.09525,-0.0106 0.169333,-0.0318 1.407578,-0.42333 1.979077,-0.61383 2.391825,-0.61383 0.07408,0 0.148166,0.0106 0.211666,0.0212 0.0635,0.0106 0.127,0.0212 0.1905,0.0212 0.359832,0 0.730247,-0.1905 0.730247,-0.58209 z m 1.396996,4.16982 c 0,-0.0318 0,-0.0741 0,-0.10583 0,-1.42874 -1.02658,-2.29657 -2.656408,-2.29657 -0.127,0 -0.254,0 -0.391582,0.0106 -0.709082,0.0529 -1.513412,0.28575 -2.698742,0.60325 -0.306916,0.0847 -0.550331,0.13758 -0.730248,0.13758 -0.211666,0 -0.349248,-0.0847 -0.455081,-0.26458 -0.137583,-0.254 -0.179917,-0.23283 -0.264583,0.0635 -0.04233,0.13758 -0.05292,0.28575 -0.05292,0.42333 0,0.6985 0.423332,1.41816 1.100663,1.41816 h 0.01058 c 0.328082,0 0.740831,-0.24341 1.047747,-0.68791 0.370415,-0.53975 1.312329,-1.23825 2.158993,-1.23825 0.0635,0 0.126999,0 0.190499,0.0106 0.486832,0.0635 0.920747,0.5715 0.920747,1.4605 0,0.0953 0,0.1905 -0.01058,0.29633 -0.190499,1.98966 -1.12183,3.31257 -3.693572,3.97932 -0.148166,0.0317 -0.222249,0.0847 -0.222249,0.11642 0,0.0423 0.05292,0.0635 0.169333,0.0635 0.02117,0 0.04233,0 0.0635,0 3.767654,-0.26458 5.429232,-1.64041 5.513899,-3.98991 z"
       style="font-size:10.5833px;line-height:1.25;font-family:'FOT-Matisse Pro';-inkscape-font-specification:'FOT-Matisse Pro';writing-mode:tb-rl;stroke-width:0.264583;fill:#000000;fill-opacity:1"
       id="path5322" />
  </g>
</svg>
