<?xml version="1.0" encoding="UTF-8" standalone="no"?>
<!-- Created with Inkscape (http://www.inkscape.org/) -->

<svg
   width="59.455441mm"
   height="32.861641mm"
   viewBox="0 0 59.45544 32.861641"
   version="1.1"
   id="svg5"
   inkscape:version="1.2 (dc2aedaf03, 2022-05-15)"
   sodipodi:docname="name.svg"
   xmlns:inkscape="http://www.inkscape.org/namespaces/inkscape"
   xmlns:sodipodi="http://sodipodi.sourceforge.net/DTD/sodipodi-0.dtd"
   xmlns="http://www.w3.org/2000/svg"
   xmlns:svg="http://www.w3.org/2000/svg">
  <sodipodi:namedview
     id="namedview7"
     pagecolor="#ffffff"
     bordercolor="#666666"
     borderopacity="1.0"
     inkscape:showpageshadow="2"
     inkscape:pageopacity="0.0"
     inkscape:pagecheckerboard="0"
     inkscape:deskcolor="#d1d1d1"
     inkscape:document-units="mm"
     showgrid="false"
     inkscape:zoom="3.5705387"
     inkscape:cx="92.282994"
     inkscape:cy="83.460795"
     inkscape:window-width="2560"
     inkscape:window-height="1377"
     inkscape:window-x="1272"
     inkscape:window-y="-8"
     inkscape:window-maximized="1"
     inkscape:current-layer="g4676" />
  <defs
     id="defs2" />
  <g
     inkscape:label="Layer 1"
     inkscape:groupmode="layer"
     id="layer1"
     transform="translate(-122.5445,-80.163399)"
     sodipodi:insensitive="true"
     style="display:none">
    <text
       xml:space="preserve"
       style="font-style:normal;font-weight:normal;font-size:6.96535px;line-height:1.75;font-family:sans-serif;fill:#000000;fill-opacity:1;stroke:none;stroke-width:0.437667;stroke-dasharray:none"
       x="142.8864"
       y="73.963776"
       id="text741"
       transform="scale(0.85680052,1.1671328)"><tspan
         sodipodi:role="line"
         style="font-style:normal;font-variant:normal;font-weight:bold;font-stretch:normal;font-family:Century;-inkscape-font-specification:'Century Bold';stroke-width:0.437667;stroke-dasharray:none"
         x="142.8864"
         y="73.963776"
         id="tspan2445">HARRISON</tspan></text>
    <text
       xml:space="preserve"
       style="font-style:normal;font-weight:normal;font-size:10.806px;line-height:1.75;font-family:sans-serif;fill:#000000;fill-opacity:1;stroke:none;stroke-width:0.678994;stroke-dasharray:none"
       x="178.34972"
       y="68.108147"
       id="text741-1"
       transform="scale(0.68527541,1.4592673)"><tspan
         sodipodi:role="line"
         style="font-style:normal;font-variant:normal;font-weight:bold;font-stretch:normal;font-family:Century;-inkscape-font-specification:'Century Bold';stroke-width:0.678994;stroke-dasharray:none"
         x="178.34972"
         y="68.108147"
         id="tspan2445-3">GIERALTOWSKI</tspan></text>
    <text
       xml:space="preserve"
       style="font-style:normal;font-variant:normal;font-weight:normal;font-stretch:normal;font-size:7.87557px;line-height:100;font-family:'Helvetica Compressed';-inkscape-font-specification:'Helvetica Compressed';letter-spacing:0.264583px;fill:#000000;fill-opacity:1;stroke:none;stroke-width:0.19689"
       x="129.01335"
       y="104.78371"
       id="text795"
       transform="scale(0.94864291,1.0541374)"><tspan
         sodipodi:role="line"
         id="tspan793"
         style="font-style:normal;font-variant:normal;font-weight:normal;font-stretch:normal;font-family:'Helvetica Compressed';-inkscape-font-specification:'Helvetica Compressed';stroke-width:0.19689"
         x="129.01335"
         y="104.78371">MIDIMANIA</tspan></text>
  </g>
  <g
     inkscape:label="F.SilkS"
     inkscape:groupmode="layer"
     id="g4676"
     transform="translate(-122.5445,-80.163399)">
    <g
       aria-label="HARRISON"
       transform="scale(0.85680052,1.1671328)"
       id="text4666"
       style="font-size:6.96535px;line-height:1.75;fill:#000000;fill-opacity:1;stroke:none;stroke-width:0.437667">
      <path
         d="m 146.71038,71.184601 v -1.448793 q 0,-0.362198 -0.14628,-0.501505 -0.14627,-0.139307 -0.52936,-0.139307 v -0.229857 h 2.49359 v 0.229857 q -0.37613,0 -0.52936,0.139307 -0.14628,0.132342 -0.14628,0.501505 v 3.357299 q 0,0.362198 0.14628,0.501505 0.14627,0.139307 0.52936,0.139307 v 0.229857 h -2.49359 v -0.229857 q 0.37613,0 0.5224,-0.132342 0.15324,-0.139307 0.15324,-0.50847 v -1.581135 h -1.86672 v 1.581135 q 0,0.362198 0.14627,0.501505 0.14628,0.139307 0.52937,0.139307 v 0.229857 h -2.49359 v -0.229857 q 0.37612,0 0.5224,-0.132342 0.15323,-0.139307 0.15323,-0.50847 v -3.357299 q 0,-0.362198 -0.14627,-0.501505 -0.14627,-0.139307 -0.52936,-0.139307 v -0.229857 h 2.49359 v 0.229857 q -0.37613,0 -0.52937,0.139307 -0.14627,0.132342 -0.14627,0.501505 v 1.448793 z"
         style="font-weight:bold;font-family:Century;-inkscape-font-specification:'Century Bold';fill:#000000;fill-opacity:1;stroke:none"
         id="path6174" />
      <path
         d="m 152.98616,72.856285 q 0.15323,0.501505 0.24378,0.626881 0.1811,0.250753 0.60599,0.250753 v 0.229857 h -2.44484 v -0.229857 q 0.32041,0 0.43185,-0.06965 0.11841,-0.07662 0.11841,-0.243788 0,-0.10448 -0.0139,-0.174133 -0.0139,-0.06965 -0.0697,-0.229857 L 151.607,72.19458 h -1.77617 l -0.15324,0.438817 q -0.0557,0.153237 -0.0975,0.306475 -0.0418,0.153238 -0.0418,0.278614 0,0.250753 0.1811,0.383094 0.18806,0.132342 0.44578,0.132342 v 0.229857 h -1.85278 v -0.229857 q 0.43881,-0.125376 0.6617,-0.40399 0.15324,-0.188065 0.34131,-0.696535 l 1.35824,-3.621982 1.01694,-0.327372 z m -2.18712,-3.224957 -0.82888,2.235877 h 1.52541 z"
         style="font-weight:bold;font-family:Century;-inkscape-font-specification:'Century Bold';fill:#000000;fill-opacity:1;stroke:none"
         id="path6176" />
      <path
         d="m 155.50065,71.205497 q 0.82888,0 1.16321,-0.264683 0.33434,-0.271649 0.33434,-0.849773 0,-0.508471 -0.28558,-0.731362 -0.28558,-0.222891 -0.8637,-0.222891 -0.32041,0 -0.40399,0.118411 -0.0766,0.118411 -0.0766,0.452748 v 1.49755 z m 2.18712,1.581134 q 0.26468,0.48061 0.41792,0.647778 0.27862,0.29951 0.67564,0.29951 v 0.229857 h -1.72044 q -0.0557,-0.09055 -0.15324,-0.28558 -0.0975,-0.19503 -0.14627,-0.29951 l -0.41096,-0.870669 q -0.28558,-0.61295 -0.53633,-0.821911 -0.1811,-0.153238 -0.44578,-0.153238 v 1.560239 q 0,0.362198 0.14627,0.501505 0.14627,0.139307 0.52937,0.139307 v 0.229857 h -2.4936 v -0.229857 q 0.37613,0 0.5224,-0.132342 0.15324,-0.139307 0.15324,-0.50847 v -3.357299 q 0,-0.362198 -0.14627,-0.501505 -0.14627,-0.139307 -0.52937,-0.139307 v -0.229857 h 2.9951 q 0.75923,0 1.21197,0.362199 0.45275,0.362198 0.45275,0.933356 0,0.529367 -0.41792,0.863704 -0.35523,0.285579 -0.92639,0.390059 0.13931,0.09055 0.25772,0.278614 0.0627,0.09752 0.18806,0.341303 z"
         style="font-weight:bold;font-family:Century;-inkscape-font-specification:'Century Bold';fill:#000000;fill-opacity:1;stroke:none"
         id="path6178" />
      <path
         d="m 160.52963,71.205497 q 0.82888,0 1.16322,-0.264683 0.33433,-0.271649 0.33433,-0.849773 0,-0.508471 -0.28558,-0.731362 -0.28557,-0.222891 -0.8637,-0.222891 -0.3204,0 -0.40399,0.118411 -0.0766,0.118411 -0.0766,0.452748 v 1.49755 z m 2.18712,1.581134 q 0.26469,0.48061 0.41792,0.647778 0.27862,0.29951 0.67564,0.29951 v 0.229857 h -1.72044 q -0.0557,-0.09055 -0.15324,-0.28558 -0.0975,-0.19503 -0.14627,-0.29951 l -0.41095,-0.870669 q -0.28558,-0.61295 -0.53634,-0.821911 -0.18109,-0.153238 -0.44578,-0.153238 v 1.560239 q 0,0.362198 0.14627,0.501505 0.14628,0.139307 0.52937,0.139307 v 0.229857 h -2.49359 v -0.229857 q 0.37612,0 0.5224,-0.132342 0.15323,-0.139307 0.15323,-0.50847 v -3.357299 q 0,-0.362198 -0.14627,-0.501505 -0.14627,-0.139307 -0.52936,-0.139307 v -0.229857 h 2.9951 q 0.75922,0 1.21197,0.362199 0.45275,0.362198 0.45275,0.933356 0,0.529367 -0.41793,0.863704 -0.35523,0.285579 -0.92639,0.390059 0.13931,0.09055 0.25772,0.278614 0.0627,0.09752 0.18806,0.341303 z"
         style="font-weight:bold;font-family:Century;-inkscape-font-specification:'Century Bold';fill:#000000;fill-opacity:1;stroke:none"
         id="path6180" />
      <path
         d="m 164.38147,69.735808 q 0,-0.362198 -0.14627,-0.501505 -0.14627,-0.139307 -0.52937,-0.139307 v -0.229857 h 2.4936 v 0.229857 q -0.37613,0 -0.52937,0.139307 -0.14627,0.132342 -0.14627,0.501505 v 3.357299 q 0,0.362198 0.14627,0.501505 0.14627,0.139307 0.52937,0.139307 v 0.229857 h -2.4936 v -0.229857 q 0.37613,0 0.52241,-0.132342 0.15323,-0.139307 0.15323,-0.50847 z"
         style="font-weight:bold;font-family:Century;-inkscape-font-specification:'Century Bold';fill:#000000;fill-opacity:1;stroke:none"
         id="path6182" />
      <path
         d="m 170.23934,70.195521 -0.26468,0.09055 q -0.29951,-0.487575 -0.73137,-0.842808 -0.52936,-0.431851 -1.00997,-0.431851 -0.37613,0 -0.62688,0.201995 -0.24379,0.19503 -0.24379,0.557228 0,0.369163 0.35523,0.592055 0.1811,0.111445 0.68957,0.271648 l 0.41096,0.132342 q 0.79405,0.257718 1.17018,0.571159 0.5224,0.431851 0.5224,1.135352 0,0.696535 -0.50151,1.156248 -0.5015,0.459713 -1.205,0.459713 -0.21593,0 -0.42489,-0.04179 -0.20896,-0.03483 -0.45275,-0.111446 -0.0906,-0.02786 -0.17413,-0.04876 -0.0836,-0.02786 -0.1811,-0.02786 -0.10448,0 -0.18806,0.02786 -0.0766,0.02786 -0.43186,0.19503 l -0.45274,-1.608996 0.27164,-0.09055 q 0.37613,0.605986 0.80102,0.968184 0.55026,0.466678 1.12839,0.466678 0.39702,0 0.7035,-0.250752 0.31344,-0.250753 0.31344,-0.640813 0,-0.376128 -0.33434,-0.605985 -0.18806,-0.132342 -0.66867,-0.278614 -0.66868,-0.215926 -0.94729,-0.341302 -0.5433,-0.243787 -0.80798,-0.550263 -0.33434,-0.383094 -0.33434,-0.940322 0,-0.647778 0.45275,-1.058733 0.45275,-0.410956 1.10749,-0.410956 0.202,0 0.37613,0.03483 0.17413,0.02786 0.39006,0.10448 0.12538,0.04179 0.16717,0.05572 0.0418,0.01393 0.12537,0.01393 0.12538,0 0.27862,-0.07662 0.15324,-0.08358 0.25772,-0.181099 z"
         style="font-weight:bold;font-family:Century;-inkscape-font-specification:'Century Bold';fill:#000000;fill-opacity:1;stroke:none"
         id="path6184" />
      <path
         d="m 170.94284,71.47018 q 0,-1.149282 0.66867,-1.922436 0.69653,-0.807981 1.83189,-0.807981 1.17018,0 1.85278,0.724396 0.68957,0.724397 0.68957,1.901541 0,1.114456 -0.66867,1.88761 -0.7244,0.835842 -1.88065,0.835842 -1.13535,0 -1.81796,-0.724396 -0.67563,-0.724397 -0.67563,-1.894576 z m 1.21197,-0.06269 q 0,1.253763 0.3413,1.859749 0.31344,0.550262 0.90549,0.550262 0.58509,0 0.91943,-0.410955 0.27165,-0.334337 0.37613,-0.940323 0.0766,-0.431851 0.0766,-1.051768 0,-1.274659 -0.3622,-1.873679 -0.32041,-0.529366 -0.92639,-0.529366 -0.62688,0 -0.96819,0.564193 -0.36219,0.59902 -0.36219,1.831887 z"
         style="font-weight:bold;font-family:Century;-inkscape-font-specification:'Century Bold';fill:#000000;fill-opacity:1;stroke:none"
         id="path6186" />
      <path
         d="m 180.64557,72.410503 v -2.326427 q 0,-0.501506 -0.11145,-0.68957 -0.15324,-0.257718 -0.63385,-0.29951 v -0.229857 h 1.83189 v 0.229857 q -0.45971,0.07662 -0.60599,0.306475 -0.11841,0.188065 -0.11841,0.682605 v 3.8797 h -0.63384 l -2.80007,-3.963285 v 2.674695 q 0,0.571159 0.1393,0.759223 0.13931,0.188064 0.67564,0.29951 v 0.229857 h -1.97119 v -0.229857 q 0.49454,-0.07662 0.64081,-0.264683 0.15324,-0.19503 0.15324,-0.68957 v -3.204061 q -0.30648,-0.383094 -0.79405,-0.480609 v -0.229857 h 1.7692 z"
         style="font-weight:bold;font-family:Century;-inkscape-font-specification:'Century Bold';fill:#000000;fill-opacity:1;stroke:none"
         id="path6188" />
    </g>
    <g
       aria-label="GIERALTOWSKI"
       transform="scale(0.68527541,1.4592673)"
       id="text4670"
       style="font-size:10.806px;line-height:1.75;fill:#000000;fill-opacity:1;stroke:none;stroke-width:0.678994">
      <path
         d="m 185.80586,62.294519 -0.3566,0.129672 q -0.79965,-1.058988 -1.31833,-1.480422 -0.62675,-0.518688 -1.30753,-0.518688 -0.88609,0 -1.448,0.832062 -0.66998,0.983346 -0.66998,2.896008 0,1.94508 0.56192,2.874396 0.51868,0.853674 1.46961,0.853674 0.82126,0 1.13463,-0.561912 0.23773,-0.421434 0.23773,-1.318332 0,-0.64836 -0.20531,-0.832062 -0.20531,-0.183702 -0.85367,-0.183702 v -0.421434 h 3.66323 v 0.421434 q -0.64836,0.07564 -0.82126,0.302568 -0.16209,0.21612 -0.16209,0.86448 v 1.599288 q -0.57271,0 -0.724,0.03242 -0.14048,0.02161 -0.76722,0.205314 -0.44305,0.140478 -0.85368,0.226926 -0.41063,0.08645 -0.78884,0.08645 -1.72896,0 -2.75553,-1.048182 -1.01576,-1.058988 -1.01576,-2.820366 0,-1.72896 1.06979,-3.036486 1.14544,-1.393974 2.84198,-1.393974 0.23773,0 0.41063,0.04322 0.1729,0.03242 0.38902,0.09725 0.21612,0.06484 0.39982,0.118866 0.1837,0.05403 0.30257,0.05403 0.1945,0 0.45385,-0.08645 0.25934,-0.09725 0.45385,-0.226926 z"
         style="font-weight:bold;font-family:Century;-inkscape-font-specification:'Century Bold';fill:#000000;fill-opacity:1;stroke:none"
         id="path6149" />
      <path
         d="m 188.11834,61.548905 q 0,-0.561912 -0.22693,-0.778032 -0.22693,-0.21612 -0.82126,-0.21612 v -0.356598 h 3.86855 v 0.356598 q -0.58352,0 -0.82125,0.21612 -0.22693,0.205314 -0.22693,0.778032 v 5.208492 q 0,0.561912 0.22693,0.778032 0.22692,0.21612 0.82125,0.21612 v 0.356598 h -3.86855 v -0.356598 q 0.58353,0 0.81045,-0.205314 0.23774,-0.21612 0.23774,-0.788838 z"
         style="font-weight:bold;font-family:Century;-inkscape-font-specification:'Century Bold';fill:#000000;fill-opacity:1;stroke:none"
         id="path6151" />
      <path
         d="m 191.44659,67.751549 q 0.58353,0 0.81045,-0.205314 0.23774,-0.21612 0.23774,-0.788838 v -5.208492 q 0,-0.561912 -0.22693,-0.778032 -0.22693,-0.21612 -0.82126,-0.21612 v -0.356598 h 6.51602 l 0.68078,2.020722 -0.33499,0.140478 q -0.58352,-0.75642 -1.35075,-1.221078 -0.85367,-0.518688 -1.72896,-0.518688 -0.66997,0 -0.84286,0.259344 -0.11887,0.172896 -0.11887,0.86448 v 2.10717 h 0.21612 q 0.85367,0 1.23188,-0.226926 0.42144,-0.259344 0.69159,-1.048182 h 0.42143 v 3.122934 h -0.42143 q -0.21612,-0.788838 -0.63756,-1.058988 -0.42143,-0.280956 -1.2643,-0.280956 h -0.23773 v 2.280066 q 0,0.561912 0.11887,0.75642 0.17289,0.291762 0.71319,0.291762 0.96174,0 1.88025,-0.497076 0.82125,-0.443046 1.50203,-1.24269 l 0.29176,0.151284 -0.81045,2.009916 h -6.51602 z"
         style="font-weight:bold;font-family:Century;-inkscape-font-specification:'Century Bold';fill:#000000;fill-opacity:1;stroke:none"
         id="path6153" />
      <path
         d="m 201.99326,63.828971 q 1.28591,0 1.8046,-0.410628 0.51869,-0.421434 0.51869,-1.318332 0,-0.788838 -0.44305,-1.13463 -0.44304,-0.345792 -1.33994,-0.345792 -0.49708,0 -0.62675,0.183702 -0.11887,0.183702 -0.11887,0.70239 v 2.32329 z m 3.39308,2.452962 q 0.41063,0.745614 0.64836,1.004958 0.43224,0.464658 1.04818,0.464658 v 0.356598 h -2.66908 q -0.0865,-0.140478 -0.23773,-0.443046 -0.15128,-0.302568 -0.22693,-0.464658 l -0.63755,-1.35075 q -0.44305,-0.950928 -0.83206,-1.275108 -0.28096,-0.237732 -0.69159,-0.237732 v 2.420544 q 0,0.561912 0.22693,0.778032 0.22693,0.21612 0.82126,0.21612 v 0.356598 h -3.86855 v -0.356598 q 0.58352,0 0.81045,-0.205314 0.23773,-0.21612 0.23773,-0.788838 v -5.208492 q 0,-0.561912 -0.22693,-0.778032 -0.22692,-0.21612 -0.82125,-0.21612 v -0.356598 h 4.64658 q 1.17785,0 1.88024,0.561912 0.70239,0.561912 0.70239,1.448004 0,0.821256 -0.64836,1.339944 -0.5511,0.443046 -1.4372,0.605136 0.21612,0.140478 0.39983,0.43224 0.0973,0.151284 0.29176,0.529494 z"
         style="font-weight:bold;font-family:Century;-inkscape-font-specification:'Century Bold';fill:#000000;fill-opacity:1;stroke:none"
         id="path6155" />
      <path
         d="m 213.35037,66.389993 q 0.23773,0.778032 0.37821,0.97254 0.28095,0.389016 0.94012,0.389016 v 0.356598 h -3.79291 v -0.356598 q 0.49708,0 0.66997,-0.10806 0.18371,-0.118866 0.18371,-0.37821 0,-0.16209 -0.0216,-0.27015 -0.0216,-0.10806 -0.10806,-0.356598 l -0.38901,-1.275108 h -2.75553 l -0.23773,0.680778 q -0.0865,0.237732 -0.15129,0.475464 -0.0648,0.237732 -0.0648,0.43224 0,0.389016 0.28095,0.59433 0.29176,0.205314 0.69159,0.205314 v 0.356598 h -2.8744 v -0.356598 q 0.68078,-0.194508 1.02657,-0.626748 0.23773,-0.291762 0.52949,-1.0806 l 2.10717,-5.61912 1.57768,-0.507882 z m -3.39309,-5.003178 -1.28591,3.468726 h 2.36651 z"
         style="font-weight:bold;font-family:Century;-inkscape-font-specification:'Century Bold';fill:#000000;fill-opacity:1;stroke:none"
         id="path6157" />
      <path
         d="m 214.36614,67.751549 q 0.58352,0 0.81045,-0.205314 0.23773,-0.21612 0.23773,-0.788838 v -5.208492 q 0,-0.561912 -0.22693,-0.778032 -0.22692,-0.21612 -0.82125,-0.21612 v -0.356598 h 3.86854 v 0.356598 q -0.58352,0 -0.82125,0.21612 -0.22693,0.205314 -0.22693,0.778032 v 5.208492 q 0,0.561912 0.0973,0.70239 0.15128,0.226926 0.71319,0.226926 0.92932,0 1.82622,-0.551106 0.7348,-0.453852 1.448,-1.285914 l 0.27015,0.10806 -0.66997,2.150394 h -6.50521 z"
         style="font-weight:bold;font-family:Century;-inkscape-font-specification:'Century Bold';fill:#000000;fill-opacity:1;stroke:none"
         id="path6159" />
      <path
         d="m 227.34414,60.198155 0.58352,2.1612 -0.39982,0.10806 q -0.46466,-0.724002 -1.05899,-1.221078 -0.75642,-0.626748 -1.45881,-0.626748 v 6.137808 q 0,0.561912 0.22693,0.778032 0.22692,0.21612 0.82125,0.21612 v 0.356598 h -3.86854 v -0.356598 q 0.58352,0 0.81045,-0.205314 0.23773,-0.21612 0.23773,-0.788838 v -6.137808 q -0.75642,0.08645 -1.4372,0.637554 -0.56191,0.453852 -1.05899,1.210272 l -0.39982,-0.10806 0.52949,-2.1612 z"
         style="font-weight:bold;font-family:Century;-inkscape-font-specification:'Century Bold';fill:#000000;fill-opacity:1;stroke:none"
         id="path6161" />
      <path
         d="m 227.84121,64.239599 q 0,-1.78299 1.03738,-2.982456 1.0806,-1.253496 2.84197,-1.253496 1.81541,0 2.8744,1.123824 1.06979,1.123824 1.06979,2.950038 0,1.72896 -1.03737,2.928426 -1.12383,1.29672 -2.91762,1.29672 -1.76138,0 -2.82037,-1.123824 -1.04818,-1.123824 -1.04818,-2.939232 z m 1.88024,-0.09725 q 0,1.94508 0.5295,2.885202 0.48627,0.853674 1.40478,0.853674 0.9077,0 1.42639,-0.637554 0.42143,-0.518688 0.58352,-1.45881 0.11887,-0.669972 0.11887,-1.631706 0,-1.977498 -0.56191,-2.906814 -0.49708,-0.821256 -1.4372,-0.821256 -0.97254,0 -1.50203,0.875286 -0.56192,0.929316 -0.56192,2.841978 z"
         style="font-weight:bold;font-family:Century;-inkscape-font-specification:'Century Bold';fill:#000000;fill-opacity:1;stroke:none"
         id="path6163" />
      <path
         d="m 239.01461,60.198155 v 0.356598 q -0.34579,0.03242 -0.44305,0.08645 -0.1945,0.10806 -0.1945,0.389016 0,0.140478 0.0648,0.389016 0.0648,0.248538 0.14048,0.475464 l 1.2535,3.879354 1.17785,-3.544368 -0.21612,-0.659166 -0.0864,-0.21612 q -0.15128,-0.43224 -0.31337,-0.59433 -0.21612,-0.205314 -0.61594,-0.205314 v -0.356598 h 3.39308 v 0.356598 q -0.30257,0 -0.49708,0.10806 -0.1837,0.09725 -0.1837,0.37821 0,0.10806 0.0432,0.280956 0.054,0.172896 0.0756,0.248538 l 1.39397,4.26837 1.31833,-3.954996 q 0.054,-0.16209 0.0864,-0.313374 0.0432,-0.151284 0.0432,-0.291762 0,-0.37821 -0.27015,-0.551106 -0.27015,-0.172896 -0.66998,-0.172896 v -0.356598 h 2.59344 v 0.356598 q -0.51868,0.10806 -0.69158,0.291762 -0.31337,0.334986 -0.70239,1.502034 l -1.93427,5.88927 h -0.74562 l -1.76138,-5.143656 -1.70734,5.143656 h -0.75642 l -2.13959,-6.667302 q -0.15129,-0.475464 -0.20532,-0.572718 -0.1945,-0.367404 -0.78883,-0.443046 v -0.356598 z"
         style="font-weight:bold;font-family:Century;-inkscape-font-specification:'Century Bold';fill:#000000;fill-opacity:1;stroke:none"
         id="path6165" />
      <path
         d="m 252.63017,62.262101 -0.41063,0.140478 q -0.46466,-0.75642 -1.13463,-1.307526 -0.82126,-0.669972 -1.56687,-0.669972 -0.58353,0 -0.97254,0.313374 -0.37821,0.302568 -0.37821,0.86448 0,0.572718 0.5511,0.91851 0.28096,0.172896 1.0698,0.421434 l 0.63755,0.205314 q 1.23189,0.399822 1.81541,0.886092 0.81045,0.669972 0.81045,1.761378 0,1.0806 -0.77803,1.793796 -0.77803,0.713196 -1.86944,0.713196 -0.33499,0 -0.65917,-0.06484 -0.32418,-0.05403 -0.70239,-0.172896 -0.14047,-0.04322 -0.27015,-0.07564 -0.12967,-0.04322 -0.28095,-0.04322 -0.16209,0 -0.29176,0.04322 -0.11887,0.04322 -0.66998,0.302568 l -0.70239,-2.496186 0.42144,-0.140478 q 0.58352,0.940122 1.24269,1.502034 0.85367,0.724002 1.75057,0.724002 0.61594,0 1.09141,-0.389016 0.48627,-0.389016 0.48627,-0.994152 0,-0.583524 -0.51869,-0.940122 -0.29176,-0.205314 -1.03738,-0.43224 -1.03737,-0.334986 -1.46961,-0.529494 -0.84287,-0.37821 -1.2535,-0.853674 -0.51869,-0.59433 -0.51869,-1.45881 0,-1.004958 0.70239,-1.642512 0.70239,-0.637554 1.71816,-0.637554 0.31337,0 0.58352,0.05403 0.27015,0.04322 0.60514,0.16209 0.1945,0.06484 0.25934,0.08645 0.0648,0.02161 0.19451,0.02161 0.19451,0 0.43224,-0.118866 0.23773,-0.129672 0.39982,-0.280956 z"
         style="font-weight:bold;font-family:Century;-inkscape-font-specification:'Century Bold';fill:#000000;fill-opacity:1;stroke:none"
         id="path6167" />
      <path
         d="m 258.43298,62.845625 2.22604,3.771294 q 0.34579,0.583524 0.57272,0.778032 0.30256,0.248538 0.92931,0.356598 v 0.356598 h -3.94419 v -0.356598 q 0.45385,0 0.60514,-0.09725 0.16209,-0.10806 0.16209,-0.291762 0,-0.07564 -0.0432,-0.172896 -0.0324,-0.09725 -0.16209,-0.345792 l -1.57767,-2.744724 -0.86448,0.896898 v 1.761378 q 0,0.561912 0.22692,0.778032 0.22693,0.21612 0.83207,0.21612 v 0.356598 h -3.87936 v -0.356598 q 0.58353,0 0.81045,-0.205314 0.23773,-0.21612 0.23773,-0.788838 v -5.208492 q 0,-0.561912 -0.22692,-0.778032 -0.22693,-0.21612 -0.82126,-0.21612 v -0.356598 h 3.86855 v 0.356598 q -0.58352,0 -0.82126,0.21612 -0.22692,0.205314 -0.22692,0.778032 v 2.7015 l 2.09636,-2.1612 q 0.42144,-0.421434 0.58353,-0.669972 0.16209,-0.259344 0.16209,-0.453852 0,-0.313374 -0.43224,-0.37821 -0.28096,-0.02161 -0.38902,-0.03242 v -0.356598 h 3.32825 v 0.356598 q -0.75642,0.140478 -1.18866,0.367404 -0.43224,0.226926 -1.00496,0.832062 z"
         style="font-weight:bold;font-family:Century;-inkscape-font-specification:'Century Bold';fill:#000000;fill-opacity:1;stroke:none"
         id="path6169" />
      <path
         d="m 262.76619,61.548905 q 0,-0.561912 -0.22692,-0.778032 -0.22693,-0.21612 -0.82126,-0.21612 v -0.356598 h 3.86855 v 0.356598 q -0.58353,0 -0.82126,0.21612 -0.22692,0.205314 -0.22692,0.778032 v 5.208492 q 0,0.561912 0.22692,0.778032 0.22693,0.21612 0.82126,0.21612 v 0.356598 h -3.86855 v -0.356598 q 0.58352,0 0.81045,-0.205314 0.23773,-0.21612 0.23773,-0.788838 z"
         style="font-weight:bold;font-family:Century;-inkscape-font-specification:'Century Bold';fill:#000000;fill-opacity:1;stroke:none"
         id="path6171" />
    </g>
    <g
       aria-label="MIDIMANIA"
       transform="matrix(1.3608752,0,0,1.5122123,-53.251674,-45.430175)"
       id="text4674"
       style="font-size:7.87557px;line-height:100;font-family:'Helvetica Compressed';-inkscape-font-specification:'Helvetica Compressed';letter-spacing:0.264583px;fill:#000000;fill-opacity:1;stroke:none;stroke-width:0.19689">
      <path
         d="m 130.22619,99.99536 h 0.0157 l 0.75606,4.78835 h 1.14983 l 0.75605,-4.78835 h 0.0158 v 4.78835 h 1.18134 v -5.607409 h -1.88226 l -0.55129,3.985039 h -0.0157 l -0.55129,-3.985039 h -1.92164 v 5.607409 h 1.04745 z"
         id="path6130"
         style="fill:#000000;fill-opacity:1;stroke:none" />
      <path
         d="m 135.98792,104.78371 v -5.607409 h -1.30735 v 5.607409 z"
         id="path6132"
         style="fill:#000000;fill-opacity:1;stroke:none" />
      <path
         d="m 136.5754,104.78371 h 1.34673 c 1.64599,0 1.96101,-0.63005 1.96101,-1.69325 v -2.0004 c 0,-1.677492 -0.49616,-1.913759 -1.96101,-1.913759 h -1.34673 z m 1.30735,-4.804101 c 0.66155,0 0.69305,0.165391 0.69305,0.913571 v 2.30754 c 0,0.53554 -0.0551,0.77968 -0.69305,0.77968 z"
         id="path6134"
         style="fill:#000000;fill-opacity:1;stroke:none" />
      <path
         d="m 141.77797,104.78371 v -5.607409 h -1.30734 v 5.607409 z"
         id="path6136"
         style="fill:#000000;fill-opacity:1;stroke:none" />
      <path
         d="m 143.40503,99.99536 h 0.0158 l 0.75605,4.78835 h 1.14983 l 0.75606,-4.78835 h 0.0157 v 4.78835 h 1.18133 v -5.607409 h -1.88226 l -0.55129,3.985039 h -0.0157 l -0.55129,-3.985039 h -1.92164 v 5.607409 h 1.04745 z"
         id="path6138"
         style="fill:#000000;fill-opacity:1;stroke:none" />
      <path
         d="m 149.2534,102.55492 0.22839,-2.49656 h 0.0157 l 0.22839,2.49656 z m -0.50404,-3.378619 -0.95295,5.607409 h 1.10258 l 0.21264,-1.37823 h 0.70881 l 0.14963,1.37823 h 1.29947 l -0.72455,-5.607409 z"
         id="path6140"
         style="fill:#000000;fill-opacity:1;stroke:none" />
      <path
         d="m 151.75464,104.78371 h 1.02383 v -4.68597 h 0.0157 l 0.96869,4.68597 h 1.6775 v -5.607409 h -1.02382 v 4.079549 h -0.0158 l -0.83481,-4.079549 h -1.81139 z"
         id="path6142"
         style="fill:#000000;fill-opacity:1;stroke:none" />
      <path
         d="m 157.28799,104.78371 v -5.607409 h -1.30735 v 5.607409 z"
         id="path6144"
         style="fill:#000000;fill-opacity:1;stroke:none" />
      <path
         d="m 159.24582,102.55492 0.22839,-2.49656 h 0.0157 l 0.22839,2.49656 z m -0.50404,-3.378619 -0.95294,5.607409 h 1.10258 l 0.21264,-1.37823 h 0.7088 l 0.14964,1.37823 h 1.29947 l -0.72456,-5.607409 z"
         id="path6146"
         style="fill:#000000;fill-opacity:1;stroke:none" />
    </g>
  </g>
</svg>
