<?xml version="1.0" encoding="UTF-8" standalone="no"?>
<!-- Created with Inkscape (http://www.inkscape.org/) -->

<svg
   width="144.04982mm"
   height="116.94583mm"
   viewBox="0 0 144.04982 116.94583"
   version="1.1"
   id="svg5"
   xml:space="preserve"
   inkscape:version="1.2 (dc2aedaf03, 2022-05-15)"
   sodipodi:docname="seele.svg"
   xmlns:inkscape="http://www.inkscape.org/namespaces/inkscape"
   xmlns:sodipodi="http://sodipodi.sourceforge.net/DTD/sodipodi-0.dtd"
   xmlns="http://www.w3.org/2000/svg"
   xmlns:svg="http://www.w3.org/2000/svg"><sodipodi:namedview
     id="namedview7"
     pagecolor="#ffffff"
     bordercolor="#666666"
     borderopacity="1.0"
     inkscape:showpageshadow="2"
     inkscape:pageopacity="0.0"
     inkscape:pagecheckerboard="0"
     inkscape:deskcolor="#d1d1d1"
     inkscape:document-units="mm"
     showgrid="false"
     inkscape:zoom="1.2623761"
     inkscape:cx="276.0667"
     inkscape:cy="209.12944"
     inkscape:window-width="2560"
     inkscape:window-height="1377"
     inkscape:window-x="1272"
     inkscape:window-y="-8"
     inkscape:window-maximized="1"
     inkscape:current-layer="layer1" /><defs
     id="defs2" /><g
     inkscape:label="F.SilkS"
     inkscape:groupmode="layer"
     id="layer1"
     transform="translate(-39.31332,-82.948719)"><path
       style="fill:#000000;stroke-width:0.264583"
       d="m 109.57585,198.38768 c -0.65049,-0.8288 -2.60229,-4.01372 -4.33732,-7.07761 -1.73504,-3.06389 -5.4781,-9.67836 -8.31792,-14.69883 -9.06012,-16.01723 -8.73582,-15.49015 -9.46903,-15.38958 -0.35505,0.0487 -1.71711,0.42939 -3.0268,0.84598 -6.11156,1.94397 -9.49917,2.46717 -16.007291,2.47223 -4.208812,0.003 -5.793084,-0.10745 -8.598959,-0.60101 -3.889543,-0.68417 -9.294686,-2.37338 -12.751657,-3.98513 -2.961865,-1.38092 -7.753553,-4.25192 -7.753553,-4.64563 0,-0.3935 4.85499,-3.27774 7.840081,-4.65761 9.102869,-4.20783 20.111795,-5.65911 29.995339,-3.9542 1.52797,0.26357 2.86168,0.40478 2.9638,0.3138 0.22243,-0.19815 -1.48324,-3.58937 -3.20262,-6.36749 l -1.23723,-1.99907 -5.942704,-0.03 c -8.402493,-0.0424 -13.5534,-0.98277 -20.627082,-3.76573 -2.820855,-1.10979 -7.689358,-3.7209 -9.120342,-4.89148 -0.695372,-0.56883 -0.743061,-0.69464 -0.413734,-1.09145 0.508795,-0.61306 4.845207,-3.14074 7.33366,-4.27476 4.554839,-2.07571 11.220096,-3.95338 15.843693,-4.46333 2.288371,-0.25239 2.395462,-0.36334 1.693154,-1.75414 -1.37869,-2.73029 -3.805183,-6.64363 -4.323722,-6.97312 -0.308916,-0.19629 -1.940296,-0.72106 -3.625287,-1.16615 -4.323191,-1.14198 -7.347022,-2.24332 -10.598356,-3.86014 -3.1554,-1.5691 -6.57865,-3.69983 -6.57865,-4.09473 0,-0.59618 6.028292,-4.058431 10.318751,-5.926411 1.69881,-0.73962 1.691008,-0.701 0.573572,-2.83958 -4.264949,-8.16238 -4.542322,-8.75084 -4.542322,-9.63674 v -0.92705 h 64.955209 64.95521 v 1.0135 c 0,0.55742 -0.27472,1.53968 -0.6105,2.18281 -0.33577,0.64312 -1.40734,2.66751 -2.38125,4.49863 -0.97391,1.83113 -1.77075,3.51076 -1.77075,3.73253 0,0.25437 0.90342,0.80163 2.4474,1.48255 2.93328,1.29363 7.10422,3.5511 8.84367,4.786521 l 1.26083,0.8955 -0.91814,0.77175 c -1.42808,1.2004 -9.35455,5.04912 -12.29522,5.96999 -1.4552,0.45569 -4.05202,1.20963 -5.77069,1.67541 l -3.12487,0.84687 -0.78201,1.35166 c -1.63107,2.81922 -3.53408,6.74903 -3.35496,6.92815 0.10257,0.10258 1.64811,0.40927 3.43452,0.68153 6.3599,0.9693 11.26137,2.45367 16.21212,4.90971 2.47043,1.22557 6.48277,3.74739 6.48277,4.07454 0,0.35832 -3.8565,2.67279 -7.01146,4.20793 -7.77475,3.78304 -14.61898,5.15683 -24.83311,4.98455 l -5.51853,-0.0931 -2.35282,4.36422 c -1.29406,2.40032 -2.35283,4.4693 -2.35283,4.59773 0,0.2518 0.79268,0.18187 5.68854,-0.50185 4.77888,-0.66739 13.46073,-0.42117 17.4625,0.49525 3.33182,0.763 6.69654,1.78746 8.99583,2.73898 4.00102,1.65574 9.92188,5.01526 9.92188,5.62972 0,0.36259 -4.58898,3.13004 -7.27604,4.38791 -6.56246,3.07203 -12.75024,4.55891 -19.9825,4.80165 -6.63079,0.22256 -11.25545,-0.43716 -18.02432,-2.5712 -1.84212,-0.58077 -3.65265,-1.05595 -4.0234,-1.05595 -0.55831,0 -0.84367,0.30675 -1.66141,1.78594 -0.54302,0.98226 -2.82809,5.06016 -5.07792,9.06198 -4.28596,7.62352 -10.70414,19.16719 -13.53374,24.34167 -1.67959,3.07144 -2.28757,3.96875 -2.68906,3.96875 -0.12084,0 -0.75193,-0.67811 -1.40242,-1.5069 z m 10.01018,-18.86307 c 8.1889,-14.58076 11.36746,-20.37299 11.24087,-20.48403 -0.055,-0.0483 -1.32544,-0.89183 -2.82316,-1.87459 -1.49772,-0.98276 -2.67923,-1.92094 -2.62558,-2.08485 0.20609,-0.62964 5.39689,-3.62332 9.18516,-5.29733 0.94589,-0.41799 1.86665,-0.87606 2.04614,-1.01795 0.69887,-0.55245 6.21147,-10.96723 6.10043,-11.52534 -0.0478,-0.24003 -1.41821,-0.82189 -3.626,-1.5395 -4.7851,-1.55535 -13.78098,-6.11028 -13.78098,-6.97782 0,-0.14828 0.80367,-0.78339 1.78593,-1.41135 7.0344,-4.49709 13.28927,-6.62424 22.67836,-7.71244 2.543,-0.29474 3.75997,-0.54582 3.9576,-0.81653 0.73119,-1.00155 3.87591,-7.27953 3.74914,-7.48464 -0.0787,-0.12736 -1.78322,-0.31352 -3.7878,-0.41369 -2.00458,-0.10017 -4.71625,-0.30658 -6.02594,-0.45868 -6.40716,-0.74412 -15.04623,-3.8607 -20.19127,-7.2841 l -2.25837,-1.50266 1.03836,-0.90466 c 1.41055,-1.228911 8.86931,-4.857061 12.28315,-5.974861 8.00786,-2.62201 16.3146,-3.15268 25.26771,-1.61418 l 3.70417,0.63652 0.44962,-0.58796 c 0.24728,-0.32337 1.29754,-2.22554 2.3339,-4.22705 1.35418,-2.61529 1.78596,-3.67658 1.53476,-3.77229 -0.19224,-0.0732 -13.80359,-0.10252 -30.24745,-0.0651 l -29.89791,0.0681 -0.0679,53.313551 c -0.0373,29.32245 0.002,53.49214 0.0865,53.71042 0.27385,0.70403 1.21179,-0.80527 7.89049,-12.69705 z m -10.5736,-53.38265 -0.17877,-41.076561 -29.40236,0.0186 c -16.171294,0.0102 -29.60655,0.0996 -29.856124,0.19866 -0.394,0.15634 -0.21975,0.62246 1.322917,3.53879 0.977178,1.84731 2.171291,3.91538 2.653586,4.59571 0.798252,1.12603 0.952498,1.22378 1.719792,1.08992 0.46359,-0.0809 2.271642,-0.40278 4.017892,-0.71536 7.043447,-1.26075 15.779807,-0.89292 22.046567,0.92824 3.09281,0.89879 7.9025,2.72462 10.11938,3.84147 1.72632,0.8697 5.2316,3.213421 5.37848,3.596181 0.16963,0.44206 -1.12897,1.40153 -4.03137,2.97854 -4.88517,2.65437 -10.01574,4.52543 -15.33076,5.59096 -2.25999,0.45307 -9.274694,1.03628 -12.703345,1.05617 l -0.87105,0.005 0.718309,1.25677 c 1.995689,3.49171 3.621702,6.15679 3.894495,6.38319 0.167532,0.13903 2.030939,0.44908 4.140911,0.68899 2.10996,0.23992 4.72927,0.61636 5.82068,0.83655 3.43314,0.69264 9.27891,2.73113 12.14786,4.2361 3.33632,1.75015 6.37297,3.6854 6.37297,4.0615 0,0.49163 -4.50918,3.2314 -7.65307,4.64998 -1.6844,0.76003 -4.6699,1.88344 -6.63443,2.49646 -1.96453,0.61303 -3.67654,1.21181 -3.80446,1.33064 -0.47377,0.44007 5.42714,10.51708 6.45029,11.0152 0.36381,0.17711 2.62599,1.27837 5.02709,2.44723 2.40109,1.16887 4.94168,2.55336 5.64574,3.07665 1.19654,0.88932 1.25232,0.98215 0.8544,1.42185 -0.23414,0.25872 -1.60997,1.20751 -3.05739,2.10841 -1.44743,0.9009 -2.70402,1.75503 -2.79243,1.89808 -0.23329,0.37748 0.98781,2.61953 13.17557,24.19136 1.89099,3.34698 3.69118,6.44261 4.00041,6.87917 l 0.56224,0.79375 0.21238,-12.17083 c 0.1168,-6.69396 0.13193,-30.65529 0.0336,-53.24741 z m -37.879178,35.36212 c 2.328358,-1.2008 3.627208,-3.28003 3.631648,-5.81363 0.005,-3.02475 -2.11048,-5.56876 -5.259733,-6.32425 -4.310962,-1.03419 -8.816044,3.81438 -7.393412,7.95712 0.471265,1.37234 1.42725,2.76836 2.408021,3.51643 1.740141,1.32727 4.743115,1.62892 6.613476,0.66433 z m 85.604278,-0.12368 c 1.52506,-0.63669 2.42703,-1.44561 3.1061,-2.78568 0.92267,-1.8208 1.07769,-3.31287 0.51896,-4.99505 -1.86716,-5.62147 -9.47633,-6.0655 -11.99833,-0.70015 -0.74452,1.58388 -0.7531,3.59089 -0.0218,5.10151 0.70686,1.46018 2.8704,3.40489 4.14557,3.72626 1.19935,0.30227 3.058,0.15054 4.24952,-0.34689 z m -96.077644,-0.44572 c -0.08051,-0.32742 -0.388156,-1.25016 -0.683666,-2.05052 -0.947761,-2.56694 -0.545927,-6.00801 0.990146,-8.47904 l 0.814682,-1.31055 h -0.633233 c -3.608166,0 -16.807411,4.9892 -16.807411,6.35305 0,0.38192 6.341745,3.36287 9.017783,4.23884 2.300514,0.75304 6.235147,1.76335 7.0865,1.81963 0.245177,0.0162 0.314453,-0.16774 0.215199,-0.57141 z m 17.999964,0.0593 c 1.27894,-0.2948 3.27785,-0.84497 4.44202,-1.22259 2.15337,-0.6985 8.04759,-3.40831 8.9784,-4.12774 0.48991,-0.37866 0.46171,-0.42742 -0.66146,-1.14334 -1.71193,-1.09122 -5.20652,-2.5509 -8.9784,-3.75026 -3.37305,-1.07254 -6.7872,-1.83565 -7.04761,-1.57524 -0.0796,0.0796 0.30849,1.06154 0.86234,2.18218 0.93651,1.89491 1.0061,2.19722 0.99421,4.31931 -0.0102,1.82939 -0.1475,2.60607 -0.69224,3.91728 -0.58048,1.39725 -0.66416,1.9364 -0.30056,1.9364 0.0429,0 1.12436,-0.2412 2.4033,-0.536 z m 68.07431,0.17063 c 0,-0.0554 -0.28239,-0.85911 -0.62754,-1.78594 -1.25258,-3.36356 -1.12536,-5.86961 0.44425,-8.7518 0.45241,-0.83072 0.73865,-1.59431 0.63609,-1.69687 -0.32992,-0.32991 -8.65267,1.98939 -11.5439,3.21694 -3.23291,1.37261 -5.39274,2.65244 -5.25008,3.11096 0.14218,0.45698 3.31522,2.09293 6.55159,3.37786 3.686,1.46344 9.78959,3.04012 9.78959,2.52885 z m 20.64649,-1.09242 c 3.35562,-0.96585 9.15318,-3.4415 10.4067,-4.44383 l 0.75839,-0.60641 -1.68444,-0.91209 c -2.09311,-1.13338 -3.81392,-1.87065 -7.3833,-3.16332 -2.71509,-0.98329 -8.09498,-2.30153 -8.3504,-2.04611 -0.07,0.07 0.32397,0.9919 0.87556,2.0486 0.97096,1.86015 1.00259,2.00643 0.99397,4.59747 -0.008,2.34308 -0.0984,2.8698 -0.72815,4.2317 l -0.71925,1.55552 1.34294,-0.17815 c 0.73862,-0.098 2.75821,-0.58551 4.48798,-1.08338 z m -96.787892,-24.565 c 2.594132,-1.1568 3.963062,-3.22322 3.963062,-5.9823 0,-5.87945 -7.218916,-8.45814 -11.234677,-4.01317 -3.159228,3.49688 -1.45694,8.94152 3.24255,10.37105 1.24174,0.37772 2.629988,0.24831 4.029065,-0.37558 z m 86.224452,-0.54174 c 1.35656,-0.56688 2.27635,-1.38966 3.07281,-2.74871 0.94184,-1.60713 1.0096,-4.36502 0.14763,-6.00864 -2.55429,-4.87056 -9.48198,-4.65182 -11.77437,0.37176 -1.45931,3.19796 0.42599,7.34783 3.92857,8.64744 1.16997,0.43411 3.24042,0.3169 4.62536,-0.26185 z m -96.072638,0.27046 c 0,-0.0552 -0.287131,-0.73979 -0.638067,-1.52136 -1.256585,-2.79853 -1.105947,-6.21501 0.392041,-8.8915 0.426356,-0.76178 0.775192,-1.44639 0.775192,-1.52136 0,-0.50144 -4.729137,0.44947 -8.47241,1.70358 -2.764501,0.92619 -7.710434,3.26318 -8.229335,3.88842 -0.294304,0.35461 -0.248143,0.49759 0.305355,0.94579 0.85585,0.69302 3.176304,1.85571 5.736937,2.87456 3.70141,1.47274 10.130287,3.07317 10.130287,2.52187 z m 18.804138,-0.56589 c 4.32518,-1.09637 11.26877,-3.95797 12.1342,-5.00075 0.50898,-0.61328 0.0949,-0.98026 -2.5665,-2.27476 -3.28312,-1.59689 -5.73033,-2.54037 -8.53851,-3.29189 -2.7238,-0.72894 -5.67203,-1.14441 -5.51292,-0.7769 0.0563,0.1301 0.41709,0.83385 0.80169,1.5639 1.45659,2.76488 1.71104,5.50331 0.75011,8.07282 -0.57433,1.53574 -0.56985,2.37379 0.0127,2.37379 0.1601,0 1.47376,-0.29979 2.91925,-0.66621 z m 66.62118,-1.39205 c -1.29663,-3.00565 -1.16559,-5.78087 0.41773,-8.84715 0.50475,-0.97751 0.82954,-1.8318 0.72175,-1.89842 -0.28321,-0.17503 -3.7596,0.52178 -6.41632,1.2861 -4.04332,1.16323 -10.56306,4.18048 -10.56306,4.88845 0,1.06758 9.32378,4.86354 13.89395,5.6566 1.16234,0.20171 2.19691,0.32099 2.29906,0.26508 0.10214,-0.0559 -0.0568,-0.6637 -0.35311,-1.35066 z m 21.19614,0.3407 c 4.86185,-1.40028 10.85355,-4.11438 10.85355,-4.91639 0,-0.66856 -5.172,-3.13536 -9.35297,-4.46093 -3.16675,-1.00401 -7.5472,-1.99106 -7.78423,-1.75403 -0.0951,0.0951 -0.009,0.43546 0.19159,0.75626 1.27739,2.04368 1.70184,3.29793 1.80905,5.34578 0.0896,1.71219 -3e-5,2.42003 -0.46924,3.70417 -1.02024,2.79218 -1.04048,2.61873 0.28435,2.43649 0.64143,-0.0882 2.65199,-0.58834 4.4679,-1.11135 z M 70.681161,108.51444 c 2.262309,-1.05345 4.091109,-3.7851 4.083739,-6.09982 -0.006,-1.96247 -2.21448,-4.962961 -4.288392,-5.826921 -2.826777,-1.17761 -6.593956,0.23112 -7.991102,2.98826 -0.967635,1.909531 -1.090917,3.341411 -0.437949,5.086631 0.667687,1.78455 1.829267,3.03152 3.591907,3.85596 1.705808,0.79786 3.322396,0.79654 5.041797,-0.004 z m -10.07441,-0.62873 c -1.160391,-2.7633 -1.275785,-3.22858 -1.295981,-5.22552 -0.01941,-1.91903 0.07024,-2.30859 0.960139,-4.172241 0.53985,-1.13057 0.956569,-2.1426 0.926042,-2.24896 -0.147113,-0.51256 -5.011763,0.59392 -9.315922,2.11893 -3.098738,1.09791 -7.672917,3.437021 -7.672917,3.923701 0,1.17978 12.527973,6.00956 15.704871,6.05454 0.745773,0.0106 0.857024,-0.0617 0.693768,-0.45045 z m 18.449969,-0.0493 c 1.20618,-0.28175 3.26462,-0.88902 4.57431,-1.34949 2.92527,-1.02849 8.08052,-3.45225 8.54125,-4.01571 0.29558,-0.36148 -0.002,-0.5899 -2.31383,-1.77753 -4.37557,-2.247571 -11.44814,-4.514551 -14.08748,-4.515481 l -0.98089,-2.6e-4 0.9195,1.54357 c 1.25587,2.10823 1.62344,3.994151 1.26433,6.486901 -0.15499,1.07578 -0.47671,2.34668 -0.71494,2.82423 -0.23823,0.47754 -0.43315,0.96903 -0.43315,1.0922 0,0.34516 0.83968,0.27022 3.2309,-0.28834 z m 77.59931,0.0182 c 1.59205,-0.72574 2.66142,-1.74795 3.41902,-3.26825 2.45854,-4.933661 -2.46663,-10.571751 -7.71281,-8.829251 -3.70603,1.23095 -5.65103,5.428361 -4.04895,8.737821 0.67459,1.39352 2.63422,3.22435 3.81929,3.56826 1.37286,0.39842 3.39661,0.3051 4.52345,-0.20858 z m 11.03371,-1.47447 c 5.08587,-1.54582 10.71534,-4.22183 10.46449,-4.97438 -0.30619,-0.91857 -7.98203,-4.161461 -12.61604,-5.330031 -2.49449,-0.62904 -4.51653,-0.88353 -4.51653,-0.56845 0,0.0678 0.44072,0.92497 0.97937,1.90494 0.86892,1.5808 0.99164,2.03832 1.08814,4.056661 0.0951,1.98809 0.0216,2.49277 -0.5825,4.0028 -0.38019,0.95034 -0.69126,1.82424 -0.69126,1.942 0,0.38874 2.8374,-0.11048 5.87433,-1.03354 z m -21.36144,0.44719 c -0.10884,-0.25467 -0.43932,-1.46669 -0.73441,-2.6934 -0.63071,-2.62193 -0.45448,-4.00595 0.87063,-6.837651 0.43934,-0.93886 0.7988,-1.76851 0.7988,-1.84368 0,-0.22161 -2.61583,0.1842 -4.86429,0.75463 -3.70992,0.94119 -11.73911,4.249811 -12.22633,5.038151 -0.27471,0.44449 0.41901,0.96404 2.88708,2.16227 4.27808,2.07698 9.77074,3.81749 12.18133,3.86002 1.1271,0.0199 1.26075,-0.0342 1.08719,-0.44034 z m 1.39278,84.47228 c -3.32676,-0.54581 -7.90423,-1.6686 -10.51192,-2.57844 -2.67182,-0.9322 -10.07499,-4.66554 -11.34649,-5.72189 l -0.89544,-0.74394 1.82148,-1.20452 c 4.03491,-2.66823 9.80692,-5.18367 14.97179,-6.52471 4.67626,-1.21417 6.87247,-1.41874 13.77045,-1.28268 6.95898,0.13726 8.9621,0.46006 14.75113,2.37714 5.28672,1.75072 13.30981,6.03881 12.81046,6.84677 -0.55083,0.89126 -6.64286,4.22886 -10.55648,5.78352 -2.59738,1.03179 -7.39608,2.28623 -10.72065,2.80251 -3.73697,0.58032 -11.2573,0.71171 -14.09433,0.24624 z m 8.93495,-2.64331 c 3.00283,-1.22288 4.70973,-4.81413 3.72258,-7.83216 -0.63082,-1.92863 -1.31214,-2.72975 -3.1644,-3.72082 -2.66009,-1.42328 -5.41679,-1.01677 -7.54638,1.11282 -2.27055,2.27056 -2.49739,6.10253 -0.50079,8.45998 1.86971,2.20764 4.93818,3.01898 7.48899,1.98018 z m -10.08781,-0.34901 c 0.0714,-0.11558 -0.094,-0.71021 -0.36765,-1.3214 -1.3408,-2.99479 -1.23549,-5.93655 0.32144,-8.97898 0.46355,-0.90584 0.76472,-1.72508 0.66927,-1.82055 -0.28814,-0.28813 -6.50187,1.20045 -9.18837,2.2012 -3.38668,1.26157 -7.67292,3.43423 -7.67292,3.88933 0,1.07063 8.68117,4.66111 14.14676,5.85103 2.0024,0.43594 1.9364,0.43028 2.09147,0.17937 z m 17.36386,-0.18875 c 4.35937,-0.72022 14.28547,-4.80622 14.28702,-5.88114 8e-4,-0.58151 -6.14743,-3.38064 -10.25761,-4.67 -2.32208,-0.72843 -6.6031,-1.64571 -6.79325,-1.45557 -0.0624,0.0624 0.35538,1.04618 0.92834,2.18624 0.96179,1.91375 1.04108,2.23824 1.03311,4.22788 -0.006,1.48433 -0.17455,2.60793 -0.54171,3.61024 -0.88635,2.41962 -0.87912,2.37106 -0.33786,2.27042 0.27023,-0.0503 1.02711,-0.17988 1.68196,-0.28807 z"
       id="path1166" /></g></svg>
