%TF.GenerationSoftware,KiCad,Pcbnew,(6.0.4)*%
%TF.CreationDate,2022-06-07T12:50:28-04:00*%
%TF.ProjectId,midimania,6d696469-6d61-46e6-9961-2e6b69636164,rev?*%
%TF.SameCoordinates,Original*%
%TF.FileFunction,Soldermask,Top*%
%TF.FilePolarity,Negative*%
%FSLAX46Y46*%
G04 Gerber Fmt 4.6, Leading zero omitted, Abs format (unit mm)*
G04 Created by KiCad (PCBNEW (6.0.4)) date 2022-06-07 12:50:28*
%MOMM*%
%LPD*%
G01*
G04 APERTURE LIST*
%ADD10R,1.500000X1.500000*%
%ADD11C,1.600000*%
%ADD12C,1.800000*%
%ADD13R,1.600000X1.600000*%
%ADD14C,1.900000*%
G04 APERTURE END LIST*
D10*
%TO.C,J9*%
X199761300Y-121000000D03*
%TD*%
D11*
%TO.C,RV6*%
X132400000Y-73243000D03*
X128400000Y-73243000D03*
X132400000Y-116743000D03*
%TD*%
D10*
%TO.C,J8*%
X199761285Y-118693000D03*
%TD*%
D12*
%TO.C,RV4*%
X187900000Y-132493000D03*
X192900000Y-132493000D03*
X197900000Y-132493000D03*
%TD*%
D11*
%TO.C,RV5*%
X107400000Y-73243000D03*
X103400000Y-73243000D03*
X107400000Y-116743000D03*
%TD*%
D10*
%TO.C,J11*%
X199761285Y-125593000D03*
%TD*%
%TO.C,J7*%
X199761285Y-116393000D03*
%TD*%
D11*
%TO.C,RV8*%
X182400000Y-73243000D03*
X178400000Y-73243000D03*
X182400000Y-116743000D03*
%TD*%
D10*
%TO.C,J10*%
X199761285Y-123293000D03*
%TD*%
D12*
%TO.C,RV2*%
X137900000Y-132493000D03*
X142900000Y-132493000D03*
X147900000Y-132493000D03*
%TD*%
D10*
%TO.C,J3*%
X199761285Y-99743000D03*
%TD*%
%TO.C,J12*%
X199761285Y-127893000D03*
%TD*%
%TO.C,J2*%
X199761285Y-97443000D03*
%TD*%
%TO.C,J5*%
X199761285Y-104343000D03*
%TD*%
D13*
%TO.C,U1*%
X102490000Y-110620000D03*
D11*
X105030000Y-110620000D03*
X107570000Y-110620000D03*
X110110000Y-110620000D03*
X112650000Y-110620000D03*
X115190000Y-110620000D03*
X117730000Y-110620000D03*
X120270000Y-110620000D03*
X122810000Y-110620000D03*
X125350000Y-110620000D03*
X127890000Y-110620000D03*
X130430000Y-110620000D03*
X132970000Y-110620000D03*
X135510000Y-110620000D03*
X135510000Y-108080000D03*
X135510000Y-105540000D03*
X135510000Y-103000000D03*
X135510000Y-100460000D03*
X135510000Y-97920000D03*
X135510000Y-95380000D03*
X132970000Y-95380000D03*
X130430000Y-95380000D03*
X127890000Y-95380000D03*
X125350000Y-95380000D03*
X122810000Y-95380000D03*
X120270000Y-95380000D03*
X117730000Y-95380000D03*
X115190000Y-95380000D03*
X112650000Y-95380000D03*
X110110000Y-95380000D03*
X107570000Y-95380000D03*
X105030000Y-95380000D03*
X102490000Y-95380000D03*
X105030000Y-97920000D03*
X110110000Y-97920000D03*
X112650000Y-97920000D03*
X115190000Y-97920000D03*
D14*
X112650000Y-103000000D03*
X108840000Y-103000000D03*
%TD*%
D10*
%TO.C,J4*%
X199761285Y-102043000D03*
%TD*%
%TO.C,J1*%
X199761285Y-75893000D03*
%TD*%
D12*
%TO.C,RV3*%
X162900000Y-132493000D03*
X167900000Y-132493000D03*
X172900000Y-132493000D03*
%TD*%
D11*
%TO.C,RV7*%
X157400000Y-73243000D03*
X153400000Y-73243000D03*
X157400000Y-116743000D03*
%TD*%
D12*
%TO.C,RV1*%
X112900000Y-132493000D03*
X117900000Y-132493000D03*
X122900000Y-132493000D03*
%TD*%
D10*
%TO.C,J6*%
X199761285Y-114093000D03*
%TD*%
M02*
