%TF.GenerationSoftware,KiCad,Pcbnew,(6.0.4)*%
%TF.CreationDate,2022-06-07T12:50:28-04:00*%
%TF.ProjectId,midimania,6d696469-6d61-46e6-9961-2e6b69636164,rev?*%
%TF.SameCoordinates,Original*%
%TF.FileFunction,Copper,L2,Bot*%
%TF.FilePolarity,Positive*%
%FSLAX46Y46*%
G04 Gerber Fmt 4.6, Leading zero omitted, Abs format (unit mm)*
G04 Created by KiCad (PCBNEW (6.0.4)) date 2022-06-07 12:50:28*
%MOMM*%
%LPD*%
G01*
G04 APERTURE LIST*
%TA.AperFunction,ComponentPad*%
%ADD10C,1.600000*%
%TD*%
%TA.AperFunction,ComponentPad*%
%ADD11C,1.800000*%
%TD*%
%TA.AperFunction,ComponentPad*%
%ADD12R,1.600000X1.600000*%
%TD*%
%TA.AperFunction,ComponentPad*%
%ADD13C,1.900000*%
%TD*%
%TA.AperFunction,ViaPad*%
%ADD14C,0.800000*%
%TD*%
%TA.AperFunction,Conductor*%
%ADD15C,0.250000*%
%TD*%
G04 APERTURE END LIST*
D10*
%TO.P,RV6,1,1*%
%TO.N,/3v3*%
X132400000Y-73243000D03*
%TO.P,RV6,2,2*%
%TO.N,/l2*%
X128400000Y-73243000D03*
%TO.P,RV6,3,3*%
%TO.N,/agnd*%
X132400000Y-116743000D03*
%TD*%
D11*
%TO.P,RV4,1,1*%
%TO.N,/3v3*%
X187900000Y-132493000D03*
%TO.P,RV4,2,2*%
%TO.N,/p4*%
X192900000Y-132493000D03*
%TO.P,RV4,3,3*%
%TO.N,/agnd*%
X197900000Y-132493000D03*
%TD*%
D10*
%TO.P,RV5,1,1*%
%TO.N,/3v3*%
X107400000Y-73243000D03*
%TO.P,RV5,2,2*%
%TO.N,/l1*%
X103400000Y-73243000D03*
%TO.P,RV5,3,3*%
%TO.N,/agnd*%
X107400000Y-116743000D03*
%TD*%
%TO.P,RV8,1,1*%
%TO.N,/3v3*%
X182400000Y-73243000D03*
%TO.P,RV8,2,2*%
%TO.N,/l4*%
X178400000Y-73243000D03*
%TO.P,RV8,3,3*%
%TO.N,/agnd*%
X182400000Y-116743000D03*
%TD*%
D11*
%TO.P,RV2,1,1*%
%TO.N,/3v3*%
X137900000Y-132493000D03*
%TO.P,RV2,2,2*%
%TO.N,/p2*%
X142900000Y-132493000D03*
%TO.P,RV2,3,3*%
%TO.N,/agnd*%
X147900000Y-132493000D03*
%TD*%
D12*
%TO.P,U1,1,GND*%
%TO.N,GND*%
X102490000Y-110620000D03*
D10*
%TO.P,U1,2,0_RX1_Touch*%
%TO.N,/b8*%
X105030000Y-110620000D03*
%TO.P,U1,3,1_TX1_Touch*%
%TO.N,/b7*%
X107570000Y-110620000D03*
%TO.P,U1,4,2*%
%TO.N,/b6*%
X110110000Y-110620000D03*
%TO.P,U1,5,3_TX_PWM*%
%TO.N,/b5*%
X112650000Y-110620000D03*
%TO.P,U1,6,4_RX_PWM*%
%TO.N,/b4*%
X115190000Y-110620000D03*
%TO.P,U1,7,5_TX1_PWM*%
%TO.N,/b3*%
X117730000Y-110620000D03*
%TO.P,U1,8,6_PWM*%
%TO.N,/b2*%
X120270000Y-110620000D03*
%TO.P,U1,9,7_RX3_DOUT*%
%TO.N,/b1*%
X122810000Y-110620000D03*
%TO.P,U1,10,8_TX3_DIN*%
%TO.N,unconnected-(U1-Pad10)*%
X125350000Y-110620000D03*
%TO.P,U1,11,9_RX2_CS_PWM*%
%TO.N,unconnected-(U1-Pad11)*%
X127890000Y-110620000D03*
%TO.P,U1,12,10_TX2_CS_PWM*%
%TO.N,unconnected-(U1-Pad12)*%
X130430000Y-110620000D03*
%TO.P,U1,13,11_DOUT*%
%TO.N,unconnected-(U1-Pad13)*%
X132970000Y-110620000D03*
%TO.P,U1,14,12_DIN*%
%TO.N,unconnected-(U1-Pad14)*%
X135510000Y-110620000D03*
%TO.P,U1,15,VBat*%
%TO.N,unconnected-(U1-Pad15)*%
X135510000Y-108080000D03*
%TO.P,U1,16,3.3V*%
%TO.N,unconnected-(U1-Pad16)*%
X135510000Y-105540000D03*
%TO.P,U1,17,GND*%
%TO.N,unconnected-(U1-Pad17)*%
X135510000Y-103000000D03*
%TO.P,U1,18,Program*%
%TO.N,unconnected-(U1-Pad18)*%
X135510000Y-100460000D03*
%TO.P,U1,19,A14/DAC*%
%TO.N,unconnected-(U1-Pad19)*%
X135510000Y-97920000D03*
%TO.P,U1,20,13_LED_SCK*%
%TO.N,unconnected-(U1-Pad20)*%
X135510000Y-95380000D03*
%TO.P,U1,21,14_A0_SCK*%
%TO.N,/p1*%
X132970000Y-95380000D03*
%TO.P,U1,22,15_A1_CS_Touch*%
%TO.N,/p2*%
X130430000Y-95380000D03*
%TO.P,U1,23,16_A2_SCL0_Touch*%
%TO.N,/p3*%
X127890000Y-95380000D03*
%TO.P,U1,24,17_A3_SDA0_Touch*%
%TO.N,/p4*%
X125350000Y-95380000D03*
%TO.P,U1,25,18_A4_SDA0_Touch*%
%TO.N,/l4*%
X122810000Y-95380000D03*
%TO.P,U1,26,19_A5_SCL0_Touch*%
%TO.N,/l3*%
X120270000Y-95380000D03*
%TO.P,U1,27,20_A6_CS_PWM*%
%TO.N,/l2*%
X117730000Y-95380000D03*
%TO.P,U1,28,21_A7_RX1_CS_PWM*%
%TO.N,/l1*%
X115190000Y-95380000D03*
%TO.P,U1,29,22_A8_Touch_PWM*%
%TO.N,unconnected-(U1-Pad29)*%
X112650000Y-95380000D03*
%TO.P,U1,30,23_A9_Touch_PWM*%
%TO.N,unconnected-(U1-Pad30)*%
X110110000Y-95380000D03*
%TO.P,U1,31,3.3V*%
%TO.N,/3v3*%
X107570000Y-95380000D03*
%TO.P,U1,32,AGND*%
%TO.N,/agnd*%
X105030000Y-95380000D03*
%TO.P,U1,33,Vin*%
%TO.N,/5v*%
X102490000Y-95380000D03*
%TO.P,U1,34,VUSB*%
%TO.N,unconnected-(U1-Pad34)*%
X105030000Y-97920000D03*
%TO.P,U1,35,AREF*%
%TO.N,unconnected-(U1-Pad35)*%
X110110000Y-97920000D03*
%TO.P,U1,36,A10*%
%TO.N,unconnected-(U1-Pad36)*%
X112650000Y-97920000D03*
%TO.P,U1,37,A11*%
%TO.N,unconnected-(U1-Pad37)*%
X115190000Y-97920000D03*
D13*
%TO.P,U1,38,Reset*%
%TO.N,unconnected-(U1-Pad38)*%
X112650000Y-103000000D03*
X108840000Y-103000000D03*
%TD*%
D11*
%TO.P,RV3,1,1*%
%TO.N,/3v3*%
X162900000Y-132493000D03*
%TO.P,RV3,2,2*%
%TO.N,/p3*%
X167900000Y-132493000D03*
%TO.P,RV3,3,3*%
%TO.N,/agnd*%
X172900000Y-132493000D03*
%TD*%
D10*
%TO.P,RV7,1,1*%
%TO.N,/3v3*%
X157400000Y-73243000D03*
%TO.P,RV7,2,2*%
%TO.N,/l3*%
X153400000Y-73243000D03*
%TO.P,RV7,3,3*%
%TO.N,/agnd*%
X157400000Y-116743000D03*
%TD*%
D11*
%TO.P,RV1,1,1*%
%TO.N,/3v3*%
X112900000Y-132493000D03*
%TO.P,RV1,2,2*%
%TO.N,/p1*%
X117900000Y-132493000D03*
%TO.P,RV1,3,3*%
%TO.N,/agnd*%
X122900000Y-132493000D03*
%TD*%
D14*
%TO.N,GND*%
X197700000Y-75900000D03*
X197700000Y-116400000D03*
%TO.N,/5v*%
X193900000Y-114100000D03*
X130000000Y-91000000D03*
X193900000Y-126800000D03*
X110000000Y-93000000D03*
%TO.N,/b8*%
X111000000Y-117000000D03*
%TO.N,/agnd*%
X167200000Y-114500000D03*
X134000000Y-128000000D03*
X147900000Y-128000000D03*
X130000000Y-99000000D03*
X140000000Y-101000000D03*
%TD*%
D15*
%TO.N,GND*%
X199200000Y-132924721D02*
X199200000Y-130400000D01*
X117539562Y-134500000D02*
X197624721Y-134500000D01*
X199200000Y-130400000D02*
X198300000Y-129500000D01*
X197624721Y-134500000D02*
X199200000Y-132924721D01*
X198300000Y-129500000D02*
X197700000Y-128900000D01*
X197700000Y-116400000D02*
X197700000Y-75900000D01*
X197700000Y-128900000D02*
X197700000Y-116400000D01*
X102490000Y-110620000D02*
X102490000Y-119450438D01*
X102490000Y-119450438D02*
X117539562Y-134500000D01*
%TO.N,/5v*%
X193900000Y-126800000D02*
X193900000Y-114100000D01*
X193900000Y-114100000D02*
X170800000Y-91000000D01*
X104870000Y-93000000D02*
X102490000Y-95380000D01*
X170800000Y-91000000D02*
X130000000Y-91000000D01*
X110000000Y-93000000D02*
X104870000Y-93000000D01*
%TO.N,/b8*%
X111000000Y-117000000D02*
X111000000Y-116590000D01*
X111000000Y-116590000D02*
X105030000Y-110620000D01*
%TO.N,/p1*%
X135044211Y-111744511D02*
X135975789Y-111744511D01*
X135975789Y-111744511D02*
X136634511Y-111085789D01*
X117900000Y-132493000D02*
X117900000Y-128888722D01*
X136634511Y-111085789D02*
X136634511Y-94914211D01*
X117900000Y-128888722D02*
X135044211Y-111744511D01*
X134094511Y-94255489D02*
X132970000Y-95380000D01*
X135975789Y-94255489D02*
X134094511Y-94255489D01*
X136634511Y-94914211D02*
X135975789Y-94255489D01*
%TO.N,/agnd*%
X167200000Y-114500000D02*
X172900000Y-120200000D01*
X105030000Y-95380000D02*
X108694511Y-99044511D01*
X172900000Y-120200000D02*
X172900000Y-132493000D01*
X134000000Y-128000000D02*
X132400000Y-126400000D01*
X129955489Y-99044511D02*
X130000000Y-99000000D01*
X140000000Y-109143000D02*
X132400000Y-116743000D01*
X147900000Y-132493000D02*
X147900000Y-128000000D01*
X182400000Y-116993000D02*
X182400000Y-116743000D01*
X197900000Y-132243000D02*
X197900000Y-132493000D01*
X132400000Y-126400000D02*
X132400000Y-116743000D01*
X132400000Y-116743000D02*
X132400000Y-122993000D01*
X140000000Y-101000000D02*
X140000000Y-109143000D01*
X182400000Y-116743000D02*
X197900000Y-132243000D01*
X108694511Y-99044511D02*
X129955489Y-99044511D01*
X147900000Y-132493000D02*
X147900000Y-126243000D01*
X132400000Y-122993000D02*
X122900000Y-132493000D01*
X147900000Y-126243000D02*
X157400000Y-116743000D01*
%TO.N,/p2*%
X132004031Y-93805969D02*
X130430000Y-95380000D01*
X142900000Y-132493000D02*
X142900000Y-100543983D01*
X142900000Y-100543983D02*
X136161986Y-93805969D01*
X136161986Y-93805969D02*
X132004031Y-93805969D01*
%TO.N,/p3*%
X129913551Y-93356449D02*
X127890000Y-95380000D01*
X167900000Y-132493000D02*
X167900000Y-124908266D01*
X136348183Y-93356449D02*
X129913551Y-93356449D01*
X167900000Y-124908266D02*
X136348183Y-93356449D01*
%TO.N,/p4*%
X153313929Y-92906929D02*
X127823071Y-92906929D01*
X192900000Y-132493000D02*
X153313929Y-92906929D01*
X127823071Y-92906929D02*
X125350000Y-95380000D01*
%TO.N,/l1*%
X103400000Y-83590000D02*
X115190000Y-95380000D01*
X103400000Y-73243000D02*
X103400000Y-83590000D01*
%TO.N,/l2*%
X128400000Y-73243000D02*
X128400000Y-84710000D01*
X128400000Y-84710000D02*
X117730000Y-95380000D01*
%TO.N,/l3*%
X153400000Y-73243000D02*
X142407000Y-73243000D01*
X142407000Y-73243000D02*
X120270000Y-95380000D01*
%TO.N,/l4*%
X143822489Y-74367511D02*
X122810000Y-95380000D01*
X177275489Y-74367511D02*
X143822489Y-74367511D01*
X178400000Y-73243000D02*
X177275489Y-74367511D01*
%TD*%
M02*
