%TF.GenerationSoftware,KiCad,Pcbnew,(6.0.4)*%
%TF.CreationDate,2022-06-13T21:37:06-04:00*%
%TF.ProjectId,midimania,6d696469-6d61-46e6-9961-2e6b69636164,rev?*%
%TF.SameCoordinates,Original*%
%TF.FileFunction,Copper,L2,Bot*%
%TF.FilePolarity,Positive*%
%FSLAX46Y46*%
G04 Gerber Fmt 4.6, Leading zero omitted, Abs format (unit mm)*
G04 Created by KiCad (PCBNEW (6.0.4)) date 2022-06-13 21:37:06*
%MOMM*%
%LPD*%
G01*
G04 APERTURE LIST*
%TA.AperFunction,ComponentPad*%
%ADD10C,1.600000*%
%TD*%
%TA.AperFunction,ComponentPad*%
%ADD11C,1.800000*%
%TD*%
%TA.AperFunction,ComponentPad*%
%ADD12R,1.600000X1.600000*%
%TD*%
%TA.AperFunction,ComponentPad*%
%ADD13C,1.900000*%
%TD*%
%TA.AperFunction,ViaPad*%
%ADD14C,0.800000*%
%TD*%
%TA.AperFunction,Conductor*%
%ADD15C,0.250000*%
%TD*%
G04 APERTURE END LIST*
D10*
%TO.P,RV6,1,1*%
%TO.N,/3v3*%
X132400000Y-73243000D03*
%TO.P,RV6,2,2*%
%TO.N,/l2*%
X128400000Y-73243000D03*
%TO.P,RV6,3,3*%
%TO.N,/agnd*%
X132400000Y-116743000D03*
%TD*%
D11*
%TO.P,RV4,1,1*%
%TO.N,/3v3*%
X187900000Y-132493000D03*
%TO.P,RV4,2,2*%
%TO.N,/p4*%
X192900000Y-132493000D03*
%TO.P,RV4,3,3*%
%TO.N,/agnd*%
X197900000Y-132493000D03*
%TD*%
D10*
%TO.P,RV5,1,1*%
%TO.N,/3v3*%
X107400000Y-73243000D03*
%TO.P,RV5,2,2*%
%TO.N,/l1*%
X103400000Y-73243000D03*
%TO.P,RV5,3,3*%
%TO.N,/agnd*%
X107400000Y-116743000D03*
%TD*%
%TO.P,RV8,1,1*%
%TO.N,/3v3*%
X182400000Y-73243000D03*
%TO.P,RV8,2,2*%
%TO.N,/l4*%
X178400000Y-73243000D03*
%TO.P,RV8,3,3*%
%TO.N,/agnd*%
X182400000Y-116743000D03*
%TD*%
D11*
%TO.P,RV2,1,1*%
%TO.N,/3v3*%
X137900000Y-132493000D03*
%TO.P,RV2,2,2*%
%TO.N,/p2*%
X142900000Y-132493000D03*
%TO.P,RV2,3,3*%
%TO.N,/agnd*%
X147900000Y-132493000D03*
%TD*%
D12*
%TO.P,U1,1,GND*%
%TO.N,GND*%
X120400000Y-131990000D03*
D10*
%TO.P,U1,2,0_RX1_Touch*%
%TO.N,/b8*%
X120400000Y-129450000D03*
%TO.P,U1,3,1_TX1_Touch*%
%TO.N,/b7*%
X120400000Y-126910000D03*
%TO.P,U1,4,2*%
%TO.N,/b6*%
X120400000Y-124370000D03*
%TO.P,U1,5,3_TX_PWM*%
%TO.N,/b5*%
X120400000Y-121830000D03*
%TO.P,U1,6,4_RX_PWM*%
%TO.N,/b4*%
X120400000Y-119290000D03*
%TO.P,U1,7,5_TX1_PWM*%
%TO.N,/b3*%
X120400000Y-116750000D03*
%TO.P,U1,8,6_PWM*%
%TO.N,/b2*%
X120400000Y-114210000D03*
%TO.P,U1,9,7_RX3_DOUT*%
%TO.N,/b1*%
X120400000Y-111670000D03*
%TO.P,U1,10,8_TX3_DIN*%
%TO.N,unconnected-(U1-Pad10)*%
X120400000Y-109130000D03*
%TO.P,U1,11,9_RX2_CS_PWM*%
%TO.N,unconnected-(U1-Pad11)*%
X120400000Y-106590000D03*
%TO.P,U1,12,10_TX2_CS_PWM*%
%TO.N,unconnected-(U1-Pad12)*%
X120400000Y-104050000D03*
%TO.P,U1,13,11_DOUT*%
%TO.N,unconnected-(U1-Pad13)*%
X120400000Y-101510000D03*
%TO.P,U1,14,12_DIN*%
%TO.N,unconnected-(U1-Pad14)*%
X120400000Y-98970000D03*
%TO.P,U1,15,VBat*%
%TO.N,unconnected-(U1-Pad15)*%
X117860000Y-98970000D03*
%TO.P,U1,16,3.3V*%
%TO.N,unconnected-(U1-Pad16)*%
X115320000Y-98970000D03*
%TO.P,U1,17,GND*%
%TO.N,unconnected-(U1-Pad17)*%
X112780000Y-98970000D03*
%TO.P,U1,18,Program*%
%TO.N,unconnected-(U1-Pad18)*%
X110240000Y-98970000D03*
%TO.P,U1,19,A14/DAC*%
%TO.N,unconnected-(U1-Pad19)*%
X107700000Y-98970000D03*
%TO.P,U1,20,13_LED_SCK*%
%TO.N,unconnected-(U1-Pad20)*%
X105160000Y-98970000D03*
%TO.P,U1,21,14_A0_SCK*%
%TO.N,/l1*%
X105160000Y-101510000D03*
%TO.P,U1,22,15_A1_CS_Touch*%
%TO.N,/l2*%
X105160000Y-104050000D03*
%TO.P,U1,23,16_A2_SCL0_Touch*%
%TO.N,/l3*%
X105160000Y-106590000D03*
%TO.P,U1,24,17_A3_SDA0_Touch*%
%TO.N,/l4*%
X105160000Y-109130000D03*
%TO.P,U1,25,18_A4_SDA0_Touch*%
%TO.N,/p4*%
X105160000Y-111670000D03*
%TO.P,U1,26,19_A5_SCL0_Touch*%
%TO.N,/p3*%
X105160000Y-114210000D03*
%TO.P,U1,27,20_A6_CS_PWM*%
%TO.N,/p2*%
X105160000Y-116750000D03*
%TO.P,U1,28,21_A7_RX1_CS_PWM*%
%TO.N,/p1*%
X105160000Y-119290000D03*
%TO.P,U1,29,22_A8_Touch_PWM*%
%TO.N,unconnected-(U1-Pad29)*%
X105160000Y-121830000D03*
%TO.P,U1,30,23_A9_Touch_PWM*%
%TO.N,unconnected-(U1-Pad30)*%
X105160000Y-124370000D03*
%TO.P,U1,31,3.3V*%
%TO.N,/3v3*%
X105160000Y-126910000D03*
%TO.P,U1,32,AGND*%
%TO.N,/agnd*%
X105160000Y-129450000D03*
%TO.P,U1,33,Vin*%
%TO.N,/5v*%
X105160000Y-131990000D03*
%TO.P,U1,34,VUSB*%
%TO.N,unconnected-(U1-Pad34)*%
X107700000Y-129450000D03*
%TO.P,U1,35,AREF*%
%TO.N,unconnected-(U1-Pad35)*%
X107700000Y-124370000D03*
%TO.P,U1,36,A10*%
%TO.N,unconnected-(U1-Pad36)*%
X107700000Y-121830000D03*
%TO.P,U1,37,A11*%
%TO.N,unconnected-(U1-Pad37)*%
X107700000Y-119290000D03*
D13*
%TO.P,U1,38,Reset*%
%TO.N,unconnected-(U1-Pad38)*%
X112780000Y-121830000D03*
X112780000Y-125640000D03*
%TD*%
D11*
%TO.P,RV3,1,1*%
%TO.N,/3v3*%
X162900000Y-132493000D03*
%TO.P,RV3,2,2*%
%TO.N,/p3*%
X167900000Y-132493000D03*
%TO.P,RV3,3,3*%
%TO.N,/agnd*%
X172900000Y-132493000D03*
%TD*%
D10*
%TO.P,RV7,1,1*%
%TO.N,/3v3*%
X157400000Y-73243000D03*
%TO.P,RV7,2,2*%
%TO.N,/l3*%
X153400000Y-73243000D03*
%TO.P,RV7,3,3*%
%TO.N,/agnd*%
X157400000Y-116743000D03*
%TD*%
D11*
%TO.P,RV1,1,1*%
%TO.N,/3v3*%
X112900000Y-132493000D03*
%TO.P,RV1,2,2*%
%TO.N,/p1*%
X117900000Y-132493000D03*
%TO.P,RV1,3,3*%
%TO.N,/agnd*%
X122900000Y-132493000D03*
%TD*%
D14*
%TO.N,/b5*%
X160450000Y-124350000D03*
X156500000Y-124350000D03*
%TO.N,/b1*%
X194724549Y-111799951D03*
%TO.N,/b2*%
X195431304Y-112506706D03*
%TO.N,/b3*%
X196138059Y-113213461D03*
%TO.N,/b4*%
X196912299Y-113987701D03*
%TO.N,/5v*%
X199750000Y-129900000D03*
X197750000Y-127900000D03*
X199775000Y-112075000D03*
%TO.N,/agnd*%
X182400000Y-120014500D03*
X157400000Y-120014500D03*
X132400000Y-120014500D03*
%TD*%
D15*
%TO.N,/b5*%
X156500000Y-124350000D02*
X160450000Y-124350000D01*
%TO.N,/b1*%
X194724549Y-111799951D02*
X188656989Y-117867511D01*
X126597511Y-117867511D02*
X120400000Y-111670000D01*
X188656989Y-117867511D02*
X126597511Y-117867511D01*
%TO.N,/b2*%
X195431304Y-112506706D02*
X189620979Y-118317031D01*
X189620979Y-118317031D02*
X124507031Y-118317031D01*
X124507031Y-118317031D02*
X120400000Y-114210000D01*
%TO.N,/b3*%
X196138059Y-113213461D02*
X190584969Y-118766551D01*
X190584969Y-118766551D02*
X122416551Y-118766551D01*
X122416551Y-118766551D02*
X120400000Y-116750000D01*
%TO.N,/b4*%
X191610000Y-119290000D02*
X120400000Y-119290000D01*
X196912299Y-113987701D02*
X191610000Y-119290000D01*
%TO.N,/5v*%
X197750000Y-114100000D02*
X199775000Y-112075000D01*
X197982969Y-134167031D02*
X199750000Y-132400000D01*
X105160000Y-131990000D02*
X107337031Y-134167031D01*
X107337031Y-134167031D02*
X197982969Y-134167031D01*
X197750000Y-127900000D02*
X197750000Y-114100000D01*
X199750000Y-132400000D02*
X199750000Y-129900000D01*
%TO.N,/3v3*%
X157400000Y-73243000D02*
X158524511Y-72118489D01*
X104035489Y-125785489D02*
X104035489Y-76607511D01*
X107400000Y-73243000D02*
X108524511Y-72118489D01*
X158524511Y-72118489D02*
X181275489Y-72118489D01*
X104035489Y-76607511D02*
X107400000Y-73243000D01*
X132400000Y-73243000D02*
X133843000Y-71800000D01*
X133843000Y-71800000D02*
X155957000Y-71800000D01*
X108524511Y-72118489D02*
X131275489Y-72118489D01*
X105160000Y-126910000D02*
X104035489Y-125785489D01*
X181275489Y-72118489D02*
X182400000Y-73243000D01*
X155957000Y-71800000D02*
X157400000Y-73243000D01*
X131275489Y-72118489D02*
X132400000Y-73243000D01*
%TO.N,/agnd*%
X149124511Y-133717511D02*
X171675489Y-133717511D01*
X122900000Y-132493000D02*
X122900000Y-129514500D01*
X147900000Y-129514500D02*
X157400000Y-120014500D01*
X122900000Y-132493000D02*
X124124511Y-133717511D01*
X147900000Y-132493000D02*
X147900000Y-129514500D01*
X147900000Y-132493000D02*
X149124511Y-133717511D01*
X121675489Y-133717511D02*
X122900000Y-132493000D01*
X172900000Y-132493000D02*
X174124511Y-133717511D01*
X146675489Y-133717511D02*
X147900000Y-132493000D01*
X196675489Y-133717511D02*
X197900000Y-132493000D01*
X105160000Y-129450000D02*
X109427511Y-133717511D01*
X174124511Y-133717511D02*
X196675489Y-133717511D01*
X172900000Y-132493000D02*
X172900000Y-129514500D01*
X109427511Y-133717511D02*
X121675489Y-133717511D01*
X172900000Y-129514500D02*
X182400000Y-120014500D01*
X171675489Y-133717511D02*
X172900000Y-132493000D01*
X124124511Y-133717511D02*
X146675489Y-133717511D01*
X122900000Y-129514500D02*
X132400000Y-120014500D01*
%TD*%
M02*
