%TF.GenerationSoftware,KiCad,Pcbnew,(6.0.4)*%
%TF.CreationDate,2022-06-13T21:37:06-04:00*%
%TF.ProjectId,midimania,6d696469-6d61-46e6-9961-2e6b69636164,rev?*%
%TF.SameCoordinates,Original*%
%TF.FileFunction,Soldermask,Top*%
%TF.FilePolarity,Negative*%
%FSLAX46Y46*%
G04 Gerber Fmt 4.6, Leading zero omitted, Abs format (unit mm)*
G04 Created by KiCad (PCBNEW (6.0.4)) date 2022-06-13 21:37:06*
%MOMM*%
%LPD*%
G01*
G04 APERTURE LIST*
%ADD10R,1.500000X1.500000*%
%ADD11C,1.600000*%
%ADD12C,1.800000*%
%ADD13R,1.600000X1.600000*%
%ADD14C,1.900000*%
G04 APERTURE END LIST*
%TO.C,svg2mod*%
G36*
X150782370Y-86174419D02*
G01*
X150809126Y-86201223D01*
X150835710Y-86227931D01*
X150862076Y-86254511D01*
X150888182Y-86280935D01*
X150913981Y-86307175D01*
X150939432Y-86333199D01*
X150964488Y-86358980D01*
X150989107Y-86384487D01*
X151013243Y-86409692D01*
X151036854Y-86434565D01*
X151059894Y-86459077D01*
X151082320Y-86483199D01*
X151104087Y-86506901D01*
X151125151Y-86530153D01*
X151145468Y-86552928D01*
X151164995Y-86575195D01*
X151177757Y-86589984D01*
X151190105Y-86604490D01*
X151156972Y-86614214D01*
X151123927Y-86624143D01*
X151090971Y-86634276D01*
X151058105Y-86644614D01*
X151025330Y-86655154D01*
X150992646Y-86665897D01*
X150960054Y-86676841D01*
X150927555Y-86687986D01*
X150895149Y-86699331D01*
X150862838Y-86710876D01*
X150830621Y-86722619D01*
X150798500Y-86734561D01*
X150766476Y-86746699D01*
X150734549Y-86759034D01*
X150702719Y-86771564D01*
X150670988Y-86784290D01*
X150639357Y-86797209D01*
X150607826Y-86810322D01*
X150576395Y-86823628D01*
X150545067Y-86837126D01*
X150513840Y-86850815D01*
X150482717Y-86864695D01*
X150451697Y-86878764D01*
X150420782Y-86893022D01*
X150389972Y-86907469D01*
X150359268Y-86922103D01*
X150328671Y-86936924D01*
X150298181Y-86951932D01*
X150267800Y-86967124D01*
X150237527Y-86982501D01*
X150207364Y-86998062D01*
X150177312Y-87013806D01*
X150147371Y-87029733D01*
X150117541Y-87045841D01*
X150087825Y-87062130D01*
X150058221Y-87078599D01*
X150028732Y-87095248D01*
X149999358Y-87112075D01*
X149970099Y-87129081D01*
X149940956Y-87146263D01*
X149911931Y-87163622D01*
X149883023Y-87181157D01*
X149854234Y-87198867D01*
X149825564Y-87216751D01*
X149797014Y-87234809D01*
X149768585Y-87253039D01*
X149740277Y-87271442D01*
X149712092Y-87290015D01*
X149684029Y-87308760D01*
X149656090Y-87327674D01*
X149628276Y-87346757D01*
X149600586Y-87366009D01*
X149573023Y-87385428D01*
X149545586Y-87405014D01*
X149518276Y-87424767D01*
X149491095Y-87444684D01*
X149464042Y-87464767D01*
X149437119Y-87485013D01*
X149410327Y-87505423D01*
X149383665Y-87525995D01*
X149357135Y-87546728D01*
X149330738Y-87567623D01*
X149304474Y-87588678D01*
X149278343Y-87609892D01*
X149252348Y-87631266D01*
X149226488Y-87652797D01*
X149200764Y-87674485D01*
X149175177Y-87696330D01*
X149149728Y-87718331D01*
X149124417Y-87740487D01*
X149099246Y-87762797D01*
X149074214Y-87785261D01*
X149049323Y-87807878D01*
X149024573Y-87830646D01*
X148999965Y-87853567D01*
X148975500Y-87876637D01*
X148951179Y-87899858D01*
X148927002Y-87923228D01*
X148902970Y-87946746D01*
X148879084Y-87970412D01*
X148855344Y-87994225D01*
X148831751Y-88018184D01*
X148808307Y-88042289D01*
X148785011Y-88066538D01*
X148761865Y-88090932D01*
X148738868Y-88115468D01*
X148716023Y-88140147D01*
X148693329Y-88164968D01*
X148670788Y-88189930D01*
X148648400Y-88215032D01*
X148626166Y-88240274D01*
X148604086Y-88265655D01*
X148582162Y-88291173D01*
X148560394Y-88316829D01*
X148538782Y-88342622D01*
X148517328Y-88368550D01*
X148496033Y-88394614D01*
X148474896Y-88420812D01*
X148453920Y-88447144D01*
X148433103Y-88473608D01*
X148412448Y-88500205D01*
X148391955Y-88526933D01*
X148371625Y-88553792D01*
X148351458Y-88580781D01*
X148331455Y-88607899D01*
X148311617Y-88635146D01*
X148291945Y-88662520D01*
X148272439Y-88690021D01*
X148253100Y-88717649D01*
X148233929Y-88745402D01*
X148214927Y-88773280D01*
X148196094Y-88801282D01*
X148177431Y-88829407D01*
X148158939Y-88857655D01*
X148140619Y-88886025D01*
X148122470Y-88914516D01*
X148104495Y-88943127D01*
X148086694Y-88971858D01*
X148069067Y-89000708D01*
X148051615Y-89029675D01*
X148034339Y-89058761D01*
X148017240Y-89087963D01*
X148000318Y-89117280D01*
X147983575Y-89146714D01*
X147967010Y-89176261D01*
X147950625Y-89205922D01*
X147934420Y-89235696D01*
X147918397Y-89265583D01*
X147902555Y-89295581D01*
X147886896Y-89325689D01*
X147871420Y-89355908D01*
X147856129Y-89386236D01*
X147841022Y-89416673D01*
X147826100Y-89447217D01*
X147811365Y-89477869D01*
X147796817Y-89508626D01*
X147782457Y-89539490D01*
X147768285Y-89570458D01*
X147754302Y-89601530D01*
X147740510Y-89632706D01*
X147726908Y-89663984D01*
X147713497Y-89695364D01*
X147700278Y-89726846D01*
X147687253Y-89758428D01*
X147674421Y-89790109D01*
X147661783Y-89821890D01*
X147649341Y-89853768D01*
X147637094Y-89885744D01*
X147625044Y-89917817D01*
X147613192Y-89949986D01*
X147601537Y-89982250D01*
X147590081Y-90014609D01*
X147578825Y-90047061D01*
X147567768Y-90079607D01*
X147556913Y-90112245D01*
X147546260Y-90144974D01*
X147535809Y-90177794D01*
X147525561Y-90210704D01*
X147515518Y-90243704D01*
X147505678Y-90276792D01*
X147496045Y-90309968D01*
X147486617Y-90343231D01*
X147477397Y-90376581D01*
X147468384Y-90410016D01*
X147459579Y-90443536D01*
X147450983Y-90477141D01*
X147442598Y-90510828D01*
X147434422Y-90544599D01*
X147426459Y-90578451D01*
X147418707Y-90612385D01*
X147411051Y-90646029D01*
X147403606Y-90679754D01*
X147396374Y-90713558D01*
X147389353Y-90747441D01*
X147382545Y-90781402D01*
X147375952Y-90815440D01*
X147369572Y-90849554D01*
X147363407Y-90883744D01*
X147357458Y-90918009D01*
X147351725Y-90952348D01*
X147346209Y-90986759D01*
X147340911Y-91021244D01*
X147335830Y-91055799D01*
X147330969Y-91090426D01*
X147326327Y-91125123D01*
X147321905Y-91159889D01*
X147317704Y-91194723D01*
X147313724Y-91229625D01*
X147309967Y-91264594D01*
X147306432Y-91299629D01*
X147303120Y-91334729D01*
X147300033Y-91369893D01*
X147297170Y-91405122D01*
X147294532Y-91440413D01*
X147292121Y-91475766D01*
X147289936Y-91511181D01*
X147287978Y-91546656D01*
X147286248Y-91582192D01*
X147284747Y-91617785D01*
X147283475Y-91653438D01*
X147282432Y-91689147D01*
X147281621Y-91724913D01*
X147281040Y-91760735D01*
X147280691Y-91796612D01*
X147280575Y-91832543D01*
X147280680Y-91866547D01*
X147280994Y-91900502D01*
X147281517Y-91934407D01*
X147282248Y-91968260D01*
X147283186Y-92002063D01*
X147284331Y-92035814D01*
X147285683Y-92069512D01*
X147287240Y-92103157D01*
X147289002Y-92136748D01*
X147290969Y-92170285D01*
X147293139Y-92203767D01*
X147295512Y-92237193D01*
X147298089Y-92270563D01*
X147300867Y-92303876D01*
X147303846Y-92337132D01*
X147307026Y-92370330D01*
X147310407Y-92403469D01*
X147313986Y-92436549D01*
X147317765Y-92469569D01*
X147321742Y-92502529D01*
X147325917Y-92535427D01*
X147330288Y-92568264D01*
X147334856Y-92601038D01*
X147339620Y-92633750D01*
X147344580Y-92666398D01*
X147349733Y-92698981D01*
X147355081Y-92731500D01*
X147360622Y-92763954D01*
X147366356Y-92796341D01*
X147372282Y-92828662D01*
X147378400Y-92860916D01*
X147384709Y-92893102D01*
X147391208Y-92925219D01*
X147397896Y-92957268D01*
X147404774Y-92989246D01*
X147411840Y-93021155D01*
X147419094Y-93052992D01*
X147426536Y-93084758D01*
X147434163Y-93116452D01*
X147441978Y-93148073D01*
X147449977Y-93179621D01*
X147458161Y-93211095D01*
X147466530Y-93242494D01*
X147475082Y-93273818D01*
X147483817Y-93305066D01*
X147492734Y-93336238D01*
X147501833Y-93367333D01*
X147511113Y-93398350D01*
X147520574Y-93429289D01*
X147530215Y-93460149D01*
X147540035Y-93490930D01*
X147550033Y-93521630D01*
X147560210Y-93552250D01*
X147570564Y-93582789D01*
X147581095Y-93613245D01*
X147591803Y-93643619D01*
X147602686Y-93673910D01*
X147613744Y-93704117D01*
X147624976Y-93734240D01*
X147636382Y-93764278D01*
X147647961Y-93794230D01*
X147659713Y-93824096D01*
X147671637Y-93853875D01*
X147683732Y-93883567D01*
X147695998Y-93913170D01*
X147708434Y-93942685D01*
X147721039Y-93972111D01*
X147733814Y-94001447D01*
X147746756Y-94030692D01*
X147759867Y-94059846D01*
X147773144Y-94088909D01*
X147786588Y-94117879D01*
X147800197Y-94146756D01*
X147813972Y-94175540D01*
X147827912Y-94204229D01*
X147842015Y-94232824D01*
X147856282Y-94261323D01*
X147870711Y-94289726D01*
X147885303Y-94318033D01*
X147900056Y-94346243D01*
X147914970Y-94374354D01*
X147930045Y-94402367D01*
X147945279Y-94430281D01*
X147960672Y-94458096D01*
X147976224Y-94485810D01*
X147991934Y-94513423D01*
X148007800Y-94540934D01*
X148023824Y-94568344D01*
X148040003Y-94595651D01*
X148056338Y-94622854D01*
X148072828Y-94649954D01*
X148089472Y-94676948D01*
X148106270Y-94703838D01*
X148123220Y-94730622D01*
X148140323Y-94757299D01*
X148157577Y-94783870D01*
X148174983Y-94810332D01*
X148192539Y-94836687D01*
X148210245Y-94862932D01*
X148228101Y-94889069D01*
X148246105Y-94915095D01*
X148264257Y-94941010D01*
X148282556Y-94966814D01*
X148301003Y-94992506D01*
X148319596Y-95018085D01*
X148338334Y-95043552D01*
X148357217Y-95068904D01*
X148376245Y-95094143D01*
X148395416Y-95119266D01*
X148414731Y-95144273D01*
X148434188Y-95169165D01*
X148453787Y-95193939D01*
X148473527Y-95218597D01*
X148493409Y-95243136D01*
X148513430Y-95267556D01*
X148533591Y-95291857D01*
X148553890Y-95316038D01*
X148574328Y-95340099D01*
X148594904Y-95364039D01*
X148615616Y-95387856D01*
X148636465Y-95411552D01*
X148657450Y-95435125D01*
X148678570Y-95458573D01*
X148699825Y-95481898D01*
X148721213Y-95505098D01*
X148742735Y-95528173D01*
X148764390Y-95551122D01*
X148786177Y-95573943D01*
X148808095Y-95596638D01*
X148830145Y-95619205D01*
X148852324Y-95641643D01*
X148874634Y-95663953D01*
X148897072Y-95686132D01*
X148919639Y-95708182D01*
X148942333Y-95730100D01*
X148965155Y-95751887D01*
X148988104Y-95773542D01*
X149011179Y-95795064D01*
X149034379Y-95816452D01*
X149057703Y-95837707D01*
X149081152Y-95858827D01*
X149104725Y-95879812D01*
X149128421Y-95900661D01*
X149152238Y-95921373D01*
X149176178Y-95941949D01*
X149200239Y-95962387D01*
X149224420Y-95982686D01*
X149248721Y-96002847D01*
X149273141Y-96022868D01*
X149297680Y-96042749D01*
X149322338Y-96062490D01*
X149347112Y-96082089D01*
X149372003Y-96101546D01*
X149397011Y-96120861D01*
X149422134Y-96140032D01*
X149447373Y-96159060D01*
X149472725Y-96177943D01*
X149498191Y-96196681D01*
X149523771Y-96215274D01*
X149549463Y-96233720D01*
X149575267Y-96252020D01*
X149601182Y-96270172D01*
X149627208Y-96288176D01*
X149653345Y-96306032D01*
X149679590Y-96323738D01*
X149705945Y-96341294D01*
X149732407Y-96358700D01*
X149758978Y-96375954D01*
X149785655Y-96393057D01*
X149812439Y-96410007D01*
X149839329Y-96426805D01*
X149866323Y-96443449D01*
X149893423Y-96459939D01*
X149920626Y-96476274D01*
X149947933Y-96492453D01*
X149975342Y-96508477D01*
X150002854Y-96524343D01*
X150030467Y-96540053D01*
X150058181Y-96555605D01*
X150085996Y-96570998D01*
X150113910Y-96586232D01*
X150141923Y-96601307D01*
X150170034Y-96616221D01*
X150198244Y-96630974D01*
X150226551Y-96645566D01*
X150254954Y-96659995D01*
X150283453Y-96674262D01*
X150312048Y-96688365D01*
X150340737Y-96702305D01*
X150369521Y-96716080D01*
X150398398Y-96729689D01*
X150427368Y-96743133D01*
X150456431Y-96756410D01*
X150485585Y-96769521D01*
X150514830Y-96782463D01*
X150544166Y-96795238D01*
X150573592Y-96807843D01*
X150603107Y-96820279D01*
X150632710Y-96832545D01*
X150662402Y-96844640D01*
X150692181Y-96856564D01*
X150722047Y-96868316D01*
X150751999Y-96879895D01*
X150782037Y-96891301D01*
X150812160Y-96902533D01*
X150842367Y-96913591D01*
X150872658Y-96924474D01*
X150903032Y-96935181D01*
X150933488Y-96945713D01*
X150964027Y-96956067D01*
X150994647Y-96966243D01*
X151025347Y-96976242D01*
X151056128Y-96986062D01*
X151086988Y-96995703D01*
X151117927Y-97005164D01*
X151148944Y-97014444D01*
X151180039Y-97023543D01*
X151211211Y-97032460D01*
X151242459Y-97041195D01*
X151273783Y-97049747D01*
X151305182Y-97058116D01*
X151336656Y-97066300D01*
X151368204Y-97074299D01*
X151399825Y-97082113D01*
X151431519Y-97089741D01*
X151463285Y-97097183D01*
X151495122Y-97104437D01*
X151527031Y-97111503D01*
X151559009Y-97118381D01*
X151591058Y-97125069D01*
X151623175Y-97131568D01*
X151655361Y-97137877D01*
X151687615Y-97143995D01*
X151719936Y-97149921D01*
X151752323Y-97155655D01*
X151784777Y-97161196D01*
X151817296Y-97166544D01*
X151849879Y-97171697D01*
X151882527Y-97176657D01*
X151915239Y-97181421D01*
X151948013Y-97185989D01*
X151980850Y-97190360D01*
X152013748Y-97194535D01*
X152046708Y-97198512D01*
X152079728Y-97202291D01*
X152112808Y-97205870D01*
X152145947Y-97209251D01*
X152179145Y-97212431D01*
X152212401Y-97215410D01*
X152245714Y-97218188D01*
X152279084Y-97220764D01*
X152312510Y-97223138D01*
X152345992Y-97225308D01*
X152379529Y-97227275D01*
X152413120Y-97229037D01*
X152446765Y-97230594D01*
X152480463Y-97231946D01*
X152514214Y-97233091D01*
X152548017Y-97234029D01*
X152581870Y-97234760D01*
X152615775Y-97235283D01*
X152649730Y-97235597D01*
X152683734Y-97235702D01*
X152718673Y-97235592D01*
X152753557Y-97235261D01*
X152788387Y-97234711D01*
X152823162Y-97233942D01*
X152857881Y-97232955D01*
X152892544Y-97231749D01*
X152927150Y-97230327D01*
X152961699Y-97228687D01*
X152996191Y-97226832D01*
X153030624Y-97224761D01*
X153064999Y-97222475D01*
X153099315Y-97219975D01*
X153133572Y-97217262D01*
X153167768Y-97214335D01*
X153201904Y-97211196D01*
X153235979Y-97207845D01*
X153269993Y-97204282D01*
X153303944Y-97200509D01*
X153337833Y-97196526D01*
X153371660Y-97192333D01*
X153405422Y-97187931D01*
X153439121Y-97183321D01*
X153472756Y-97178503D01*
X153465943Y-97212924D01*
X153458794Y-97247390D01*
X153451316Y-97281801D01*
X153443518Y-97316055D01*
X153435407Y-97350052D01*
X153426990Y-97383692D01*
X153418277Y-97416874D01*
X153409275Y-97449498D01*
X153399991Y-97481463D01*
X153390433Y-97512668D01*
X153378656Y-97548984D01*
X153366537Y-97584279D01*
X153354092Y-97618621D01*
X153341339Y-97652076D01*
X153328296Y-97684711D01*
X153314980Y-97716593D01*
X153301410Y-97747789D01*
X153287601Y-97778365D01*
X153273572Y-97808389D01*
X153259341Y-97837927D01*
X153244925Y-97867045D01*
X153230341Y-97895811D01*
X153215607Y-97924291D01*
X153200740Y-97952552D01*
X153185759Y-97980660D01*
X153170680Y-98008684D01*
X153136103Y-98012768D01*
X153101473Y-98016653D01*
X153066789Y-98020339D01*
X153032052Y-98023826D01*
X152997261Y-98027114D01*
X152962417Y-98030204D01*
X152927519Y-98033094D01*
X152892568Y-98035785D01*
X152857563Y-98038277D01*
X152822504Y-98040571D01*
X152787391Y-98042665D01*
X152752224Y-98044559D01*
X152717003Y-98046255D01*
X152681729Y-98047751D01*
X152646399Y-98049048D01*
X152611016Y-98050145D01*
X152575578Y-98051043D01*
X152540086Y-98051742D01*
X152504540Y-98052241D01*
X152468939Y-98052540D01*
X152433283Y-98052640D01*
X152401838Y-98052626D01*
X152370395Y-98052545D01*
X152338978Y-98052335D01*
X152307610Y-98051937D01*
X152276316Y-98051290D01*
X152240416Y-98050277D01*
X152204568Y-98049056D01*
X152168774Y-98047629D01*
X152133033Y-98045995D01*
X152097346Y-98044156D01*
X152061714Y-98042112D01*
X152026137Y-98039863D01*
X151990616Y-98037411D01*
X151955152Y-98034755D01*
X151919745Y-98031896D01*
X151884396Y-98028836D01*
X151849104Y-98025574D01*
X151813872Y-98022111D01*
X151778699Y-98018447D01*
X151743586Y-98014584D01*
X151708534Y-98010522D01*
X151673542Y-98006260D01*
X151638613Y-98001801D01*
X151603745Y-97997145D01*
X151568941Y-97992291D01*
X151534200Y-97987241D01*
X151499523Y-97981996D01*
X151464911Y-97976555D01*
X151430364Y-97970919D01*
X151395882Y-97965090D01*
X151361467Y-97959067D01*
X151327119Y-97952851D01*
X151292838Y-97946443D01*
X151258626Y-97939844D01*
X151224482Y-97933053D01*
X151190407Y-97926071D01*
X151156403Y-97918900D01*
X151122468Y-97911539D01*
X151088605Y-97903990D01*
X151054813Y-97896252D01*
X151021093Y-97888327D01*
X150987446Y-97880214D01*
X150953872Y-97871916D01*
X150920372Y-97863431D01*
X150886947Y-97854761D01*
X150853596Y-97845906D01*
X150820321Y-97836867D01*
X150787122Y-97827644D01*
X150754001Y-97818238D01*
X150720956Y-97808650D01*
X150687989Y-97798880D01*
X150655101Y-97788929D01*
X150622292Y-97778797D01*
X150589562Y-97768485D01*
X150556913Y-97757994D01*
X150524345Y-97747323D01*
X150491858Y-97736474D01*
X150459452Y-97725447D01*
X150427130Y-97714243D01*
X150394890Y-97702863D01*
X150362735Y-97691306D01*
X150330663Y-97679574D01*
X150298676Y-97667667D01*
X150266775Y-97655586D01*
X150234960Y-97643331D01*
X150203231Y-97630902D01*
X150171590Y-97618301D01*
X150140036Y-97605528D01*
X150108571Y-97592584D01*
X150077195Y-97579469D01*
X150045908Y-97566184D01*
X150014711Y-97552728D01*
X149983604Y-97539104D01*
X149952589Y-97525311D01*
X149921666Y-97511351D01*
X149890835Y-97497222D01*
X149860097Y-97482927D01*
X149829453Y-97468466D01*
X149798902Y-97453840D01*
X149768447Y-97439048D01*
X149738086Y-97424091D01*
X149707822Y-97408971D01*
X149677654Y-97393687D01*
X149647583Y-97378241D01*
X149617609Y-97362633D01*
X149587734Y-97346863D01*
X149557957Y-97330931D01*
X149528280Y-97314840D01*
X149498703Y-97298589D01*
X149469226Y-97282178D01*
X149439850Y-97265609D01*
X149410576Y-97248881D01*
X149381404Y-97231996D01*
X149352334Y-97214954D01*
X149323368Y-97197756D01*
X149294507Y-97180402D01*
X149265749Y-97162892D01*
X149237097Y-97145228D01*
X149208550Y-97127410D01*
X149180110Y-97109439D01*
X149151776Y-97091314D01*
X149123550Y-97073038D01*
X149095432Y-97054609D01*
X149067422Y-97036029D01*
X149039522Y-97017299D01*
X149011731Y-96998419D01*
X148984051Y-96979389D01*
X148956481Y-96960210D01*
X148929023Y-96940884D01*
X148901677Y-96921409D01*
X148874444Y-96901787D01*
X148847324Y-96882019D01*
X148820317Y-96862105D01*
X148793425Y-96842046D01*
X148766648Y-96821841D01*
X148739987Y-96801493D01*
X148713441Y-96781001D01*
X148687012Y-96760365D01*
X148660701Y-96739588D01*
X148634507Y-96718668D01*
X148608432Y-96697607D01*
X148582475Y-96676405D01*
X148556638Y-96655063D01*
X148530922Y-96633582D01*
X148505326Y-96611962D01*
X148479851Y-96590203D01*
X148454498Y-96568306D01*
X148429268Y-96546272D01*
X148404161Y-96524101D01*
X148379177Y-96501794D01*
X148354318Y-96479352D01*
X148329583Y-96456775D01*
X148304973Y-96434063D01*
X148280490Y-96411218D01*
X148256133Y-96388239D01*
X148231903Y-96365128D01*
X148207801Y-96341884D01*
X148183827Y-96318509D01*
X148159982Y-96295003D01*
X148136266Y-96271367D01*
X148112680Y-96247601D01*
X148089225Y-96223706D01*
X148065901Y-96199683D01*
X148042709Y-96175531D01*
X148019648Y-96151252D01*
X147996721Y-96126846D01*
X147973927Y-96102314D01*
X147951268Y-96077656D01*
X147928742Y-96052873D01*
X147906352Y-96027966D01*
X147884098Y-96002934D01*
X147861980Y-95977779D01*
X147839999Y-95952502D01*
X147818156Y-95927102D01*
X147796450Y-95901581D01*
X147774884Y-95875938D01*
X147753456Y-95850175D01*
X147732168Y-95824292D01*
X147711021Y-95798290D01*
X147690015Y-95772169D01*
X147669150Y-95745930D01*
X147648427Y-95719573D01*
X147627847Y-95693099D01*
X147607410Y-95666509D01*
X147587118Y-95639803D01*
X147566969Y-95612982D01*
X147546966Y-95586046D01*
X147527108Y-95558995D01*
X147507396Y-95531832D01*
X147487831Y-95504555D01*
X147468414Y-95477166D01*
X147449144Y-95449665D01*
X147430023Y-95422053D01*
X147411051Y-95394331D01*
X147392228Y-95366498D01*
X147373556Y-95338556D01*
X147355034Y-95310505D01*
X147336664Y-95282346D01*
X147318446Y-95254078D01*
X147300381Y-95225704D01*
X147282468Y-95197223D01*
X147264709Y-95168636D01*
X147247105Y-95139944D01*
X147229655Y-95111147D01*
X147212361Y-95082245D01*
X147195223Y-95053240D01*
X147178241Y-95024132D01*
X147161416Y-94994921D01*
X147144750Y-94965609D01*
X147128241Y-94936195D01*
X147111892Y-94906680D01*
X147095702Y-94877065D01*
X147081768Y-94851241D01*
X147067983Y-94825370D01*
X147054327Y-94799435D01*
X147040785Y-94773418D01*
X147027338Y-94747303D01*
X147011894Y-94716930D01*
X146996615Y-94686459D01*
X146981502Y-94655890D01*
X146966556Y-94625225D01*
X146951777Y-94594462D01*
X146937165Y-94563604D01*
X146922722Y-94532651D01*
X146908448Y-94501603D01*
X146894344Y-94470461D01*
X146880410Y-94439226D01*
X146866646Y-94407897D01*
X146853054Y-94376477D01*
X146839634Y-94344964D01*
X146826386Y-94313361D01*
X146813311Y-94281667D01*
X146800411Y-94249883D01*
X146787684Y-94218010D01*
X146775133Y-94186048D01*
X146762757Y-94153998D01*
X146750557Y-94121861D01*
X146738534Y-94089636D01*
X146726689Y-94057325D01*
X146715021Y-94024929D01*
X146703532Y-93992447D01*
X146692222Y-93959881D01*
X146681092Y-93927231D01*
X146670142Y-93894498D01*
X146659373Y-93861682D01*
X146648786Y-93828784D01*
X146638380Y-93795804D01*
X146628158Y-93762743D01*
X146618119Y-93729602D01*
X146608264Y-93696381D01*
X146598593Y-93663081D01*
X146589108Y-93629703D01*
X146579808Y-93596246D01*
X146570695Y-93562712D01*
X146561768Y-93529102D01*
X146553029Y-93495415D01*
X146544479Y-93461652D01*
X146536117Y-93427815D01*
X146527944Y-93393903D01*
X146519962Y-93359918D01*
X146512170Y-93325859D01*
X146504569Y-93291727D01*
X146497159Y-93257524D01*
X146489943Y-93223249D01*
X146482919Y-93188904D01*
X146476088Y-93154488D01*
X146469452Y-93120003D01*
X146463011Y-93085448D01*
X146456765Y-93050825D01*
X146450714Y-93016135D01*
X146444861Y-92981377D01*
X146439204Y-92946552D01*
X146433746Y-92911662D01*
X146428485Y-92876706D01*
X146423424Y-92841685D01*
X146418562Y-92806600D01*
X146413900Y-92771451D01*
X146409439Y-92736240D01*
X146405179Y-92700965D01*
X146401122Y-92665629D01*
X146397267Y-92630232D01*
X146393614Y-92594774D01*
X146390166Y-92559256D01*
X146386922Y-92523679D01*
X146383883Y-92488042D01*
X146381050Y-92452348D01*
X146378422Y-92416595D01*
X146376002Y-92380786D01*
X146373789Y-92344920D01*
X146371783Y-92308998D01*
X146369986Y-92273021D01*
X146368399Y-92236989D01*
X146367021Y-92200903D01*
X146365853Y-92164764D01*
X146364897Y-92128572D01*
X146364152Y-92092327D01*
X146363619Y-92056031D01*
X146363299Y-92019684D01*
X146363192Y-91983286D01*
X146363194Y-91983237D01*
X146363294Y-91948029D01*
X146363593Y-91912869D01*
X146364091Y-91877757D01*
X146364788Y-91842693D01*
X146365682Y-91807678D01*
X146366773Y-91772713D01*
X146368061Y-91737798D01*
X146369544Y-91702933D01*
X146371224Y-91668120D01*
X146373099Y-91633358D01*
X146375168Y-91598648D01*
X146377431Y-91563991D01*
X146379887Y-91529387D01*
X146382536Y-91494837D01*
X146385378Y-91460342D01*
X146388412Y-91425901D01*
X146391637Y-91391516D01*
X146395052Y-91357186D01*
X146398658Y-91322914D01*
X146402454Y-91288698D01*
X146406439Y-91254539D01*
X146410612Y-91220439D01*
X146414973Y-91186398D01*
X146419522Y-91152415D01*
X146424258Y-91118493D01*
X146429181Y-91084630D01*
X146434289Y-91050828D01*
X146439583Y-91017088D01*
X146445061Y-90983410D01*
X146450724Y-90949793D01*
X146456571Y-90916240D01*
X146462601Y-90882750D01*
X146468814Y-90849325D01*
X146475209Y-90815963D01*
X146481786Y-90782667D01*
X146488543Y-90749437D01*
X146495482Y-90716272D01*
X146502600Y-90683174D01*
X146509898Y-90650144D01*
X146517375Y-90617181D01*
X146525030Y-90584286D01*
X146532863Y-90551461D01*
X146540874Y-90518704D01*
X146549061Y-90486018D01*
X146557425Y-90453402D01*
X146565964Y-90420857D01*
X146574679Y-90388383D01*
X146583568Y-90355981D01*
X146592632Y-90323652D01*
X146601869Y-90291396D01*
X146611279Y-90259214D01*
X146620862Y-90227106D01*
X146630617Y-90195073D01*
X146640543Y-90163115D01*
X146650640Y-90131232D01*
X146660908Y-90099426D01*
X146671345Y-90067697D01*
X146681952Y-90036045D01*
X146692728Y-90004472D01*
X146703672Y-89972976D01*
X146714783Y-89941560D01*
X146726062Y-89910223D01*
X146737507Y-89878966D01*
X146749119Y-89847790D01*
X146760896Y-89816695D01*
X146772838Y-89785682D01*
X146784945Y-89754751D01*
X146797215Y-89723903D01*
X146809649Y-89693138D01*
X146822246Y-89662456D01*
X146835006Y-89631859D01*
X146847927Y-89601348D01*
X146861009Y-89570921D01*
X146874253Y-89540581D01*
X146887656Y-89510327D01*
X146901219Y-89480160D01*
X146914941Y-89450080D01*
X146928822Y-89420089D01*
X146942861Y-89390186D01*
X146957058Y-89360373D01*
X146971411Y-89330649D01*
X146985921Y-89301016D01*
X147000587Y-89271473D01*
X147015409Y-89242022D01*
X147030385Y-89212663D01*
X147045516Y-89183396D01*
X147060800Y-89154222D01*
X147076237Y-89125141D01*
X147091828Y-89096155D01*
X147107570Y-89067263D01*
X147123465Y-89038466D01*
X147139510Y-89009764D01*
X147155706Y-88981159D01*
X147172052Y-88952651D01*
X147188547Y-88924240D01*
X147205191Y-88895926D01*
X147221984Y-88867711D01*
X147238925Y-88839595D01*
X147256013Y-88811578D01*
X147273248Y-88783661D01*
X147290629Y-88755845D01*
X147308156Y-88728129D01*
X147325828Y-88700515D01*
X147343645Y-88673003D01*
X147361606Y-88645594D01*
X147379711Y-88618288D01*
X147397959Y-88591085D01*
X147416349Y-88563987D01*
X147434881Y-88536993D01*
X147453555Y-88510105D01*
X147472370Y-88483322D01*
X147491325Y-88456646D01*
X147510420Y-88430077D01*
X147529654Y-88403615D01*
X147549027Y-88377261D01*
X147568539Y-88351016D01*
X147588188Y-88324879D01*
X147607974Y-88298853D01*
X147627897Y-88272936D01*
X147647956Y-88247130D01*
X147668151Y-88221435D01*
X147688480Y-88195852D01*
X147708944Y-88170381D01*
X147729543Y-88145023D01*
X147750274Y-88119778D01*
X147771139Y-88094647D01*
X147792135Y-88069630D01*
X147813264Y-88044729D01*
X147834524Y-88019943D01*
X147855915Y-87995272D01*
X147877436Y-87970719D01*
X147899086Y-87946282D01*
X147920866Y-87921963D01*
X147942774Y-87897763D01*
X147964811Y-87873680D01*
X147986975Y-87849718D01*
X148009266Y-87825874D01*
X148031683Y-87802152D01*
X148054227Y-87778550D01*
X148076896Y-87755069D01*
X148099689Y-87731710D01*
X148122607Y-87708474D01*
X148145649Y-87685360D01*
X148168814Y-87662371D01*
X148192102Y-87639505D01*
X148215512Y-87616764D01*
X148239044Y-87594147D01*
X148262697Y-87571657D01*
X148286470Y-87549293D01*
X148310363Y-87527055D01*
X148334376Y-87504945D01*
X148358508Y-87482962D01*
X148382758Y-87461108D01*
X148407126Y-87439383D01*
X148431612Y-87417787D01*
X148456214Y-87396321D01*
X148480933Y-87374986D01*
X148505767Y-87353781D01*
X148530717Y-87332709D01*
X148555781Y-87311768D01*
X148580960Y-87290960D01*
X148606252Y-87270285D01*
X148631657Y-87249743D01*
X148657175Y-87229336D01*
X148682805Y-87209064D01*
X148708546Y-87188927D01*
X148734398Y-87168926D01*
X148760361Y-87149061D01*
X148786433Y-87129333D01*
X148812615Y-87109743D01*
X148838905Y-87090290D01*
X148865304Y-87070976D01*
X148891810Y-87051801D01*
X148918424Y-87032766D01*
X148945144Y-87013871D01*
X148971971Y-86995116D01*
X148998903Y-86976503D01*
X149025940Y-86958032D01*
X149053082Y-86939702D01*
X149080327Y-86921516D01*
X149107676Y-86903473D01*
X149135128Y-86885574D01*
X149162682Y-86867819D01*
X149190338Y-86850209D01*
X149218096Y-86832745D01*
X149245954Y-86815426D01*
X149273912Y-86798255D01*
X149301970Y-86781230D01*
X149330127Y-86764353D01*
X149358383Y-86747624D01*
X149386737Y-86731044D01*
X149415188Y-86714613D01*
X149443737Y-86698332D01*
X149472382Y-86682201D01*
X149501123Y-86666221D01*
X149529959Y-86650393D01*
X149558890Y-86634716D01*
X149587915Y-86619192D01*
X149617034Y-86603821D01*
X149646247Y-86588603D01*
X149675552Y-86573539D01*
X149704949Y-86558631D01*
X149734438Y-86543877D01*
X149764019Y-86529279D01*
X149793689Y-86514837D01*
X149823450Y-86500552D01*
X149853300Y-86486424D01*
X149883239Y-86472454D01*
X149913267Y-86458642D01*
X149943383Y-86444989D01*
X149973586Y-86431496D01*
X150003875Y-86418162D01*
X150034251Y-86404990D01*
X150064713Y-86391978D01*
X150095260Y-86379127D01*
X150125892Y-86366439D01*
X150156608Y-86353914D01*
X150187407Y-86341551D01*
X150218290Y-86329353D01*
X150249255Y-86317319D01*
X150280302Y-86305449D01*
X150311430Y-86293745D01*
X150342640Y-86282207D01*
X150373930Y-86270835D01*
X150405299Y-86259630D01*
X150436748Y-86248592D01*
X150468276Y-86237723D01*
X150499882Y-86227022D01*
X150531566Y-86216490D01*
X150563327Y-86206128D01*
X150595165Y-86195935D01*
X150627079Y-86185914D01*
X150659068Y-86176064D01*
X150691132Y-86166385D01*
X150723271Y-86156879D01*
X150755484Y-86147546D01*
X150782370Y-86174419D01*
G37*
G36*
X151318030Y-86779937D02*
G01*
X151333579Y-86808171D01*
X151347076Y-86835910D01*
X151358569Y-86863317D01*
X151368104Y-86890553D01*
X151375727Y-86917780D01*
X151382278Y-86949601D01*
X151386715Y-86982422D01*
X151389259Y-87016184D01*
X151390129Y-87050828D01*
X151389545Y-87086294D01*
X151387728Y-87122524D01*
X151384897Y-87159458D01*
X151381274Y-87197038D01*
X151377077Y-87235203D01*
X151345284Y-87245879D01*
X151313591Y-87256772D01*
X151282000Y-87267882D01*
X151250511Y-87279207D01*
X151219126Y-87290748D01*
X151187845Y-87302503D01*
X151156668Y-87314472D01*
X151125598Y-87326653D01*
X151094634Y-87339045D01*
X151063778Y-87351648D01*
X151033031Y-87364461D01*
X151002393Y-87377483D01*
X150971865Y-87390712D01*
X150941449Y-87404149D01*
X150911145Y-87417792D01*
X150880954Y-87431640D01*
X150850876Y-87445692D01*
X150820914Y-87459948D01*
X150791067Y-87474407D01*
X150761337Y-87489067D01*
X150731724Y-87503929D01*
X150702230Y-87518990D01*
X150672855Y-87534250D01*
X150643600Y-87549709D01*
X150614466Y-87565364D01*
X150585454Y-87581217D01*
X150556565Y-87597264D01*
X150527800Y-87613506D01*
X150499159Y-87629942D01*
X150470644Y-87646571D01*
X150442255Y-87663392D01*
X150413993Y-87680404D01*
X150385860Y-87697606D01*
X150357855Y-87714997D01*
X150329981Y-87732577D01*
X150302237Y-87750344D01*
X150274625Y-87768298D01*
X150247146Y-87786437D01*
X150219800Y-87804762D01*
X150192588Y-87823270D01*
X150165512Y-87841961D01*
X150138572Y-87860835D01*
X150111769Y-87879889D01*
X150085104Y-87899124D01*
X150058578Y-87918539D01*
X150032191Y-87938132D01*
X150005946Y-87957903D01*
X149979841Y-87977851D01*
X149953879Y-87997975D01*
X149928061Y-88018273D01*
X149902386Y-88038746D01*
X149876857Y-88059392D01*
X149851473Y-88080211D01*
X149826237Y-88101201D01*
X149801148Y-88122361D01*
X149776208Y-88143691D01*
X149751417Y-88165191D01*
X149726777Y-88186858D01*
X149702288Y-88208692D01*
X149677951Y-88230692D01*
X149653767Y-88252857D01*
X149629738Y-88275187D01*
X149605863Y-88297680D01*
X149582144Y-88320336D01*
X149558581Y-88343154D01*
X149535176Y-88366132D01*
X149511930Y-88389270D01*
X149488843Y-88412567D01*
X149465916Y-88436023D01*
X149443150Y-88459636D01*
X149420546Y-88483405D01*
X149398105Y-88507329D01*
X149375827Y-88531408D01*
X149353715Y-88555641D01*
X149331768Y-88580026D01*
X149309987Y-88604564D01*
X149288374Y-88629252D01*
X149266929Y-88654091D01*
X149245653Y-88679079D01*
X149224546Y-88704215D01*
X149203611Y-88729498D01*
X149182848Y-88754929D01*
X149162257Y-88780504D01*
X149141840Y-88806225D01*
X149121597Y-88832090D01*
X149101530Y-88858097D01*
X149081639Y-88884247D01*
X149061925Y-88910538D01*
X149042389Y-88936969D01*
X149023031Y-88963540D01*
X149003854Y-88990249D01*
X148984857Y-89017096D01*
X148966042Y-89044079D01*
X148947410Y-89071199D01*
X148928960Y-89098454D01*
X148910695Y-89125842D01*
X148892615Y-89153364D01*
X148874721Y-89181018D01*
X148857014Y-89208804D01*
X148839495Y-89236720D01*
X148822164Y-89264766D01*
X148805023Y-89292941D01*
X148788073Y-89321243D01*
X148771314Y-89349673D01*
X148754747Y-89378228D01*
X148738373Y-89406909D01*
X148722193Y-89435714D01*
X148706208Y-89464643D01*
X148690419Y-89493694D01*
X148674827Y-89522867D01*
X148659432Y-89552160D01*
X148644236Y-89581574D01*
X148629239Y-89611106D01*
X148614442Y-89640757D01*
X148599847Y-89670524D01*
X148585453Y-89700408D01*
X148571262Y-89730408D01*
X148557276Y-89760522D01*
X148543494Y-89790749D01*
X148529917Y-89821090D01*
X148516547Y-89851542D01*
X148503385Y-89882105D01*
X148490430Y-89912778D01*
X148477685Y-89943561D01*
X148465150Y-89974451D01*
X148452826Y-90005450D01*
X148440714Y-90036554D01*
X148428814Y-90067765D01*
X148417128Y-90099080D01*
X148405656Y-90130499D01*
X148394400Y-90162021D01*
X148383360Y-90193645D01*
X148372538Y-90225370D01*
X148361933Y-90257195D01*
X148351547Y-90289120D01*
X148341381Y-90321143D01*
X148331436Y-90353264D01*
X148321713Y-90385482D01*
X148312212Y-90417796D01*
X148302934Y-90450204D01*
X148293881Y-90482707D01*
X148285053Y-90515303D01*
X148276451Y-90547991D01*
X148268076Y-90580770D01*
X148259928Y-90613640D01*
X148252010Y-90646600D01*
X148244321Y-90679648D01*
X148236863Y-90712784D01*
X148229636Y-90746007D01*
X148222641Y-90779316D01*
X148215879Y-90812711D01*
X148209352Y-90846189D01*
X148203060Y-90879751D01*
X148197003Y-90913396D01*
X148191183Y-90947122D01*
X148185601Y-90980929D01*
X148180257Y-91014816D01*
X148175153Y-91048781D01*
X148170289Y-91082825D01*
X148165667Y-91116946D01*
X148161286Y-91151143D01*
X148157148Y-91185415D01*
X148153254Y-91219762D01*
X148149605Y-91254183D01*
X148146202Y-91288676D01*
X148143045Y-91323241D01*
X148140136Y-91357877D01*
X148137475Y-91392583D01*
X148135063Y-91427358D01*
X148132901Y-91462202D01*
X148130990Y-91497113D01*
X148129332Y-91532090D01*
X148127925Y-91567133D01*
X148126773Y-91602240D01*
X148125875Y-91637412D01*
X148125233Y-91672646D01*
X148124846Y-91707943D01*
X148124718Y-91743300D01*
X148124836Y-91777185D01*
X148125191Y-91811014D01*
X148125781Y-91844786D01*
X148126605Y-91878501D01*
X148127664Y-91912157D01*
X148128956Y-91945755D01*
X148130480Y-91979293D01*
X148132235Y-92012770D01*
X148134222Y-92046187D01*
X148136438Y-92079541D01*
X148138884Y-92112832D01*
X148141557Y-92146059D01*
X148144459Y-92179223D01*
X148147587Y-92212320D01*
X148150942Y-92245352D01*
X148154522Y-92278317D01*
X148158326Y-92311215D01*
X148162354Y-92344044D01*
X148166605Y-92376804D01*
X148171077Y-92409494D01*
X148175772Y-92442113D01*
X148180687Y-92474661D01*
X148185821Y-92507136D01*
X148191175Y-92539539D01*
X148196747Y-92571867D01*
X148202536Y-92604121D01*
X148208542Y-92636299D01*
X148214764Y-92668401D01*
X148221201Y-92700426D01*
X148227853Y-92732374D01*
X148234718Y-92764243D01*
X148241795Y-92796032D01*
X148249085Y-92827741D01*
X148256585Y-92859369D01*
X148264296Y-92890916D01*
X148272217Y-92922380D01*
X148280347Y-92953760D01*
X148288684Y-92985057D01*
X148297229Y-93016269D01*
X148305980Y-93047395D01*
X148314937Y-93078434D01*
X148324099Y-93109387D01*
X148333465Y-93140251D01*
X148343035Y-93171027D01*
X148352807Y-93201713D01*
X148362781Y-93232308D01*
X148372955Y-93262812D01*
X148383330Y-93293225D01*
X148393905Y-93323545D01*
X148404678Y-93353771D01*
X148415649Y-93383903D01*
X148426816Y-93413940D01*
X148438181Y-93443880D01*
X148449741Y-93473725D01*
X148461495Y-93503471D01*
X148473443Y-93533120D01*
X148485585Y-93562670D01*
X148497919Y-93592119D01*
X148510445Y-93621468D01*
X148523161Y-93650716D01*
X148536067Y-93679862D01*
X148549163Y-93708904D01*
X148562447Y-93737843D01*
X148575919Y-93766678D01*
X148589578Y-93795407D01*
X148603423Y-93824030D01*
X148617453Y-93852546D01*
X148631668Y-93880954D01*
X148646066Y-93909254D01*
X148660648Y-93937445D01*
X148675411Y-93965526D01*
X148690356Y-93993496D01*
X148705482Y-94021354D01*
X148720788Y-94049100D01*
X148736272Y-94076733D01*
X148751935Y-94104251D01*
X148767776Y-94131655D01*
X148783793Y-94158944D01*
X148799986Y-94186116D01*
X148816354Y-94213171D01*
X148832897Y-94240109D01*
X148849613Y-94266927D01*
X148866502Y-94293626D01*
X148883563Y-94320205D01*
X148900795Y-94346663D01*
X148918198Y-94372999D01*
X148935770Y-94399212D01*
X148953511Y-94425303D01*
X148971420Y-94451268D01*
X148989497Y-94477109D01*
X149007740Y-94502825D01*
X149026149Y-94528413D01*
X149044723Y-94553875D01*
X149063461Y-94579208D01*
X149082363Y-94604412D01*
X149101427Y-94629487D01*
X149120653Y-94654431D01*
X149140040Y-94679244D01*
X149159587Y-94703925D01*
X149179294Y-94728473D01*
X149199159Y-94752888D01*
X149219183Y-94777168D01*
X149239363Y-94801313D01*
X149259700Y-94825322D01*
X149280193Y-94849194D01*
X149300840Y-94872929D01*
X149321641Y-94896526D01*
X149342596Y-94919983D01*
X149363702Y-94943300D01*
X149384961Y-94966477D01*
X149406370Y-94989513D01*
X149427930Y-95012406D01*
X149449639Y-95035156D01*
X149471496Y-95057762D01*
X149493501Y-95080224D01*
X149515653Y-95102540D01*
X149537951Y-95124710D01*
X149560395Y-95146733D01*
X149582983Y-95168609D01*
X149605715Y-95190335D01*
X149628590Y-95211913D01*
X149651608Y-95233340D01*
X149674767Y-95254617D01*
X149698066Y-95275742D01*
X149721506Y-95296714D01*
X149745084Y-95317533D01*
X149768801Y-95338198D01*
X149792655Y-95358709D01*
X149816647Y-95379064D01*
X149840774Y-95399262D01*
X149865036Y-95419303D01*
X149889433Y-95439186D01*
X149913964Y-95458911D01*
X149938627Y-95478476D01*
X149963422Y-95497880D01*
X149988349Y-95517124D01*
X150013406Y-95536205D01*
X150038593Y-95555124D01*
X150063909Y-95573880D01*
X150089353Y-95592471D01*
X150114925Y-95610897D01*
X150140623Y-95629157D01*
X150166446Y-95647251D01*
X150192395Y-95665177D01*
X150218468Y-95682936D01*
X150244665Y-95700525D01*
X150270984Y-95717944D01*
X150297425Y-95735193D01*
X150323988Y-95752271D01*
X150350670Y-95769176D01*
X150377472Y-95785909D01*
X150404393Y-95802468D01*
X150431432Y-95818852D01*
X150458588Y-95835062D01*
X150485861Y-95851095D01*
X150513249Y-95866951D01*
X150540752Y-95882630D01*
X150568369Y-95898130D01*
X150596099Y-95913451D01*
X150623942Y-95928593D01*
X150651896Y-95943553D01*
X150679962Y-95958332D01*
X150708137Y-95972929D01*
X150736422Y-95987342D01*
X150764816Y-96001572D01*
X150793317Y-96015617D01*
X150821926Y-96029476D01*
X150850640Y-96043149D01*
X150879460Y-96056636D01*
X150908385Y-96069934D01*
X150937413Y-96083044D01*
X150966545Y-96095964D01*
X150995779Y-96108694D01*
X151025115Y-96121233D01*
X151054551Y-96133581D01*
X151084087Y-96145736D01*
X151113723Y-96157697D01*
X151143456Y-96169465D01*
X151173288Y-96181037D01*
X151203216Y-96192414D01*
X151233240Y-96203595D01*
X151263360Y-96214578D01*
X151293574Y-96225363D01*
X151323882Y-96235949D01*
X151354283Y-96246336D01*
X151384775Y-96256522D01*
X151415360Y-96266507D01*
X151446034Y-96276291D01*
X151476799Y-96285871D01*
X151507652Y-96295248D01*
X151538594Y-96304420D01*
X151569623Y-96313388D01*
X151600739Y-96322149D01*
X151631941Y-96330704D01*
X151663228Y-96339051D01*
X151694599Y-96347191D01*
X151726054Y-96355121D01*
X151757591Y-96362841D01*
X151789210Y-96370350D01*
X151820911Y-96377649D01*
X151852692Y-96384735D01*
X151884552Y-96391608D01*
X151916491Y-96398267D01*
X151948509Y-96404712D01*
X151980603Y-96410941D01*
X152012774Y-96416955D01*
X152045021Y-96422751D01*
X152077343Y-96428330D01*
X152109739Y-96433690D01*
X152142208Y-96438831D01*
X152174749Y-96443752D01*
X152207363Y-96448452D01*
X152240047Y-96452931D01*
X152272802Y-96457187D01*
X152305626Y-96461220D01*
X152338519Y-96465029D01*
X152371479Y-96468613D01*
X152404507Y-96471972D01*
X152437601Y-96475104D01*
X152470760Y-96478009D01*
X152503984Y-96480687D01*
X152537272Y-96483135D01*
X152570624Y-96485354D01*
X152604037Y-96487343D01*
X152637513Y-96489101D01*
X152671049Y-96490627D01*
X152704645Y-96491921D01*
X152738300Y-96492981D01*
X152772014Y-96493806D01*
X152805785Y-96494397D01*
X152839613Y-96494752D01*
X152873498Y-96494871D01*
X152909285Y-96494737D01*
X152945009Y-96494336D01*
X152980670Y-96493670D01*
X153016268Y-96492739D01*
X153051799Y-96491546D01*
X153087265Y-96490091D01*
X153122664Y-96488376D01*
X153157995Y-96486402D01*
X153193257Y-96484170D01*
X153228450Y-96481682D01*
X153263571Y-96478939D01*
X153298621Y-96475943D01*
X153333599Y-96472695D01*
X153368503Y-96469196D01*
X153403332Y-96465447D01*
X153438086Y-96461450D01*
X153472764Y-96457206D01*
X153480699Y-96484009D01*
X153488230Y-96511102D01*
X153495245Y-96538796D01*
X153501634Y-96567401D01*
X153507287Y-96597229D01*
X153512090Y-96628590D01*
X153515935Y-96661796D01*
X153518709Y-96697156D01*
X153520303Y-96734982D01*
X153520603Y-96775585D01*
X153519501Y-96819276D01*
X153517830Y-96850252D01*
X153515399Y-96882594D01*
X153512268Y-96916191D01*
X153508499Y-96950933D01*
X153504152Y-96986708D01*
X153469879Y-96991863D01*
X153435536Y-96996798D01*
X153401123Y-97001512D01*
X153366640Y-97006004D01*
X153332089Y-97010273D01*
X153297470Y-97014319D01*
X153262783Y-97018140D01*
X153228030Y-97021736D01*
X153193209Y-97025106D01*
X153158324Y-97028250D01*
X153123372Y-97031165D01*
X153088357Y-97033852D01*
X153053277Y-97036310D01*
X153018134Y-97038538D01*
X152982928Y-97040534D01*
X152947659Y-97042299D01*
X152912329Y-97043831D01*
X152876938Y-97045130D01*
X152841486Y-97046194D01*
X152805974Y-97047024D01*
X152770403Y-97047617D01*
X152734773Y-97047974D01*
X152699085Y-97048093D01*
X152665157Y-97047986D01*
X152631281Y-97047664D01*
X152597458Y-97047130D01*
X152563686Y-97046383D01*
X152529968Y-97045424D01*
X152496304Y-97044253D01*
X152462694Y-97042872D01*
X152429139Y-97041280D01*
X152395640Y-97039479D01*
X152362198Y-97037469D01*
X152328812Y-97035251D01*
X152295485Y-97032826D01*
X152262215Y-97030193D01*
X152229005Y-97027355D01*
X152195854Y-97024310D01*
X152162764Y-97021061D01*
X152129734Y-97017607D01*
X152096766Y-97013950D01*
X152063860Y-97010089D01*
X152031017Y-97006026D01*
X151998237Y-97001762D01*
X151965522Y-96997296D01*
X151932871Y-96992629D01*
X151900286Y-96987763D01*
X151867766Y-96982698D01*
X151835314Y-96977433D01*
X151802928Y-96971971D01*
X151770611Y-96966312D01*
X151738362Y-96960456D01*
X151706182Y-96954404D01*
X151674073Y-96948157D01*
X151642033Y-96941714D01*
X151610065Y-96935078D01*
X151578169Y-96928248D01*
X151546345Y-96921226D01*
X151514594Y-96914011D01*
X151482917Y-96906605D01*
X151451314Y-96899007D01*
X151419786Y-96891220D01*
X151388334Y-96883243D01*
X151356958Y-96875077D01*
X151325659Y-96866722D01*
X151294438Y-96858180D01*
X151263295Y-96849451D01*
X151232230Y-96840535D01*
X151201245Y-96831434D01*
X151170341Y-96822147D01*
X151139516Y-96812676D01*
X151108774Y-96803021D01*
X151078113Y-96793183D01*
X151047535Y-96783162D01*
X151017041Y-96772960D01*
X150986630Y-96762576D01*
X150956304Y-96752011D01*
X150926063Y-96741266D01*
X150895908Y-96730342D01*
X150865839Y-96719240D01*
X150835858Y-96707959D01*
X150805965Y-96696500D01*
X150776160Y-96684865D01*
X150746444Y-96673054D01*
X150716817Y-96661067D01*
X150687281Y-96648905D01*
X150657836Y-96636569D01*
X150628483Y-96624060D01*
X150599222Y-96611377D01*
X150570054Y-96598522D01*
X150540980Y-96585496D01*
X150511999Y-96572298D01*
X150483114Y-96558930D01*
X150454324Y-96545392D01*
X150425630Y-96531685D01*
X150397033Y-96517810D01*
X150368533Y-96503766D01*
X150340132Y-96489556D01*
X150311829Y-96475179D01*
X150283625Y-96460636D01*
X150255521Y-96445927D01*
X150227518Y-96431054D01*
X150199616Y-96416017D01*
X150171816Y-96400817D01*
X150144119Y-96385454D01*
X150116525Y-96369929D01*
X150089034Y-96354242D01*
X150061648Y-96338395D01*
X150034367Y-96322387D01*
X150007192Y-96306220D01*
X149980124Y-96289894D01*
X149953162Y-96273410D01*
X149926308Y-96256768D01*
X149899562Y-96239969D01*
X149872925Y-96223014D01*
X149846398Y-96205903D01*
X149819980Y-96188637D01*
X149793674Y-96171217D01*
X149767479Y-96153643D01*
X149741397Y-96135916D01*
X149715427Y-96118036D01*
X149689570Y-96100005D01*
X149663828Y-96081822D01*
X149638200Y-96063489D01*
X149612688Y-96045006D01*
X149587292Y-96026374D01*
X149562012Y-96007593D01*
X149536849Y-95988664D01*
X149511805Y-95969587D01*
X149486879Y-95950364D01*
X149462072Y-95930995D01*
X149437385Y-95911480D01*
X149412818Y-95891821D01*
X149388372Y-95872017D01*
X149364049Y-95852070D01*
X149339847Y-95831980D01*
X149315769Y-95811748D01*
X149291814Y-95791374D01*
X149267984Y-95770859D01*
X149244278Y-95750204D01*
X149220698Y-95729410D01*
X149197245Y-95708476D01*
X149173918Y-95687404D01*
X149150719Y-95666194D01*
X149127647Y-95644847D01*
X149104705Y-95623363D01*
X149081892Y-95601744D01*
X149059209Y-95579990D01*
X149036657Y-95558101D01*
X149014236Y-95536078D01*
X148991947Y-95513921D01*
X148969791Y-95491633D01*
X148947768Y-95469212D01*
X148925879Y-95446659D01*
X148904125Y-95423977D01*
X148882505Y-95401164D01*
X148861022Y-95378221D01*
X148839675Y-95355150D01*
X148818465Y-95331951D01*
X148797393Y-95308624D01*
X148776459Y-95285170D01*
X148755664Y-95261590D01*
X148735009Y-95237885D01*
X148714495Y-95214055D01*
X148694121Y-95190100D01*
X148673889Y-95166021D01*
X148653799Y-95141820D01*
X148633852Y-95117496D01*
X148614048Y-95093051D01*
X148594389Y-95068484D01*
X148574874Y-95043797D01*
X148555505Y-95018990D01*
X148536282Y-94994064D01*
X148517205Y-94969019D01*
X148498276Y-94943857D01*
X148479495Y-94918577D01*
X148460863Y-94893181D01*
X148442380Y-94867668D01*
X148424047Y-94842041D01*
X148405864Y-94816298D01*
X148387833Y-94790442D01*
X148369953Y-94764472D01*
X148352226Y-94738389D01*
X148334652Y-94712194D01*
X148317232Y-94685888D01*
X148299966Y-94659471D01*
X148282855Y-94632944D01*
X148265900Y-94606307D01*
X148249101Y-94579561D01*
X148232459Y-94552707D01*
X148215975Y-94525745D01*
X148199649Y-94498676D01*
X148183482Y-94471501D01*
X148167474Y-94444220D01*
X148151627Y-94416834D01*
X148135940Y-94389344D01*
X148120415Y-94361750D01*
X148105052Y-94334052D01*
X148089852Y-94306252D01*
X148074815Y-94278350D01*
X148059942Y-94250347D01*
X148045234Y-94222244D01*
X148030691Y-94194040D01*
X148016314Y-94165737D01*
X148002103Y-94137335D01*
X147988060Y-94108836D01*
X147974184Y-94080239D01*
X147960477Y-94051545D01*
X147946939Y-94022755D01*
X147933571Y-93993869D01*
X147920374Y-93964889D01*
X147907347Y-93935815D01*
X147894492Y-93906646D01*
X147881810Y-93877385D01*
X147869300Y-93848032D01*
X147856964Y-93818587D01*
X147844802Y-93789051D01*
X147832816Y-93759425D01*
X147821004Y-93729709D01*
X147809369Y-93699904D01*
X147797911Y-93670011D01*
X147786630Y-93640029D01*
X147775527Y-93609961D01*
X147764603Y-93579806D01*
X147753859Y-93549565D01*
X147743294Y-93519239D01*
X147732910Y-93488828D01*
X147722707Y-93458334D01*
X147712687Y-93427756D01*
X147702848Y-93397095D01*
X147693194Y-93366352D01*
X147683722Y-93335528D01*
X147674436Y-93304623D01*
X147665334Y-93273639D01*
X147656419Y-93242574D01*
X147647690Y-93211431D01*
X147639147Y-93180210D01*
X147630793Y-93148911D01*
X147622627Y-93117535D01*
X147614650Y-93086083D01*
X147606862Y-93054555D01*
X147599265Y-93022952D01*
X147591859Y-92991275D01*
X147584644Y-92959524D01*
X147577621Y-92927700D01*
X147570792Y-92895804D01*
X147564155Y-92863836D01*
X147557713Y-92831796D01*
X147551466Y-92799687D01*
X147545414Y-92767507D01*
X147539558Y-92735258D01*
X147533898Y-92702941D01*
X147528436Y-92670555D01*
X147523172Y-92638103D01*
X147518107Y-92605583D01*
X147513240Y-92572998D01*
X147508574Y-92540347D01*
X147504108Y-92507632D01*
X147499843Y-92474852D01*
X147495780Y-92442009D01*
X147491920Y-92409103D01*
X147488263Y-92376135D01*
X147484809Y-92343106D01*
X147481559Y-92310015D01*
X147478515Y-92276864D01*
X147475676Y-92243654D01*
X147473044Y-92210385D01*
X147470618Y-92177057D01*
X147468400Y-92143672D01*
X147466391Y-92110229D01*
X147464590Y-92076730D01*
X147462998Y-92043176D01*
X147461617Y-92009566D01*
X147460446Y-91975902D01*
X147459487Y-91942183D01*
X147458740Y-91908412D01*
X147458205Y-91874588D01*
X147457884Y-91840712D01*
X147457777Y-91806785D01*
X147457828Y-91806785D01*
X147457944Y-91771505D01*
X147458292Y-91736279D01*
X147458869Y-91701110D01*
X147459677Y-91665997D01*
X147460714Y-91630942D01*
X147461980Y-91595944D01*
X147463473Y-91561006D01*
X147465194Y-91526127D01*
X147467140Y-91491308D01*
X147469313Y-91456551D01*
X147471710Y-91421855D01*
X147474331Y-91387221D01*
X147477176Y-91352651D01*
X147480243Y-91318144D01*
X147483533Y-91283702D01*
X147487044Y-91249326D01*
X147490775Y-91215015D01*
X147494726Y-91180772D01*
X147498897Y-91146595D01*
X147503285Y-91112487D01*
X147507892Y-91078448D01*
X147512715Y-91044479D01*
X147517755Y-91010580D01*
X147523010Y-90976752D01*
X147528480Y-90942996D01*
X147534164Y-90909312D01*
X147540061Y-90875702D01*
X147546171Y-90842165D01*
X147552493Y-90808704D01*
X147559026Y-90775318D01*
X147565770Y-90742008D01*
X147572723Y-90708775D01*
X147579885Y-90675619D01*
X147587256Y-90642542D01*
X147594835Y-90609544D01*
X147602620Y-90576625D01*
X147610611Y-90543788D01*
X147618808Y-90511031D01*
X147627209Y-90478356D01*
X147635815Y-90445764D01*
X147644624Y-90413256D01*
X147653635Y-90380831D01*
X147662848Y-90348492D01*
X147672262Y-90316237D01*
X147681877Y-90284070D01*
X147691691Y-90251989D01*
X147701705Y-90219996D01*
X147711916Y-90188091D01*
X147722325Y-90156276D01*
X147732931Y-90124550D01*
X147743733Y-90092915D01*
X147754731Y-90061371D01*
X147765922Y-90029920D01*
X147777308Y-89998561D01*
X147788887Y-89967296D01*
X147800659Y-89936125D01*
X147812622Y-89905049D01*
X147824776Y-89874068D01*
X147837121Y-89843184D01*
X147849655Y-89812397D01*
X147862378Y-89781708D01*
X147875289Y-89751117D01*
X147888388Y-89720626D01*
X147901673Y-89690235D01*
X147915145Y-89659944D01*
X147928801Y-89629755D01*
X147942643Y-89599669D01*
X147956668Y-89569685D01*
X147970876Y-89539804D01*
X147985266Y-89510028D01*
X147999838Y-89480357D01*
X148014591Y-89450792D01*
X148029525Y-89421333D01*
X148044638Y-89391982D01*
X148059929Y-89362739D01*
X148075399Y-89333604D01*
X148091046Y-89304578D01*
X148106870Y-89275663D01*
X148122869Y-89246859D01*
X148139044Y-89218166D01*
X148155393Y-89189585D01*
X148171916Y-89161118D01*
X148188612Y-89132764D01*
X148205481Y-89104525D01*
X148222521Y-89076401D01*
X148239732Y-89048392D01*
X148257112Y-89020501D01*
X148274663Y-88992726D01*
X148292382Y-88965070D01*
X148310269Y-88937533D01*
X148328323Y-88910115D01*
X148346544Y-88882817D01*
X148364931Y-88855640D01*
X148383483Y-88828585D01*
X148402199Y-88801653D01*
X148421079Y-88774843D01*
X148440121Y-88748158D01*
X148459326Y-88721597D01*
X148478693Y-88695161D01*
X148498220Y-88668851D01*
X148517907Y-88642668D01*
X148537754Y-88616613D01*
X148557759Y-88590685D01*
X148577923Y-88564887D01*
X148598243Y-88539218D01*
X148618720Y-88513680D01*
X148639353Y-88488272D01*
X148660140Y-88462997D01*
X148681082Y-88437854D01*
X148702178Y-88412844D01*
X148723426Y-88387968D01*
X148744826Y-88363227D01*
X148766378Y-88338621D01*
X148788081Y-88314152D01*
X148809934Y-88289819D01*
X148831935Y-88265624D01*
X148854086Y-88241567D01*
X148876384Y-88217649D01*
X148898829Y-88193871D01*
X148921421Y-88170234D01*
X148944158Y-88146737D01*
X148967041Y-88123383D01*
X148990067Y-88100171D01*
X149013237Y-88077102D01*
X149036550Y-88054178D01*
X149060005Y-88031398D01*
X149083601Y-88008764D01*
X149107338Y-87986276D01*
X149131214Y-87963936D01*
X149155230Y-87941743D01*
X149179384Y-87919698D01*
X149203676Y-87897802D01*
X149228106Y-87876056D01*
X149252671Y-87854461D01*
X149277372Y-87833018D01*
X149302208Y-87811726D01*
X149327178Y-87790587D01*
X149352281Y-87769601D01*
X149377517Y-87748770D01*
X149402885Y-87728093D01*
X149428384Y-87707573D01*
X149454014Y-87687208D01*
X149479773Y-87667001D01*
X149505662Y-87646951D01*
X149531679Y-87627060D01*
X149557824Y-87607329D01*
X149584096Y-87587757D01*
X149610493Y-87568346D01*
X149637017Y-87549096D01*
X149663665Y-87530009D01*
X149690437Y-87511084D01*
X149717332Y-87492323D01*
X149744351Y-87473726D01*
X149771491Y-87455295D01*
X149798752Y-87437029D01*
X149826133Y-87418929D01*
X149853635Y-87400997D01*
X149881255Y-87383233D01*
X149908994Y-87365637D01*
X149936850Y-87348211D01*
X149964823Y-87330955D01*
X149992912Y-87313870D01*
X150021117Y-87296956D01*
X150049436Y-87280214D01*
X150077869Y-87263646D01*
X150106416Y-87247251D01*
X150135075Y-87231030D01*
X150163845Y-87214985D01*
X150192727Y-87199116D01*
X150221720Y-87183423D01*
X150250822Y-87167908D01*
X150280032Y-87152570D01*
X150309351Y-87137412D01*
X150338778Y-87122432D01*
X150368311Y-87107633D01*
X150397951Y-87093015D01*
X150427695Y-87078579D01*
X150457545Y-87064325D01*
X150487498Y-87050254D01*
X150517554Y-87036367D01*
X150547713Y-87022665D01*
X150577973Y-87009147D01*
X150608335Y-86995816D01*
X150638797Y-86982672D01*
X150669358Y-86969715D01*
X150700018Y-86956946D01*
X150730776Y-86944366D01*
X150761632Y-86931975D01*
X150792584Y-86919775D01*
X150823633Y-86907766D01*
X150854776Y-86895949D01*
X150886014Y-86884324D01*
X150917346Y-86872892D01*
X150948771Y-86861655D01*
X150980289Y-86850612D01*
X151011898Y-86839764D01*
X151043597Y-86829113D01*
X151075388Y-86818658D01*
X151107267Y-86808401D01*
X151139235Y-86798342D01*
X151171292Y-86788482D01*
X151203436Y-86778822D01*
X151235666Y-86769362D01*
X151267982Y-86760104D01*
X151300383Y-86751047D01*
X151318030Y-86779937D01*
G37*
G36*
X147140203Y-88675493D02*
G01*
X147122073Y-88704610D01*
X147104099Y-88733834D01*
X147086281Y-88763163D01*
X147068620Y-88792598D01*
X147051116Y-88822137D01*
X147033770Y-88851780D01*
X147016582Y-88881527D01*
X146999553Y-88911377D01*
X146982684Y-88941328D01*
X146965975Y-88971382D01*
X146949427Y-89001536D01*
X146933040Y-89031792D01*
X146916815Y-89062147D01*
X146900752Y-89092601D01*
X146884853Y-89123155D01*
X146869117Y-89153806D01*
X146853546Y-89184555D01*
X146838139Y-89215402D01*
X146822898Y-89246344D01*
X146807823Y-89277383D01*
X146792915Y-89308517D01*
X146778174Y-89339746D01*
X146763600Y-89371069D01*
X146749195Y-89402486D01*
X146734959Y-89433995D01*
X146720893Y-89465598D01*
X146706996Y-89497292D01*
X146693271Y-89529077D01*
X146679716Y-89560953D01*
X146666334Y-89592919D01*
X146653124Y-89624975D01*
X146640087Y-89657120D01*
X146627224Y-89689353D01*
X146614535Y-89721674D01*
X146602021Y-89754082D01*
X146589682Y-89786577D01*
X146577519Y-89819158D01*
X146565533Y-89851824D01*
X146553724Y-89884576D01*
X146542093Y-89917412D01*
X146530640Y-89950331D01*
X146519366Y-89983334D01*
X146508271Y-90016420D01*
X146497357Y-90049587D01*
X146486623Y-90082836D01*
X146476071Y-90116166D01*
X146465700Y-90149576D01*
X146455512Y-90183066D01*
X146445507Y-90216635D01*
X146435686Y-90250283D01*
X146426048Y-90284009D01*
X146416596Y-90317812D01*
X146407329Y-90351692D01*
X146398248Y-90385648D01*
X146389353Y-90419680D01*
X146380646Y-90453787D01*
X146372126Y-90487969D01*
X146363795Y-90522225D01*
X146355652Y-90556554D01*
X146347699Y-90590955D01*
X146339936Y-90625430D01*
X146332364Y-90659975D01*
X146324983Y-90694592D01*
X146317793Y-90729279D01*
X146310796Y-90764036D01*
X146303992Y-90798863D01*
X146297382Y-90833758D01*
X146290966Y-90868722D01*
X146284745Y-90903753D01*
X146278719Y-90938851D01*
X146272888Y-90974015D01*
X146267255Y-91009246D01*
X146261818Y-91044542D01*
X146256579Y-91079902D01*
X146251539Y-91115327D01*
X146246697Y-91150815D01*
X146242055Y-91186366D01*
X146237613Y-91221979D01*
X146233371Y-91257655D01*
X146229331Y-91293391D01*
X146225492Y-91329189D01*
X146221856Y-91365046D01*
X146218422Y-91400963D01*
X146215192Y-91436939D01*
X146212167Y-91472973D01*
X146209346Y-91509065D01*
X146206730Y-91545214D01*
X146204320Y-91581420D01*
X146202117Y-91617682D01*
X146200121Y-91653999D01*
X146198332Y-91690371D01*
X146196752Y-91726798D01*
X146195380Y-91763278D01*
X146194218Y-91799812D01*
X146193266Y-91836398D01*
X146192524Y-91873036D01*
X146191994Y-91909725D01*
X146191675Y-91946465D01*
X146191569Y-91983256D01*
X146191660Y-92017243D01*
X146191931Y-92051186D01*
X146192384Y-92085087D01*
X146193016Y-92118944D01*
X146193828Y-92152757D01*
X146194819Y-92186525D01*
X146195989Y-92220249D01*
X146197338Y-92253927D01*
X146198864Y-92287559D01*
X146200567Y-92321144D01*
X146202448Y-92354683D01*
X146204505Y-92388174D01*
X146206738Y-92421618D01*
X146209146Y-92455013D01*
X146211730Y-92488360D01*
X146214488Y-92521657D01*
X146217420Y-92554905D01*
X146220527Y-92588103D01*
X146223806Y-92621250D01*
X146227258Y-92654346D01*
X146230882Y-92687391D01*
X146234679Y-92720384D01*
X146238647Y-92753325D01*
X146242785Y-92786213D01*
X146247095Y-92819047D01*
X146251574Y-92851828D01*
X146256223Y-92884555D01*
X146261041Y-92917227D01*
X146266027Y-92949843D01*
X146271182Y-92982405D01*
X146276505Y-93014910D01*
X146281995Y-93047359D01*
X146287652Y-93079751D01*
X146293475Y-93112085D01*
X146299464Y-93144362D01*
X146305619Y-93176580D01*
X146311938Y-93208740D01*
X146318422Y-93240840D01*
X146325070Y-93272881D01*
X146331882Y-93304862D01*
X146338857Y-93336782D01*
X146345995Y-93368641D01*
X146353295Y-93400438D01*
X146360757Y-93432173D01*
X146368380Y-93463847D01*
X146376164Y-93495457D01*
X146384108Y-93527003D01*
X146392213Y-93558486D01*
X146400477Y-93589905D01*
X146408900Y-93621259D01*
X146417481Y-93652548D01*
X146426221Y-93683771D01*
X146435118Y-93714929D01*
X146444173Y-93746019D01*
X146453384Y-93777043D01*
X146462752Y-93807999D01*
X146472276Y-93838887D01*
X146481955Y-93869707D01*
X146491788Y-93900458D01*
X146501777Y-93931140D01*
X146511919Y-93961752D01*
X146522215Y-93992293D01*
X146532664Y-94022765D01*
X146543266Y-94053165D01*
X146554019Y-94083493D01*
X146564925Y-94113749D01*
X146575982Y-94143933D01*
X146587189Y-94174044D01*
X146598547Y-94204082D01*
X146610055Y-94234045D01*
X146621712Y-94263935D01*
X146633519Y-94293749D01*
X146645473Y-94323488D01*
X146657576Y-94353152D01*
X146669827Y-94382739D01*
X146682224Y-94412250D01*
X146694768Y-94441684D01*
X146707459Y-94471040D01*
X146720295Y-94500318D01*
X146733277Y-94529518D01*
X146746403Y-94558639D01*
X146759674Y-94587680D01*
X146773089Y-94616642D01*
X146786647Y-94645523D01*
X146800348Y-94674324D01*
X146814192Y-94703043D01*
X146828178Y-94731681D01*
X146842305Y-94760237D01*
X146856574Y-94788710D01*
X146870984Y-94817100D01*
X146885533Y-94845407D01*
X146900223Y-94873629D01*
X146915052Y-94901768D01*
X146930019Y-94929821D01*
X146945126Y-94957789D01*
X146960370Y-94985671D01*
X146975752Y-95013467D01*
X146991270Y-95041177D01*
X147006926Y-95068799D01*
X147022717Y-95096334D01*
X147038645Y-95123780D01*
X147054707Y-95151138D01*
X147070904Y-95178408D01*
X147087236Y-95205587D01*
X147103701Y-95232677D01*
X147120300Y-95259676D01*
X147137032Y-95286585D01*
X147153896Y-95313402D01*
X147170892Y-95340128D01*
X147188020Y-95366761D01*
X147205279Y-95393302D01*
X147222669Y-95419750D01*
X147240188Y-95446104D01*
X147257838Y-95472364D01*
X147275617Y-95498530D01*
X147293524Y-95524600D01*
X147311560Y-95550576D01*
X147329724Y-95576455D01*
X147348015Y-95602238D01*
X147366434Y-95627925D01*
X147384978Y-95653514D01*
X147403649Y-95679006D01*
X147422446Y-95704399D01*
X147441368Y-95729694D01*
X147460414Y-95754890D01*
X147479584Y-95779986D01*
X147498879Y-95804982D01*
X147518296Y-95829878D01*
X147537837Y-95854673D01*
X147557500Y-95879367D01*
X147577285Y-95903959D01*
X147597191Y-95928448D01*
X147617219Y-95952835D01*
X147637367Y-95977119D01*
X147657635Y-96001299D01*
X147678023Y-96025375D01*
X147698529Y-96049346D01*
X147719155Y-96073213D01*
X147739899Y-96096974D01*
X147760761Y-96120629D01*
X147781740Y-96144177D01*
X147802836Y-96167619D01*
X147824049Y-96190954D01*
X147845377Y-96214181D01*
X147866821Y-96237299D01*
X147888380Y-96260309D01*
X147910054Y-96283210D01*
X147931842Y-96306002D01*
X147953744Y-96328683D01*
X147975758Y-96351253D01*
X147997886Y-96373713D01*
X148020126Y-96396062D01*
X148042478Y-96418298D01*
X148064941Y-96440422D01*
X148087515Y-96462434D01*
X148110200Y-96484332D01*
X148132995Y-96506116D01*
X148155899Y-96527787D01*
X148178912Y-96549342D01*
X148202034Y-96570783D01*
X148225265Y-96592108D01*
X148248603Y-96613317D01*
X148272048Y-96634410D01*
X148295600Y-96655386D01*
X148319258Y-96676244D01*
X148343023Y-96696984D01*
X148366893Y-96717607D01*
X148390868Y-96738110D01*
X148414947Y-96758495D01*
X148439131Y-96778759D01*
X148463418Y-96798904D01*
X148487808Y-96818928D01*
X148512301Y-96838831D01*
X148536896Y-96858613D01*
X148561593Y-96878272D01*
X148586391Y-96897809D01*
X148611291Y-96917224D01*
X148636290Y-96936515D01*
X148661390Y-96955682D01*
X148686589Y-96974725D01*
X148711887Y-96993643D01*
X148737284Y-97012437D01*
X148762779Y-97031104D01*
X148788371Y-97049646D01*
X148814061Y-97068061D01*
X148839847Y-97086349D01*
X148865730Y-97104509D01*
X148891709Y-97122542D01*
X148917783Y-97140446D01*
X148943951Y-97158222D01*
X148970215Y-97175868D01*
X148996572Y-97193385D01*
X149023023Y-97210771D01*
X149049567Y-97228027D01*
X149076204Y-97245152D01*
X149102932Y-97262145D01*
X149129753Y-97279006D01*
X149156665Y-97295734D01*
X149183667Y-97312330D01*
X149210760Y-97328792D01*
X149237943Y-97345121D01*
X149265215Y-97361315D01*
X149292576Y-97377374D01*
X149320026Y-97393299D01*
X149347563Y-97409087D01*
X149375189Y-97424740D01*
X149402901Y-97440255D01*
X149430700Y-97455634D01*
X149458585Y-97470875D01*
X149486556Y-97485979D01*
X149514613Y-97500943D01*
X149542754Y-97515769D01*
X149570980Y-97530456D01*
X149599289Y-97545003D01*
X149627682Y-97559410D01*
X149656158Y-97573675D01*
X149684716Y-97587800D01*
X149713357Y-97601783D01*
X149742079Y-97615624D01*
X149770883Y-97629323D01*
X149799767Y-97642878D01*
X149828731Y-97656290D01*
X149857775Y-97669558D01*
X149886899Y-97682682D01*
X149916101Y-97695661D01*
X149945382Y-97708495D01*
X149974741Y-97721182D01*
X150004177Y-97733724D01*
X150033691Y-97746119D01*
X150063281Y-97758367D01*
X150092947Y-97770467D01*
X150122689Y-97782420D01*
X150152506Y-97794223D01*
X150182397Y-97805878D01*
X150212363Y-97817384D01*
X150242403Y-97828739D01*
X150272517Y-97839944D01*
X150302703Y-97850999D01*
X150332961Y-97861902D01*
X150363292Y-97872654D01*
X150393694Y-97883253D01*
X150424168Y-97893700D01*
X150454712Y-97903993D01*
X150485326Y-97914133D01*
X150516010Y-97924120D01*
X150546763Y-97933951D01*
X150577585Y-97943628D01*
X150608475Y-97953150D01*
X150639434Y-97962515D01*
X150670459Y-97971725D01*
X150701552Y-97980777D01*
X150732711Y-97989673D01*
X150763936Y-97998410D01*
X150795227Y-98006990D01*
X150826583Y-98015411D01*
X150858003Y-98023673D01*
X150889488Y-98031776D01*
X150921037Y-98039719D01*
X150952649Y-98047501D01*
X150984324Y-98055122D01*
X151016061Y-98062582D01*
X151047860Y-98069881D01*
X151079720Y-98077017D01*
X151111642Y-98083990D01*
X151143624Y-98090801D01*
X151175666Y-98097447D01*
X151207768Y-98103930D01*
X151239929Y-98110248D01*
X151272149Y-98116401D01*
X151304427Y-98122389D01*
X151336763Y-98128211D01*
X151369156Y-98133866D01*
X151401607Y-98139355D01*
X151434113Y-98144676D01*
X151466676Y-98149830D01*
X151499294Y-98154816D01*
X151531967Y-98159632D01*
X151564695Y-98164280D01*
X151597477Y-98168758D01*
X151630312Y-98173067D01*
X151663201Y-98177204D01*
X151696143Y-98181171D01*
X151729136Y-98184967D01*
X151762182Y-98188590D01*
X151795279Y-98192042D01*
X151828427Y-98195320D01*
X151861626Y-98198425D01*
X151894875Y-98201357D01*
X151928173Y-98204115D01*
X151961520Y-98206698D01*
X151994916Y-98209106D01*
X152028360Y-98211338D01*
X152061852Y-98213394D01*
X152095391Y-98215274D01*
X152128977Y-98216978D01*
X152162609Y-98218503D01*
X152196288Y-98219851D01*
X152230011Y-98221021D01*
X152263780Y-98222012D01*
X152297593Y-98222824D01*
X152331450Y-98223456D01*
X152365351Y-98223909D01*
X152399295Y-98224180D01*
X152433282Y-98224271D01*
X152469820Y-98224166D01*
X152506309Y-98223851D01*
X152542748Y-98223328D01*
X152579135Y-98222596D01*
X152615471Y-98221657D01*
X152651754Y-98220510D01*
X152687985Y-98219157D01*
X152724163Y-98217597D01*
X152760287Y-98215832D01*
X152796356Y-98213862D01*
X152832371Y-98211688D01*
X152868330Y-98209311D01*
X152904233Y-98206729D01*
X152940080Y-98203946D01*
X152975869Y-98200960D01*
X153011601Y-98197773D01*
X153047274Y-98194385D01*
X153082889Y-98190797D01*
X153118444Y-98187009D01*
X153153939Y-98183022D01*
X153189374Y-98178836D01*
X153224748Y-98174453D01*
X153260060Y-98169872D01*
X153295310Y-98165094D01*
X153330497Y-98160120D01*
X153365621Y-98154950D01*
X153400681Y-98149585D01*
X153435677Y-98144026D01*
X153470608Y-98138273D01*
X153505473Y-98132326D01*
X153540272Y-98126187D01*
X153575004Y-98119855D01*
X153609669Y-98113332D01*
X153644267Y-98106617D01*
X153678796Y-98099713D01*
X153713257Y-98092618D01*
X153747647Y-98085334D01*
X153781968Y-98077861D01*
X153816219Y-98070200D01*
X153850398Y-98062351D01*
X153884506Y-98054316D01*
X153918541Y-98046094D01*
X153952504Y-98037686D01*
X153986393Y-98029093D01*
X154020208Y-98020315D01*
X154053949Y-98011353D01*
X154087615Y-98002207D01*
X154121205Y-97992879D01*
X154154720Y-97983368D01*
X154188157Y-97973675D01*
X154221517Y-97963801D01*
X154254800Y-97953746D01*
X154288004Y-97943511D01*
X154321129Y-97933097D01*
X154354175Y-97922503D01*
X154387141Y-97911732D01*
X154420026Y-97900782D01*
X154452830Y-97889656D01*
X154485552Y-97878352D01*
X154518192Y-97866873D01*
X154550749Y-97855218D01*
X154583223Y-97843388D01*
X154615613Y-97831384D01*
X154647918Y-97819206D01*
X154680138Y-97806855D01*
X154712273Y-97794331D01*
X154744321Y-97781636D01*
X154776283Y-97768768D01*
X154808158Y-97755730D01*
X154839944Y-97742522D01*
X154871642Y-97729144D01*
X154903252Y-97715597D01*
X154934771Y-97701881D01*
X154966201Y-97687997D01*
X154997540Y-97673946D01*
X155028788Y-97659728D01*
X155059944Y-97645344D01*
X155091008Y-97630794D01*
X155121979Y-97616079D01*
X155152856Y-97601200D01*
X155183639Y-97586156D01*
X155214328Y-97570949D01*
X155244922Y-97555580D01*
X155275420Y-97540048D01*
X155305822Y-97524354D01*
X155336127Y-97508499D01*
X155308984Y-97529145D01*
X155281709Y-97549838D01*
X155254310Y-97570574D01*
X155226793Y-97591350D01*
X155199164Y-97612163D01*
X155171428Y-97633009D01*
X155143593Y-97653884D01*
X155115665Y-97674784D01*
X155087649Y-97695707D01*
X155059551Y-97716648D01*
X155031379Y-97737605D01*
X155003138Y-97758573D01*
X154974834Y-97779549D01*
X154946474Y-97800530D01*
X154918063Y-97821511D01*
X154889608Y-97842489D01*
X154861116Y-97863462D01*
X154832592Y-97884424D01*
X154804042Y-97905373D01*
X154775473Y-97926306D01*
X154746890Y-97947217D01*
X154718301Y-97968105D01*
X154689711Y-97988965D01*
X154661127Y-98009794D01*
X154632554Y-98030588D01*
X154603999Y-98051344D01*
X154575468Y-98072058D01*
X154546967Y-98092727D01*
X154518503Y-98113347D01*
X154474409Y-98145239D01*
X154430452Y-98176969D01*
X154386654Y-98208522D01*
X154343038Y-98239886D01*
X154299626Y-98271045D01*
X154256440Y-98301986D01*
X154213503Y-98332695D01*
X154170836Y-98363159D01*
X154128463Y-98393363D01*
X154086405Y-98423293D01*
X154044685Y-98452935D01*
X154003325Y-98482276D01*
X153962347Y-98511302D01*
X153921775Y-98539998D01*
X153881629Y-98568351D01*
X153841933Y-98596347D01*
X153802709Y-98623973D01*
X153763979Y-98651213D01*
X153725766Y-98678054D01*
X153688091Y-98704483D01*
X153650978Y-98730485D01*
X153614447Y-98756047D01*
X153578523Y-98781154D01*
X153543227Y-98805793D01*
X153508581Y-98829949D01*
X153474608Y-98853610D01*
X153441330Y-98876760D01*
X153408770Y-98899387D01*
X153376949Y-98921476D01*
X153345891Y-98943013D01*
X153315617Y-98963984D01*
X153286149Y-98984376D01*
X153257511Y-99004174D01*
X153229724Y-99023365D01*
X153202811Y-99041934D01*
X153176794Y-99059869D01*
X153151696Y-99077154D01*
X153127538Y-99093776D01*
X153104343Y-99109722D01*
X153082133Y-99124976D01*
X153060932Y-99139526D01*
X153040760Y-99153357D01*
X153021641Y-99166456D01*
X153003596Y-99178809D01*
X152986649Y-99190401D01*
X152970821Y-99201218D01*
X152956134Y-99211248D01*
X152942612Y-99220475D01*
X152930276Y-99228887D01*
X152919148Y-99236469D01*
X152909252Y-99243207D01*
X152900609Y-99249087D01*
X152893241Y-99254096D01*
X152887172Y-99258219D01*
X152882423Y-99261443D01*
X152879017Y-99263754D01*
X152876975Y-99265137D01*
X152846525Y-99280510D01*
X152816078Y-99295872D01*
X152785627Y-99311214D01*
X152755166Y-99326529D01*
X152724687Y-99341808D01*
X152694182Y-99357043D01*
X152663646Y-99372226D01*
X152633071Y-99387349D01*
X152602450Y-99402402D01*
X152571776Y-99417379D01*
X152541041Y-99432271D01*
X152510240Y-99447069D01*
X152479365Y-99461766D01*
X152448408Y-99476353D01*
X152417363Y-99490822D01*
X152386222Y-99505164D01*
X152354980Y-99519372D01*
X152323628Y-99533438D01*
X152292160Y-99547352D01*
X152260568Y-99561107D01*
X152228845Y-99574695D01*
X152196986Y-99588107D01*
X152164981Y-99601336D01*
X152132825Y-99614372D01*
X152100511Y-99627208D01*
X152066230Y-99640531D01*
X152031759Y-99653630D01*
X151997127Y-99666495D01*
X151962361Y-99679118D01*
X151927491Y-99691490D01*
X151892546Y-99703603D01*
X151857555Y-99715448D01*
X151822547Y-99727015D01*
X151787549Y-99738296D01*
X151752592Y-99749282D01*
X151717704Y-99759965D01*
X151682915Y-99770335D01*
X151648252Y-99780384D01*
X151613744Y-99790103D01*
X151579421Y-99799482D01*
X151545312Y-99808514D01*
X151511445Y-99817190D01*
X151477849Y-99825500D01*
X151444553Y-99833436D01*
X151411586Y-99840989D01*
X151378977Y-99848150D01*
X151346754Y-99854910D01*
X151314947Y-99861261D01*
X151283584Y-99867194D01*
X151245748Y-99873886D01*
X151208527Y-99879955D01*
X151171881Y-99885436D01*
X151135773Y-99890364D01*
X151100164Y-99894774D01*
X151065017Y-99898701D01*
X151030293Y-99902179D01*
X150995953Y-99905243D01*
X150961960Y-99907928D01*
X150928276Y-99910270D01*
X150894862Y-99912302D01*
X150861680Y-99914060D01*
X150828692Y-99915579D01*
X150795859Y-99916892D01*
X150763144Y-99918036D01*
X150730508Y-99919046D01*
X150697913Y-99919955D01*
X150665321Y-99920799D01*
X150632694Y-99921612D01*
X150604450Y-99902898D01*
X150576105Y-99884254D01*
X150547650Y-99865703D01*
X150519074Y-99847265D01*
X150490369Y-99828962D01*
X150461525Y-99810817D01*
X150432532Y-99792849D01*
X150403382Y-99775081D01*
X150374065Y-99757533D01*
X150344571Y-99740229D01*
X150314433Y-99722886D01*
X150284189Y-99705786D01*
X150253844Y-99688918D01*
X150223401Y-99672275D01*
X150192865Y-99655846D01*
X150162241Y-99639624D01*
X150131532Y-99623599D01*
X150100743Y-99607762D01*
X150069878Y-99592105D01*
X150038942Y-99576618D01*
X150007938Y-99561292D01*
X149976871Y-99546119D01*
X149945746Y-99531089D01*
X149914566Y-99516194D01*
X149883336Y-99501424D01*
X149852059Y-99486771D01*
X149820741Y-99472225D01*
X149789386Y-99457778D01*
X149757998Y-99443421D01*
X149726580Y-99429145D01*
X149695139Y-99414940D01*
X149663676Y-99400799D01*
X149632198Y-99386711D01*
X149600708Y-99372668D01*
X149569211Y-99358661D01*
X149537710Y-99344681D01*
X149506210Y-99330719D01*
X149474716Y-99316766D01*
X149443232Y-99302813D01*
X149432726Y-99277795D01*
X149422119Y-99252630D01*
X149411339Y-99227241D01*
X149400319Y-99201554D01*
X149388987Y-99175494D01*
X149377274Y-99148984D01*
X149365110Y-99121950D01*
X149352426Y-99094317D01*
X149339150Y-99066010D01*
X149325215Y-99036953D01*
X149310549Y-99007071D01*
X149295083Y-98976290D01*
X149278747Y-98944532D01*
X149261472Y-98911725D01*
X149243187Y-98877792D01*
X149223823Y-98842657D01*
X149203309Y-98806247D01*
X149181577Y-98768486D01*
X149158556Y-98729298D01*
X149134176Y-98688608D01*
X149108368Y-98646342D01*
X149092761Y-98621130D01*
X149076699Y-98595411D01*
X149060199Y-98569210D01*
X149043276Y-98542551D01*
X149025948Y-98515459D01*
X149008232Y-98487959D01*
X148990143Y-98460076D01*
X148971699Y-98431834D01*
X148952915Y-98403260D01*
X148933809Y-98374376D01*
X148914398Y-98345209D01*
X148894697Y-98315783D01*
X148874724Y-98286123D01*
X148854495Y-98256254D01*
X148834027Y-98226201D01*
X148813335Y-98195988D01*
X148792438Y-98165641D01*
X148771351Y-98135184D01*
X148750092Y-98104642D01*
X148728676Y-98074040D01*
X148707120Y-98043403D01*
X148685441Y-98012756D01*
X148663656Y-97982124D01*
X148641781Y-97951531D01*
X148619833Y-97921002D01*
X148597828Y-97890562D01*
X148575782Y-97860237D01*
X148553714Y-97830050D01*
X148531638Y-97800027D01*
X148509573Y-97770193D01*
X148487534Y-97740572D01*
X148465537Y-97711190D01*
X148443601Y-97682071D01*
X148421740Y-97653239D01*
X148399972Y-97624721D01*
X148378314Y-97596541D01*
X148356782Y-97568723D01*
X148335392Y-97541292D01*
X148310950Y-97510206D01*
X148286698Y-97479646D01*
X148262618Y-97449599D01*
X148238693Y-97420052D01*
X148214908Y-97390992D01*
X148191244Y-97362406D01*
X148167685Y-97334280D01*
X148144214Y-97306601D01*
X148120815Y-97279356D01*
X148097469Y-97252533D01*
X148074161Y-97226117D01*
X148050873Y-97200097D01*
X148027589Y-97174458D01*
X148004291Y-97149187D01*
X147980963Y-97124272D01*
X147957587Y-97099699D01*
X147934148Y-97075454D01*
X147910627Y-97051526D01*
X147887009Y-97027901D01*
X147863276Y-97004565D01*
X147839411Y-96981506D01*
X147815397Y-96958710D01*
X147791218Y-96936164D01*
X147766856Y-96913855D01*
X147742295Y-96891771D01*
X147717518Y-96869896D01*
X147692508Y-96848220D01*
X147667248Y-96826728D01*
X147641720Y-96805407D01*
X147615909Y-96784245D01*
X147589797Y-96763227D01*
X147563368Y-96742342D01*
X147536604Y-96721575D01*
X147507742Y-96699594D01*
X147478525Y-96677758D01*
X147448979Y-96656080D01*
X147419131Y-96634572D01*
X147389006Y-96613250D01*
X147358632Y-96592125D01*
X147328035Y-96571212D01*
X147297241Y-96550523D01*
X147266277Y-96530073D01*
X147235169Y-96509875D01*
X147203943Y-96489942D01*
X147172627Y-96470288D01*
X147141246Y-96450925D01*
X147109827Y-96431868D01*
X147078396Y-96413130D01*
X147046980Y-96394725D01*
X147015606Y-96376665D01*
X146984299Y-96358964D01*
X146953086Y-96341636D01*
X146921994Y-96324694D01*
X146891049Y-96308152D01*
X146860277Y-96292022D01*
X146829705Y-96276319D01*
X146799359Y-96261056D01*
X146769267Y-96246246D01*
X146739453Y-96231902D01*
X146709945Y-96218039D01*
X146680769Y-96204669D01*
X146651952Y-96191806D01*
X146623519Y-96179464D01*
X146595498Y-96167655D01*
X146560723Y-96153550D01*
X146526686Y-96140365D01*
X146493360Y-96128057D01*
X146460722Y-96116584D01*
X146428745Y-96105902D01*
X146397404Y-96095967D01*
X146366675Y-96086736D01*
X146366673Y-96086738D01*
X146366324Y-96086389D01*
X146365977Y-96086038D01*
X146344760Y-96059045D01*
X146323530Y-96032043D01*
X146302272Y-96005048D01*
X146280968Y-95978078D01*
X146259601Y-95951149D01*
X146238155Y-95924277D01*
X146216612Y-95897478D01*
X146194957Y-95870768D01*
X146173171Y-95844165D01*
X146151239Y-95817684D01*
X146129143Y-95791342D01*
X146106867Y-95765156D01*
X146084393Y-95739141D01*
X146061706Y-95713314D01*
X146038788Y-95687691D01*
X146013997Y-95660500D01*
X145989000Y-95633626D01*
X145963802Y-95607109D01*
X145938410Y-95580988D01*
X145912832Y-95555300D01*
X145887073Y-95530086D01*
X145861140Y-95505383D01*
X145835041Y-95481230D01*
X145808782Y-95457666D01*
X145782370Y-95434730D01*
X145755811Y-95412460D01*
X145729112Y-95390896D01*
X145702280Y-95370075D01*
X145675322Y-95350037D01*
X145646151Y-95329381D01*
X145616833Y-95309705D01*
X145587368Y-95291008D01*
X145557756Y-95273287D01*
X145527997Y-95256541D01*
X145498091Y-95240769D01*
X145468039Y-95225968D01*
X145437840Y-95212139D01*
X145407495Y-95199278D01*
X145377003Y-95187384D01*
X145346364Y-95176456D01*
X145315579Y-95166492D01*
X145284648Y-95157491D01*
X145250937Y-95148809D01*
X145217048Y-95141267D01*
X145183053Y-95134912D01*
X145149024Y-95129795D01*
X145115033Y-95125964D01*
X145081152Y-95123471D01*
X145047453Y-95122363D01*
X145014008Y-95122691D01*
X144980889Y-95124503D01*
X144948168Y-95127851D01*
X144915917Y-95132782D01*
X144884207Y-95139347D01*
X144854195Y-95147304D01*
X144825124Y-95156779D01*
X144797059Y-95167698D01*
X144770067Y-95179992D01*
X144744215Y-95193587D01*
X144719567Y-95208413D01*
X144710546Y-95175265D01*
X144701709Y-95141800D01*
X144693055Y-95107960D01*
X144684585Y-95073689D01*
X144676298Y-95038932D01*
X144668194Y-95003631D01*
X144660275Y-94967731D01*
X144653551Y-94935868D01*
X144647036Y-94903460D01*
X144640747Y-94870536D01*
X144634702Y-94837129D01*
X144628915Y-94803270D01*
X144623406Y-94768989D01*
X144618190Y-94734318D01*
X144613284Y-94699288D01*
X144608706Y-94663931D01*
X144604472Y-94628278D01*
X144600599Y-94592359D01*
X144597103Y-94556206D01*
X144594003Y-94519851D01*
X144591463Y-94485899D01*
X144589208Y-94451746D01*
X144587218Y-94417400D01*
X144585478Y-94382870D01*
X144583969Y-94348165D01*
X144582675Y-94313294D01*
X144581578Y-94278266D01*
X144580660Y-94243089D01*
X144579905Y-94207773D01*
X144579294Y-94172326D01*
X144578811Y-94136759D01*
X144578438Y-94101078D01*
X144578157Y-94065294D01*
X144577952Y-94029416D01*
X144577951Y-94029416D01*
X144577723Y-94024884D01*
X144577255Y-94020371D01*
X144577250Y-94020356D01*
X144577251Y-94020356D01*
X144577805Y-94014428D01*
X144577946Y-94008476D01*
X144580338Y-94006069D01*
X144585216Y-93977196D01*
X144593998Y-93931742D01*
X144600089Y-93904835D01*
X144607199Y-93874699D01*
X144615387Y-93841538D01*
X144624712Y-93805555D01*
X144635234Y-93766954D01*
X144647012Y-93725940D01*
X144654680Y-93700196D01*
X144662765Y-93673563D01*
X144671262Y-93646052D01*
X144680164Y-93617676D01*
X144689469Y-93588448D01*
X144699169Y-93558379D01*
X144709261Y-93527484D01*
X144719739Y-93495773D01*
X144730598Y-93463260D01*
X144741833Y-93429957D01*
X144753439Y-93395876D01*
X144765411Y-93361030D01*
X144777743Y-93325431D01*
X144790431Y-93289092D01*
X144803470Y-93252026D01*
X144816854Y-93214244D01*
X144830578Y-93175760D01*
X144844638Y-93136585D01*
X144859027Y-93096732D01*
X144873742Y-93056214D01*
X144883410Y-93029730D01*
X144893221Y-93002984D01*
X144903173Y-92975981D01*
X144913267Y-92948723D01*
X144923501Y-92921214D01*
X144933876Y-92893457D01*
X144944391Y-92865457D01*
X144955045Y-92837216D01*
X144965839Y-92808737D01*
X144976771Y-92780025D01*
X144987841Y-92751083D01*
X144999048Y-92721913D01*
X145010393Y-92692520D01*
X145021875Y-92662907D01*
X145033493Y-92633077D01*
X145045246Y-92603034D01*
X145057135Y-92572781D01*
X145069159Y-92542321D01*
X145081318Y-92511659D01*
X145093610Y-92480797D01*
X145106036Y-92449739D01*
X145118596Y-92418489D01*
X145131287Y-92387049D01*
X145144111Y-92355423D01*
X145157067Y-92323615D01*
X145170154Y-92291628D01*
X145183372Y-92259465D01*
X145196720Y-92227131D01*
X145210198Y-92194627D01*
X145223805Y-92161959D01*
X145237541Y-92129128D01*
X145251406Y-92096139D01*
X145265399Y-92062996D01*
X145279520Y-92029700D01*
X145293768Y-91996257D01*
X145308142Y-91962669D01*
X145322643Y-91928939D01*
X145337269Y-91895072D01*
X145352021Y-91861070D01*
X145366898Y-91826938D01*
X145381899Y-91792678D01*
X145397024Y-91758293D01*
X145412273Y-91723789D01*
X145427644Y-91689166D01*
X145443138Y-91654430D01*
X145458755Y-91619584D01*
X145474493Y-91584630D01*
X145490352Y-91549574D01*
X145506332Y-91514416D01*
X145522432Y-91479163D01*
X145538652Y-91443816D01*
X145554992Y-91408379D01*
X145571450Y-91372856D01*
X145588027Y-91337249D01*
X145604722Y-91301564D01*
X145621535Y-91265802D01*
X145638465Y-91229967D01*
X145655511Y-91194063D01*
X145672673Y-91158094D01*
X145689952Y-91122062D01*
X145707345Y-91085971D01*
X145724854Y-91049824D01*
X145740100Y-91018498D01*
X145755431Y-90987137D01*
X145770848Y-90955743D01*
X145786350Y-90924319D01*
X145801936Y-90892867D01*
X145817606Y-90861389D01*
X145833359Y-90829887D01*
X145849196Y-90798364D01*
X145865115Y-90766822D01*
X145881116Y-90735263D01*
X145897199Y-90703689D01*
X145913363Y-90672103D01*
X145929608Y-90640507D01*
X145945933Y-90608904D01*
X145962338Y-90577294D01*
X145978823Y-90545682D01*
X145995387Y-90514069D01*
X146012029Y-90482457D01*
X146028750Y-90450848D01*
X146045548Y-90419245D01*
X146062424Y-90387651D01*
X146079377Y-90356066D01*
X146096406Y-90324495D01*
X146113511Y-90292938D01*
X146130691Y-90261398D01*
X146147947Y-90229878D01*
X146165277Y-90198380D01*
X146182682Y-90166905D01*
X146200161Y-90135457D01*
X146217712Y-90104037D01*
X146235337Y-90072647D01*
X146253034Y-90041291D01*
X146270804Y-90009970D01*
X146288644Y-89978687D01*
X146306557Y-89947443D01*
X146324539Y-89916241D01*
X146342592Y-89885084D01*
X146360715Y-89853973D01*
X146378908Y-89822912D01*
X146397169Y-89791901D01*
X146415499Y-89760943D01*
X146433897Y-89730042D01*
X146452363Y-89699198D01*
X146470895Y-89668414D01*
X146489495Y-89637693D01*
X146508161Y-89607036D01*
X146526893Y-89576447D01*
X146545690Y-89545926D01*
X146564553Y-89515477D01*
X146583480Y-89485102D01*
X146602471Y-89454803D01*
X146621526Y-89424582D01*
X146640644Y-89394442D01*
X146659825Y-89364384D01*
X146679068Y-89334412D01*
X146698374Y-89304527D01*
X146717740Y-89274731D01*
X146737168Y-89245028D01*
X146756657Y-89215418D01*
X146776206Y-89185905D01*
X146795814Y-89156491D01*
X146815482Y-89127177D01*
X146835209Y-89097967D01*
X146854994Y-89068862D01*
X146874837Y-89039865D01*
X146894738Y-89010978D01*
X146914696Y-88982203D01*
X146934711Y-88953542D01*
X146954781Y-88924998D01*
X146974908Y-88896574D01*
X146995090Y-88868271D01*
X147015327Y-88840091D01*
X147035619Y-88812037D01*
X147055964Y-88784111D01*
X147076363Y-88756316D01*
X147096816Y-88728653D01*
X147117321Y-88701125D01*
X147137878Y-88673734D01*
X147158487Y-88646482D01*
X147140203Y-88675493D01*
G37*
G36*
X143854078Y-102408080D02*
G01*
X143889739Y-102408609D01*
X143925367Y-102409387D01*
X143960915Y-102410399D01*
X143996338Y-102411630D01*
X144031589Y-102413064D01*
X144066623Y-102414685D01*
X144101393Y-102416480D01*
X144135853Y-102418431D01*
X144169958Y-102420524D01*
X144203660Y-102422744D01*
X144236915Y-102425075D01*
X144269675Y-102427502D01*
X144301896Y-102430010D01*
X144333530Y-102432583D01*
X144364532Y-102435206D01*
X144404043Y-102438704D01*
X144442457Y-102442263D01*
X144479840Y-102445878D01*
X144516254Y-102449547D01*
X144551763Y-102453266D01*
X144586433Y-102457033D01*
X144620326Y-102460843D01*
X144653507Y-102464695D01*
X144686040Y-102468584D01*
X144717989Y-102472508D01*
X144749419Y-102476463D01*
X144780392Y-102480447D01*
X144810974Y-102484456D01*
X144841228Y-102488488D01*
X144871218Y-102492538D01*
X144901009Y-102496604D01*
X144902822Y-102530142D01*
X144904286Y-102563736D01*
X144905392Y-102597333D01*
X144906131Y-102630877D01*
X144906494Y-102664314D01*
X144906472Y-102697589D01*
X144906057Y-102730647D01*
X144905239Y-102763435D01*
X144904009Y-102795897D01*
X144902359Y-102827979D01*
X144899571Y-102868966D01*
X144896055Y-102909327D01*
X144891851Y-102949036D01*
X144886997Y-102988066D01*
X144881533Y-103026390D01*
X144875498Y-103063981D01*
X144868930Y-103100815D01*
X144861870Y-103136863D01*
X144854355Y-103172099D01*
X144846426Y-103206497D01*
X144838120Y-103240031D01*
X144829478Y-103272673D01*
X144820538Y-103304398D01*
X144811339Y-103335178D01*
X144801921Y-103364987D01*
X144792322Y-103393799D01*
X144782581Y-103421587D01*
X144772739Y-103448325D01*
X144762833Y-103473986D01*
X144747156Y-103512321D01*
X144731484Y-103548016D01*
X144715723Y-103581366D01*
X144699777Y-103612669D01*
X144683553Y-103642219D01*
X144666955Y-103670314D01*
X144649890Y-103697249D01*
X144632263Y-103723320D01*
X144613979Y-103748824D01*
X144594943Y-103774058D01*
X144575062Y-103799316D01*
X144554240Y-103824896D01*
X144534071Y-103849014D01*
X144513155Y-103873425D01*
X144491556Y-103898109D01*
X144469339Y-103923048D01*
X144446568Y-103948224D01*
X144423307Y-103973618D01*
X144399621Y-103999213D01*
X144375574Y-104024988D01*
X144351230Y-104050927D01*
X144327252Y-104050070D01*
X144299601Y-104046661D01*
X144267416Y-104040327D01*
X144229838Y-104030691D01*
X144196960Y-104017903D01*
X144163364Y-104005220D01*
X144129257Y-103992658D01*
X144094847Y-103980232D01*
X144060340Y-103967959D01*
X144025944Y-103955856D01*
X143991866Y-103943937D01*
X143958313Y-103932220D01*
X143925493Y-103920719D01*
X143893612Y-103909452D01*
X143862877Y-103898435D01*
X143833497Y-103887683D01*
X143805677Y-103877212D01*
X143775115Y-103865372D01*
X143747303Y-103854093D01*
X143721810Y-103842888D01*
X143698203Y-103831267D01*
X143676050Y-103818744D01*
X143654919Y-103804830D01*
X143634378Y-103789038D01*
X143613995Y-103770879D01*
X143593338Y-103749866D01*
X143571974Y-103725510D01*
X143549472Y-103697324D01*
X143525400Y-103664820D01*
X143499324Y-103627509D01*
X143470814Y-103584905D01*
X143456635Y-103563122D01*
X143441996Y-103540193D01*
X143426926Y-103516173D01*
X143411452Y-103491117D01*
X143395605Y-103465078D01*
X143379412Y-103438112D01*
X143362902Y-103410272D01*
X143346104Y-103381613D01*
X143329046Y-103352190D01*
X143311757Y-103322058D01*
X143294266Y-103291270D01*
X143276600Y-103259881D01*
X143258790Y-103227946D01*
X143240863Y-103195519D01*
X143222848Y-103162655D01*
X143204774Y-103129408D01*
X143186669Y-103095832D01*
X143168562Y-103061983D01*
X143150482Y-103027914D01*
X143132457Y-102993681D01*
X143114516Y-102959337D01*
X143096687Y-102924937D01*
X143079000Y-102890535D01*
X143061482Y-102856187D01*
X143044162Y-102821946D01*
X143027070Y-102787868D01*
X143010233Y-102754006D01*
X142993681Y-102720415D01*
X142977441Y-102687149D01*
X142961543Y-102654263D01*
X142947530Y-102625115D01*
X142933777Y-102596384D01*
X142920301Y-102567989D01*
X142907124Y-102539851D01*
X142907182Y-102539885D01*
X142930200Y-102532865D01*
X142950840Y-102526842D01*
X142973335Y-102520416D01*
X142997629Y-102513653D01*
X143023665Y-102506619D01*
X143051385Y-102499381D01*
X143080734Y-102492006D01*
X143111655Y-102484560D01*
X143144089Y-102477110D01*
X143177982Y-102469723D01*
X143213275Y-102462466D01*
X143249913Y-102455404D01*
X143287837Y-102448606D01*
X143326992Y-102442136D01*
X143367320Y-102436063D01*
X143408765Y-102430452D01*
X143451270Y-102425370D01*
X143494778Y-102420885D01*
X143539232Y-102417062D01*
X143573119Y-102414658D01*
X143607388Y-102412642D01*
X143641993Y-102410997D01*
X143676886Y-102409709D01*
X143712022Y-102408763D01*
X143747356Y-102408142D01*
X143782840Y-102407831D01*
X143818430Y-102407816D01*
X143854078Y-102408080D01*
G37*
G36*
X141456366Y-90660886D02*
G01*
X141492604Y-90661788D01*
X141528992Y-90663180D01*
X141565500Y-90665078D01*
X141602097Y-90667495D01*
X141638754Y-90670448D01*
X141675441Y-90673952D01*
X141712126Y-90678021D01*
X141750558Y-90682892D01*
X141788811Y-90688346D01*
X141826830Y-90694352D01*
X141864559Y-90700878D01*
X141901946Y-90707890D01*
X141938935Y-90715358D01*
X141975473Y-90723248D01*
X142011505Y-90731529D01*
X142046976Y-90740168D01*
X142081833Y-90749133D01*
X142116021Y-90758392D01*
X142149486Y-90767913D01*
X142182172Y-90777663D01*
X142214027Y-90787611D01*
X142244996Y-90797723D01*
X142275024Y-90807969D01*
X142304056Y-90818316D01*
X142332040Y-90828731D01*
X142358920Y-90839182D01*
X142384642Y-90849638D01*
X142422866Y-90866180D01*
X142458231Y-90882739D01*
X142490966Y-90899285D01*
X142521302Y-90915789D01*
X142549468Y-90932222D01*
X142575694Y-90948552D01*
X142600211Y-90964752D01*
X142602504Y-91000630D01*
X142604737Y-91036076D01*
X142606899Y-91071039D01*
X142608979Y-91105469D01*
X142610966Y-91139314D01*
X142612847Y-91172523D01*
X142614612Y-91205045D01*
X142616249Y-91236829D01*
X142618551Y-91283950D01*
X142620604Y-91329221D01*
X142622423Y-91372731D01*
X142624019Y-91414574D01*
X142625405Y-91454841D01*
X142626594Y-91493623D01*
X142627599Y-91531012D01*
X142628433Y-91567100D01*
X142629108Y-91601979D01*
X142629637Y-91635740D01*
X142630032Y-91668475D01*
X142630308Y-91700276D01*
X142630476Y-91731234D01*
X142630549Y-91761441D01*
X142630540Y-91790990D01*
X142630462Y-91819971D01*
X142630327Y-91848476D01*
X142630149Y-91876598D01*
X142629940Y-91904427D01*
X142629712Y-91932056D01*
X142629479Y-91959576D01*
X142634250Y-91985390D01*
X142648508Y-92007433D01*
X142670097Y-92022369D01*
X142695751Y-92027940D01*
X142722146Y-92023124D01*
X142744580Y-92008405D01*
X142730209Y-92031098D01*
X142715186Y-92054191D01*
X142699306Y-92077607D01*
X142682363Y-92101270D01*
X142664150Y-92125102D01*
X142644463Y-92149025D01*
X142623096Y-92172963D01*
X142599842Y-92196839D01*
X142574497Y-92220574D01*
X142546855Y-92244092D01*
X142516709Y-92267316D01*
X142483855Y-92290169D01*
X142448086Y-92312572D01*
X142422454Y-92327325D01*
X142395664Y-92341845D01*
X142367802Y-92356119D01*
X142338954Y-92370133D01*
X142309203Y-92383873D01*
X142278636Y-92397324D01*
X142247337Y-92410474D01*
X142215391Y-92423309D01*
X142182883Y-92435814D01*
X142149899Y-92447976D01*
X142116523Y-92459780D01*
X142082840Y-92471214D01*
X142048936Y-92482264D01*
X142014895Y-92492914D01*
X141980803Y-92503152D01*
X141946744Y-92512964D01*
X141912803Y-92522336D01*
X141879067Y-92531254D01*
X141845619Y-92539705D01*
X141812544Y-92547673D01*
X141774537Y-92556333D01*
X141737185Y-92564307D01*
X141700475Y-92571616D01*
X141664395Y-92578282D01*
X141628931Y-92584325D01*
X141594072Y-92589767D01*
X141559803Y-92594629D01*
X141526112Y-92598933D01*
X141492986Y-92602700D01*
X141460411Y-92605950D01*
X141428376Y-92608706D01*
X141396868Y-92610987D01*
X141365872Y-92612817D01*
X141335377Y-92614216D01*
X141305369Y-92615204D01*
X141275836Y-92615805D01*
X141246765Y-92616037D01*
X141226453Y-92589819D01*
X141206457Y-92563455D01*
X141186792Y-92536934D01*
X141167471Y-92510241D01*
X141148508Y-92483362D01*
X141129918Y-92456283D01*
X141111716Y-92428991D01*
X141093915Y-92401472D01*
X141076529Y-92373712D01*
X141059574Y-92345697D01*
X141043063Y-92317414D01*
X141027010Y-92288849D01*
X141011825Y-92260750D01*
X140997055Y-92232334D01*
X140982692Y-92203593D01*
X140968725Y-92174525D01*
X140955145Y-92145123D01*
X140941943Y-92115383D01*
X140929109Y-92085300D01*
X140916633Y-92054869D01*
X140904507Y-92024085D01*
X140892721Y-91992944D01*
X140881265Y-91961440D01*
X140870130Y-91929569D01*
X140859307Y-91897325D01*
X140848785Y-91864704D01*
X140838556Y-91831702D01*
X140828609Y-91798312D01*
X140818936Y-91764530D01*
X140809528Y-91730352D01*
X140800373Y-91695772D01*
X140791464Y-91660786D01*
X140782791Y-91625389D01*
X140774344Y-91589575D01*
X140766113Y-91553340D01*
X140758089Y-91516679D01*
X140750264Y-91479587D01*
X140742626Y-91442060D01*
X140735168Y-91404092D01*
X140727879Y-91365678D01*
X140720749Y-91326814D01*
X140714758Y-91293128D01*
X140708890Y-91259152D01*
X140703153Y-91224905D01*
X140697558Y-91190403D01*
X140692113Y-91155661D01*
X140686827Y-91120697D01*
X140681709Y-91085526D01*
X140676768Y-91050166D01*
X140672013Y-91014632D01*
X140667454Y-90978942D01*
X140663099Y-90943111D01*
X140658957Y-90907157D01*
X140655038Y-90871095D01*
X140651349Y-90834942D01*
X140647902Y-90798715D01*
X140644704Y-90762429D01*
X140644748Y-90762409D01*
X140671904Y-90755128D01*
X140700655Y-90747702D01*
X140730948Y-90740197D01*
X140762730Y-90732684D01*
X140795947Y-90725230D01*
X140830547Y-90717904D01*
X140866475Y-90710775D01*
X140903680Y-90703910D01*
X140942107Y-90697379D01*
X140981704Y-90691251D01*
X141012670Y-90686878D01*
X141044209Y-90682784D01*
X141076291Y-90678983D01*
X141108885Y-90675492D01*
X141141961Y-90672324D01*
X141175489Y-90669496D01*
X141209439Y-90667022D01*
X141243781Y-90664916D01*
X141278485Y-90663196D01*
X141313519Y-90661874D01*
X141348855Y-90660968D01*
X141384461Y-90660491D01*
X141420309Y-90660458D01*
X141456366Y-90660886D01*
G37*
%TD*%
D10*
%TO.C,J9*%
X199761300Y-121000000D03*
%TD*%
D11*
%TO.C,RV6*%
X132400000Y-73243000D03*
X128400000Y-73243000D03*
X132400000Y-116743000D03*
%TD*%
D10*
%TO.C,J8*%
X199761285Y-118693000D03*
%TD*%
D12*
%TO.C,RV4*%
X187900000Y-132493000D03*
X192900000Y-132493000D03*
X197900000Y-132493000D03*
%TD*%
D11*
%TO.C,RV5*%
X107400000Y-73243000D03*
X103400000Y-73243000D03*
X107400000Y-116743000D03*
%TD*%
D10*
%TO.C,J11*%
X199761285Y-125593000D03*
%TD*%
%TO.C,J7*%
X199761285Y-116393000D03*
%TD*%
D11*
%TO.C,RV8*%
X182400000Y-73243000D03*
X178400000Y-73243000D03*
X182400000Y-116743000D03*
%TD*%
D10*
%TO.C,J10*%
X199761285Y-123293000D03*
%TD*%
D12*
%TO.C,RV2*%
X137900000Y-132493000D03*
X142900000Y-132493000D03*
X147900000Y-132493000D03*
%TD*%
D10*
%TO.C,J3*%
X199761285Y-99743000D03*
%TD*%
%TO.C,J12*%
X199761285Y-127893000D03*
%TD*%
%TO.C,J2*%
X199761285Y-97443000D03*
%TD*%
%TO.C,J5*%
X199761285Y-104343000D03*
%TD*%
D13*
%TO.C,U1*%
X120400000Y-131990000D03*
D11*
X120400000Y-129450000D03*
X120400000Y-126910000D03*
X120400000Y-124370000D03*
X120400000Y-121830000D03*
X120400000Y-119290000D03*
X120400000Y-116750000D03*
X120400000Y-114210000D03*
X120400000Y-111670000D03*
X120400000Y-109130000D03*
X120400000Y-106590000D03*
X120400000Y-104050000D03*
X120400000Y-101510000D03*
X120400000Y-98970000D03*
X117860000Y-98970000D03*
X115320000Y-98970000D03*
X112780000Y-98970000D03*
X110240000Y-98970000D03*
X107700000Y-98970000D03*
X105160000Y-98970000D03*
X105160000Y-101510000D03*
X105160000Y-104050000D03*
X105160000Y-106590000D03*
X105160000Y-109130000D03*
X105160000Y-111670000D03*
X105160000Y-114210000D03*
X105160000Y-116750000D03*
X105160000Y-119290000D03*
X105160000Y-121830000D03*
X105160000Y-124370000D03*
X105160000Y-126910000D03*
X105160000Y-129450000D03*
X105160000Y-131990000D03*
X107700000Y-129450000D03*
X107700000Y-124370000D03*
X107700000Y-121830000D03*
X107700000Y-119290000D03*
D14*
X112780000Y-121830000D03*
X112780000Y-125640000D03*
%TD*%
D10*
%TO.C,J4*%
X199761285Y-102043000D03*
%TD*%
%TO.C,J1*%
X199761285Y-75893000D03*
%TD*%
D12*
%TO.C,RV3*%
X162900000Y-132493000D03*
X167900000Y-132493000D03*
X172900000Y-132493000D03*
%TD*%
D11*
%TO.C,RV7*%
X157400000Y-73243000D03*
X153400000Y-73243000D03*
X157400000Y-116743000D03*
%TD*%
D12*
%TO.C,RV1*%
X112900000Y-132493000D03*
X117900000Y-132493000D03*
X122900000Y-132493000D03*
%TD*%
D10*
%TO.C,J6*%
X199761285Y-114093000D03*
%TD*%
M02*
