%TF.GenerationSoftware,KiCad,Pcbnew,(6.0.4)*%
%TF.CreationDate,2022-06-13T21:37:06-04:00*%
%TF.ProjectId,midimania,6d696469-6d61-46e6-9961-2e6b69636164,rev?*%
%TF.SameCoordinates,Original*%
%TF.FileFunction,Soldermask,Bot*%
%TF.FilePolarity,Negative*%
%FSLAX46Y46*%
G04 Gerber Fmt 4.6, Leading zero omitted, Abs format (unit mm)*
G04 Created by KiCad (PCBNEW (6.0.4)) date 2022-06-13 21:37:06*
%MOMM*%
%LPD*%
G01*
G04 APERTURE LIST*
%ADD10C,1.600000*%
%ADD11C,1.800000*%
%ADD12R,1.600000X1.600000*%
%ADD13C,1.900000*%
G04 APERTURE END LIST*
D10*
%TO.C,RV6*%
X132400000Y-73243000D03*
X128400000Y-73243000D03*
X132400000Y-116743000D03*
%TD*%
D11*
%TO.C,RV4*%
X187900000Y-132493000D03*
X192900000Y-132493000D03*
X197900000Y-132493000D03*
%TD*%
D10*
%TO.C,RV5*%
X107400000Y-73243000D03*
X103400000Y-73243000D03*
X107400000Y-116743000D03*
%TD*%
%TO.C,RV8*%
X182400000Y-73243000D03*
X178400000Y-73243000D03*
X182400000Y-116743000D03*
%TD*%
D11*
%TO.C,RV2*%
X137900000Y-132493000D03*
X142900000Y-132493000D03*
X147900000Y-132493000D03*
%TD*%
D12*
%TO.C,U1*%
X120400000Y-131990000D03*
D10*
X120400000Y-129450000D03*
X120400000Y-126910000D03*
X120400000Y-124370000D03*
X120400000Y-121830000D03*
X120400000Y-119290000D03*
X120400000Y-116750000D03*
X120400000Y-114210000D03*
X120400000Y-111670000D03*
X120400000Y-109130000D03*
X120400000Y-106590000D03*
X120400000Y-104050000D03*
X120400000Y-101510000D03*
X120400000Y-98970000D03*
X117860000Y-98970000D03*
X115320000Y-98970000D03*
X112780000Y-98970000D03*
X110240000Y-98970000D03*
X107700000Y-98970000D03*
X105160000Y-98970000D03*
X105160000Y-101510000D03*
X105160000Y-104050000D03*
X105160000Y-106590000D03*
X105160000Y-109130000D03*
X105160000Y-111670000D03*
X105160000Y-114210000D03*
X105160000Y-116750000D03*
X105160000Y-119290000D03*
X105160000Y-121830000D03*
X105160000Y-124370000D03*
X105160000Y-126910000D03*
X105160000Y-129450000D03*
X105160000Y-131990000D03*
X107700000Y-129450000D03*
X107700000Y-124370000D03*
X107700000Y-121830000D03*
X107700000Y-119290000D03*
D13*
X112780000Y-121830000D03*
X112780000Y-125640000D03*
%TD*%
D11*
%TO.C,RV3*%
X162900000Y-132493000D03*
X167900000Y-132493000D03*
X172900000Y-132493000D03*
%TD*%
D10*
%TO.C,RV7*%
X157400000Y-73243000D03*
X153400000Y-73243000D03*
X157400000Y-116743000D03*
%TD*%
D11*
%TO.C,RV1*%
X112900000Y-132493000D03*
X117900000Y-132493000D03*
X122900000Y-132493000D03*
%TD*%
M02*
