M48
; DRILL file {KiCad (6.0.4)} date Mon Jun 13 21:38:13 2022
; FORMAT={-:-/ absolute / metric / decimal}
; #@! TF.CreationDate,2022-06-13T21:38:13-04:00
; #@! TF.GenerationSoftware,Kicad,Pcbnew,(6.0.4)
; #@! TF.FileFunction,Plated,1,2,PTH
FMAT,2
METRIC
; #@! TA.AperFunction,Plated,PTH,ViaDrill
T1C0.400
; #@! TA.AperFunction,Plated,PTH,ComponentDrill
T2C0.500
; #@! TA.AperFunction,Plated,PTH,ComponentDrill
T3C1.000
; #@! TA.AperFunction,Plated,PTH,ComponentDrill
T4C1.100
; #@! TA.AperFunction,Plated,PTH,ComponentDrill
T5C1.200
%
G90
G05
T1
X132.4Y-120.014
X156.5Y-124.35
X157.4Y-120.014
X160.45Y-124.35
X182.4Y-120.014
X194.725Y-111.8
X195.431Y-112.507
X196.138Y-113.213
X196.912Y-113.988
X197.75Y-127.9
X199.75Y-129.9
X199.775Y-112.075
T2
X112.78Y-121.83
X112.78Y-125.64
T3
X103.4Y-73.243
X107.4Y-73.243
X107.4Y-116.743
X128.4Y-73.243
X132.4Y-73.243
X132.4Y-116.743
X153.4Y-73.243
X157.4Y-73.243
X157.4Y-116.743
X178.4Y-73.243
X182.4Y-73.243
X182.4Y-116.743
T4
X105.16Y-98.97
X105.16Y-101.51
X105.16Y-104.05
X105.16Y-106.59
X105.16Y-109.13
X105.16Y-111.67
X105.16Y-114.21
X105.16Y-116.75
X105.16Y-119.29
X105.16Y-121.83
X105.16Y-124.37
X105.16Y-126.91
X105.16Y-129.45
X105.16Y-131.99
X107.7Y-98.97
X107.7Y-119.29
X107.7Y-121.83
X107.7Y-124.37
X107.7Y-129.45
X110.24Y-98.97
X112.78Y-98.97
X115.32Y-98.97
X117.86Y-98.97
X120.4Y-98.97
X120.4Y-101.51
X120.4Y-104.05
X120.4Y-106.59
X120.4Y-109.13
X120.4Y-111.67
X120.4Y-114.21
X120.4Y-116.75
X120.4Y-119.29
X120.4Y-121.83
X120.4Y-124.37
X120.4Y-126.91
X120.4Y-129.45
X120.4Y-131.99
T5
X112.9Y-132.493
X117.9Y-132.493
X122.9Y-132.493
X137.9Y-132.493
X142.9Y-132.493
X147.9Y-132.493
X162.9Y-132.493
X167.9Y-132.493
X172.9Y-132.493
X187.9Y-132.493
X192.9Y-132.493
X197.9Y-132.493
T0
M30
